SplineFontDB: 3.2
FontName: Amanda_Secrets_v01
FullName: Amanda_Secrets_v01
FamilyName: Amanda_Secrets
Weight: Regular
Copyright: Copyright (c) 2024, Cynic Placebo
UComments: "2024-6-21: Created with FontForge (http://fontforge.org)"
Version: 000.100
ItalicAngle: 0
UnderlinePosition: -100
UnderlineWidth: 50
Ascent: 800
Descent: 200
InvalidEm: 0
LayerCount: 2
Layer: 0 0 "Back" 1
Layer: 1 0 "Fore" 0
XUID: [1021 214 -213877272 32422]
StyleMap: 0x0000
FSType: 0
OS2Version: 0
OS2_WeightWidthSlopeOnly: 0
OS2_UseTypoMetrics: 1
CreationTime: 1718986237
ModificationTime: 1718997047
OS2TypoAscent: 0
OS2TypoAOffset: 1
OS2TypoDescent: 0
OS2TypoDOffset: 1
OS2TypoLinegap: 90
OS2WinAscent: 0
OS2WinAOffset: 1
OS2WinDescent: 0
OS2WinDOffset: 1
HheadAscent: 0
HheadAOffset: 1
HheadDescent: 0
HheadDOffset: 1
MarkAttachClasses: 1
DEI: 91125
Encoding: ISO8859-1
UnicodeInterp: none
NameList: AGL For New Fonts
DisplaySize: -48
AntiAlias: 1
FitToEm: 0
WinInfo: 48 16 6
BeginPrivate: 0
EndPrivate
BeginChars: 256 99

StartChar: B
Encoding: 66 66 0
Width: 1000
HStem: 0.140625 27.9961<27.9902 771.729> 620.031 179.969<650.886 767.852> 772.004 27.9961<27.9902 644.816>
VStem: 0 27.9902<28.1367 772.004> 619.781 179.938<651.141 768.126> 771.729 27.9902<28.5839 645.072>
LayerCount: 2
Fore
SplineSet
0 800 m 1xb4
 709.75 800 l 1xd4
 799.71875 800 l 1xb4
 799.71875 710.015625 l 1xb8
 799.71875 0.140625 l 1
 0 0.140625 l 1
 0 800 l 1xb4
27.990234375 772.00390625 m 1xb8
 27.990234375 28.13671875 l 1
 771.728515625 28.13671875 l 1
 771.728515625 28.13671875 771.700195312 645.075195312 771.728515625 645.072265625 c 1
 755.62890625 629.62890625 733.778320312 620.110351562 709.75 620.03125 c 0xd4
 660.094726562 620.03125 619.78125 660.352539062 619.78125 710.015625 c 0
 619.860351562 734.047851562 629.375976562 755.901367188 644.81640625 772.00390625 c 1
 27.990234375 772.00390625 l 1xb8
EndSplineSet
Validated: 33
EndChar

StartChar: C
Encoding: 67 67 1
Width: 1000
HStem: 0.140625 27.9961<61.8555 771.729> 772.004 27.9961<27.9902 737.816>
VStem: 0 27.9902<62.1387 772.004> 771.729 27.9902<28.1367 738.059>
LayerCount: 2
Fore
SplineSet
0 800 m 1
 765.80859375 800 l 1
 799.71875 800 l 1
 799.71875 766.052734375 l 1
 799.71875 0.140625 l 1
 26.876953125 0.140625 l 2
 22.322265625 -0.08984375 17.625 0.0234375 12.92578125 0.140625 c 2
 0 0.140625 l 1
 0 800 l 1
27.990234375 772.00390625 m 1
 27.990234375 62.138671875 l 1
 146.274414062 180.4453125 264.557617188 298.75390625 382.841796875 417.060546875 c 1
 382.919921875 416.982421875 l 1
 382.908203125 416.994140625 382.900390625 417.009765625 382.888671875 417.021484375 c 0
 501.197265625 535.349609375 619.5078125 653.676757812 737.81640625 772.00390625 c 1
 27.990234375 772.00390625 l 1
771.728515625 738.05859375 m 1
 653.423828125 619.733398438 535.119140625 501.407226562 416.814453125 383.08203125 c 1
 416.775390625 383.12109375 l 1
 298.467773438 264.79296875 180.162109375 146.46484375 61.85546875 28.13671875 c 1
 771.728515625 28.13671875 l 1
 771.728515625 738.05859375 l 1
EndSplineSet
Validated: 1
EndChar

StartChar: A
Encoding: 65 65 2
Width: 1000
HStem: 0.140625 27.9961<27.9902 771.729> 310.086 179.969<340.995 458.724> 772.004 27.9961<27.9902 771.729>
VStem: 0 27.9902<28.1367 772.004> 309.891 179.938<341.196 458.945> 771.729 27.9902<28.1367 772.004>
CounterMasks: 1 fc
LayerCount: 2
Fore
SplineSet
0 800 m 1
 799.71875 800 l 1
 799.71875 0.140625 l 1
 0 0.140625 l 1
 0 800 l 1
27.990234375 772.00390625 m 1
 27.990234375 28.13671875 l 1
 771.728515625 28.13671875 l 1
 771.728515625 772.00390625 l 1
 27.990234375 772.00390625 l 1
399.859375 490.0546875 m 0
 449.514648438 490.0546875 489.828125 449.733398438 489.828125 400.0703125 c 0
 489.828125 350.407226562 449.514648438 310.0859375 399.859375 310.0859375 c 0
 350.204101562 310.0859375 309.890625 350.407226562 309.890625 400.0703125 c 0
 309.890625 449.733398438 350.204101562 490.0546875 399.859375 490.0546875 c 0
EndSplineSet
Validated: 1
EndChar

StartChar: Z
Encoding: 90 90 3
Width: 1000
HStem: 0.140625 179.969<31.8672 148.833 650.886 768.638> 0.140625 27.9961<155.254 644.818> 772.004 27.9961<27.9902 771.729>
VStem: 0 179.938<32.0142 148.999> 0 27.9902<155.068 771.557> 619.781 179.938<32.0142 148.999> 771.729 27.9902<155.314 772.004>
LayerCount: 2
Fore
SplineSet
0 800 m 1x68
 799.71875 800 l 1x6a
 799.71875 90.125 l 1x64
 799.71875 0.140625 l 1x62
 709.75 0.140625 l 1
 89.96875 0.140625 l 1xa2
 0 0.140625 l 1x6a
 0 90.125 l 1x70
 0 800 l 1x68
27.990234375 772.00390625 m 1
 27.990234375 772.00390625 28.0185546875 155.065429688 27.990234375 155.068359375 c 1
 44.08984375 170.51171875 65.9404296875 180.030273438 89.96875 180.109375 c 0xaa
 139.624023438 180.109375 179.9375 139.788085938 179.9375 90.125 c 0
 179.857421875 66.0927734375 170.33984375 44.23828125 154.8984375 28.13671875 c 1
 154.8984375 28.13671875 644.821289062 28.1650390625 644.818359375 28.13671875 c 1x70
 629.376953125 44.23828125 619.861328125 66.0927734375 619.78125 90.125 c 0
 619.78125 139.788085938 660.094726562 180.109375 709.75 180.109375 c 0xb4
 733.752929688 180.098632812 755.595703125 170.66796875 771.728515625 155.314453125 c 1
 771.728515625 772.00390625 l 1
 27.990234375 772.00390625 l 1
EndSplineSet
Validated: 33
EndChar

StartChar: z
Encoding: 122 122 4
Width: 1000
HStem: 0.140625 179.969<31.8672 148.833 650.886 768.638> 0.140625 27.9961<155.254 644.818> 772.004 27.9961<27.9902 771.729>
VStem: 0 179.938<32.0142 148.999> 0 27.9902<155.068 771.557> 619.781 179.938<32.0142 148.999> 771.729 27.9902<155.314 772.004>
LayerCount: 2
Fore
SplineSet
0 800 m 1x68
 799.71875 800 l 1x6a
 799.71875 90.125 l 1x64
 799.71875 0.140625 l 1x62
 709.75 0.140625 l 1
 89.96875 0.140625 l 1xa2
 0 0.140625 l 1x6a
 0 90.125 l 1x70
 0 800 l 1x68
27.990234375 772.00390625 m 1
 27.990234375 772.00390625 28.0185546875 155.065429688 27.990234375 155.068359375 c 1
 44.08984375 170.51171875 65.9404296875 180.030273438 89.96875 180.109375 c 0xaa
 139.624023438 180.109375 179.9375 139.788085938 179.9375 90.125 c 0
 179.857421875 66.0927734375 170.33984375 44.23828125 154.8984375 28.13671875 c 1
 154.8984375 28.13671875 644.821289062 28.1650390625 644.818359375 28.13671875 c 1x70
 629.376953125 44.23828125 619.861328125 66.0927734375 619.78125 90.125 c 0
 619.78125 139.788085938 660.094726562 180.109375 709.75 180.109375 c 0xb4
 733.752929688 180.098632812 755.595703125 170.66796875 771.728515625 155.314453125 c 1
 771.728515625 772.00390625 l 1
 27.990234375 772.00390625 l 1
EndSplineSet
Validated: 33
EndChar

StartChar: a
Encoding: 97 97 5
Width: 1000
HStem: 0.140625 27.9961<27.9902 771.729> 310.086 179.969<340.995 458.724> 772.004 27.9961<27.9902 771.729>
VStem: 0 27.9902<28.1367 772.004> 309.891 179.938<341.196 458.945> 771.729 27.9902<28.1367 772.004>
CounterMasks: 1 fc
LayerCount: 2
Fore
SplineSet
0 800 m 1
 799.71875 800 l 1
 799.71875 0.140625 l 1
 0 0.140625 l 1
 0 800 l 1
27.990234375 772.00390625 m 1
 27.990234375 28.13671875 l 1
 771.728515625 28.13671875 l 1
 771.728515625 772.00390625 l 1
 27.990234375 772.00390625 l 1
399.859375 490.0546875 m 0
 449.514648438 490.0546875 489.828125 449.733398438 489.828125 400.0703125 c 0
 489.828125 350.407226562 449.514648438 310.0859375 399.859375 310.0859375 c 0
 350.204101562 310.0859375 309.890625 350.407226562 309.890625 400.0703125 c 0
 309.890625 449.733398438 350.204101562 490.0546875 399.859375 490.0546875 c 0
EndSplineSet
Validated: 1
EndChar

StartChar: y
Encoding: 121 121 6
Width: 1000
HStem: 0.140625 179.969<650.886 768.638> 0.140625 27.9961<28.4373 644.818> 620.031 179.969<31.8672 148.833> 772.004 27.9961<155.146 771.729>
VStem: 0 179.938<651.141 768.912> 0 27.9902<28.1367 645.072> 619.781 179.938<32.0142 148.999> 771.729 27.9902<155.314 772.004>
LayerCount: 2
Fore
SplineSet
0 800 m 1x54
 89.96875 800 l 1x24
 799.71875 800 l 1x15
 799.71875 90.125 l 1x12
 799.71875 0.140625 l 1x51
 709.75 0.140625 l 1x81
 0 0.140625 l 1x45
 0 710.015625 l 1x48
 0 800 l 1x54
155.146484375 772.00390625 m 1x91
 170.497070312 755.868164062 179.926757812 734.022460938 179.9375 710.015625 c 0x99
 179.9375 660.352539062 139.624023438 620.03125 89.96875 620.03125 c 0
 65.9404296875 620.110351562 44.08984375 629.62890625 27.990234375 645.072265625 c 1
 27.990234375 28.13671875 l 1
 27.990234375 28.13671875 644.821289062 28.1650390625 644.818359375 28.13671875 c 1
 629.376953125 44.23828125 619.861328125 66.0927734375 619.78125 90.125 c 0x66
 619.78125 139.788085938 660.094726562 180.109375 709.75 180.109375 c 0
 733.752929688 180.098632812 755.595703125 170.66796875 771.728515625 155.314453125 c 1
 771.728515625 772.00390625 l 1
 155.146484375 772.00390625 l 1x91
EndSplineSet
Validated: 33
EndChar

StartChar: Y
Encoding: 89 89 7
Width: 1000
HStem: 0.140625 179.969<650.886 768.638> 0.140625 27.9961<28.4373 644.818> 620.031 179.969<31.8672 148.833> 772.004 27.9961<155.146 771.729>
VStem: 0 179.938<651.141 768.912> 0 27.9902<28.1367 645.072> 619.781 179.938<32.0142 148.999> 771.729 27.9902<155.314 772.004>
LayerCount: 2
Fore
SplineSet
0 800 m 1x54
 89.96875 800 l 1x24
 799.71875 800 l 1x15
 799.71875 90.125 l 1x12
 799.71875 0.140625 l 1x51
 709.75 0.140625 l 1x81
 0 0.140625 l 1x45
 0 710.015625 l 1x48
 0 800 l 1x54
155.146484375 772.00390625 m 1x91
 170.497070312 755.868164062 179.926757812 734.022460938 179.9375 710.015625 c 0x99
 179.9375 660.352539062 139.624023438 620.03125 89.96875 620.03125 c 0
 65.9404296875 620.110351562 44.08984375 629.62890625 27.990234375 645.072265625 c 1
 27.990234375 28.13671875 l 1
 27.990234375 28.13671875 644.821289062 28.1650390625 644.818359375 28.13671875 c 1
 629.376953125 44.23828125 619.861328125 66.0927734375 619.78125 90.125 c 0x66
 619.78125 139.788085938 660.094726562 180.109375 709.75 180.109375 c 0
 733.752929688 180.098632812 755.595703125 170.66796875 771.728515625 155.314453125 c 1
 771.728515625 772.00390625 l 1
 155.146484375 772.00390625 l 1x91
EndSplineSet
Validated: 33
EndChar

StartChar: x
Encoding: 120 120 8
Width: 1000
HStem: 0.140625 27.9961<27.9902 771.729> 620.031 179.969<31.8672 148.833 650.886 767.852> 772.004 27.9961<155.146 644.816>
VStem: 0 179.938<651.141 768.912> 0 27.9902<28.1367 645.072> 619.781 179.938<651.141 768.126> 771.729 27.9902<28.5839 645.072>
LayerCount: 2
Fore
SplineSet
0 800 m 1xa8
 89.96875 800 l 1
 709.75 800 l 1xc8
 799.71875 800 l 1xaa
 799.71875 710.015625 l 1xa4
 799.71875 0.140625 l 1
 0 0.140625 l 1xaa
 0 710.015625 l 1xb0
 0 800 l 1xa8
155.146484375 772.00390625 m 1xa4
 170.497070312 755.868164062 179.926757812 734.022460938 179.9375 710.015625 c 0xb4
 179.9375 660.352539062 139.624023438 620.03125 89.96875 620.03125 c 0
 65.9404296875 620.110351562 44.08984375 629.62890625 27.990234375 645.072265625 c 1
 27.990234375 28.13671875 l 1
 771.728515625 28.13671875 l 1
 771.728515625 28.13671875 771.700195312 645.075195312 771.728515625 645.072265625 c 1
 755.62890625 629.62890625 733.778320312 620.110351562 709.75 620.03125 c 0xca
 660.094726562 620.03125 619.78125 660.352539062 619.78125 710.015625 c 0
 619.860351562 734.047851562 629.375976562 755.901367188 644.81640625 772.00390625 c 1
 155.146484375 772.00390625 l 1xa4
EndSplineSet
Validated: 33
EndChar

StartChar: X
Encoding: 88 88 9
Width: 1000
HStem: 0.140625 27.9961<27.9902 771.729> 620.031 179.969<31.8672 148.833 650.886 767.852> 772.004 27.9961<155.146 644.816>
VStem: 0 179.938<651.141 768.912> 0 27.9902<28.1367 645.072> 619.781 179.938<651.141 768.126> 771.729 27.9902<28.5839 645.072>
LayerCount: 2
Fore
SplineSet
0 800 m 1xa8
 89.96875 800 l 1
 709.75 800 l 1xc8
 799.71875 800 l 1xaa
 799.71875 710.015625 l 1xa4
 799.71875 0.140625 l 1
 0 0.140625 l 1xaa
 0 710.015625 l 1xb0
 0 800 l 1xa8
155.146484375 772.00390625 m 1xa4
 170.497070312 755.868164062 179.926757812 734.022460938 179.9375 710.015625 c 0xb4
 179.9375 660.352539062 139.624023438 620.03125 89.96875 620.03125 c 0
 65.9404296875 620.110351562 44.08984375 629.62890625 27.990234375 645.072265625 c 1
 27.990234375 28.13671875 l 1
 771.728515625 28.13671875 l 1
 771.728515625 28.13671875 771.700195312 645.075195312 771.728515625 645.072265625 c 1
 755.62890625 629.62890625 733.778320312 620.110351562 709.75 620.03125 c 0xca
 660.094726562 620.03125 619.78125 660.352539062 619.78125 710.015625 c 0
 619.860351562 734.047851562 629.375976562 755.901367188 644.81640625 772.00390625 c 1
 155.146484375 772.00390625 l 1xa4
EndSplineSet
Validated: 33
EndChar

StartChar: b
Encoding: 98 98 10
Width: 1000
HStem: 0.140625 27.9961<27.9902 771.729> 620.031 179.969<650.886 767.852> 772.004 27.9961<27.9902 644.816>
VStem: 0 27.9902<28.1367 772.004> 619.781 179.938<651.141 768.126> 771.729 27.9902<28.5839 645.072>
LayerCount: 2
Fore
SplineSet
0 800 m 1xb4
 709.75 800 l 1xd4
 799.71875 800 l 1xb4
 799.71875 710.015625 l 1xb8
 799.71875 0.140625 l 1
 0 0.140625 l 1
 0 800 l 1xb4
27.990234375 772.00390625 m 1xb8
 27.990234375 28.13671875 l 1
 771.728515625 28.13671875 l 1
 771.728515625 28.13671875 771.700195312 645.075195312 771.728515625 645.072265625 c 1
 755.62890625 629.62890625 733.778320312 620.110351562 709.75 620.03125 c 0xd4
 660.094726562 620.03125 619.78125 660.352539062 619.78125 710.015625 c 0
 619.860351562 734.047851562 629.375976562 755.901367188 644.81640625 772.00390625 c 1
 27.990234375 772.00390625 l 1xb8
EndSplineSet
Validated: 33
EndChar

StartChar: J
Encoding: 74 74 11
Width: 1000
HStem: 0.140625 179.969<31.8672 148.833> 0.140625 27.9961<154.898 771.729> 310.086 179.969<340.995 458.724> 620.031 179.969<650.886 767.852> 772.004 27.9961<27.9902 644.816>
VStem: 0 179.938<32.0142 148.999> 0 27.9902<155.068 771.557> 309.891 179.938<341.196 458.945> 619.781 179.938<651.141 768.126> 771.729 27.9902<28.5839 645.072>
LayerCount: 2
Fore
SplineSet
0 800 m 1x6b
 709.75 800 l 1x33
 799.71875 800 l 1x2b40
 799.71875 710.015625 l 1x2980
 799.71875 0.140625 l 1x6940
 89.96875 0.140625 l 1xa140
 0 0.140625 l 1x6340
 0 90.125 l 1x65
 0 800 l 1x6b
27.990234375 772.00390625 m 1x2b80
 27.990234375 772.00390625 28.0185546875 155.065429688 27.990234375 155.068359375 c 1
 44.08984375 170.51171875 65.9404296875 180.030273438 89.96875 180.109375 c 0xab80
 139.624023438 180.109375 179.9375 139.788085938 179.9375 90.125 c 0
 179.857421875 66.0927734375 170.33984375 44.23828125 154.8984375 28.13671875 c 1
 771.728515625 28.13671875 l 1
 771.728515625 28.13671875 771.700195312 645.075195312 771.728515625 645.072265625 c 1
 755.62890625 629.62890625 733.778320312 620.110351562 709.75 620.03125 c 0x7540
 660.094726562 620.03125 619.78125 660.352539062 619.78125 710.015625 c 0
 619.860351562 734.047851562 629.375976562 755.901367188 644.81640625 772.00390625 c 1
 27.990234375 772.00390625 l 1x2b80
399.859375 490.0546875 m 0
 449.514648438 490.0546875 489.828125 449.733398438 489.828125 400.0703125 c 0
 489.828125 350.407226562 449.514648438 310.0859375 399.859375 310.0859375 c 0
 350.204101562 310.0859375 309.890625 350.407226562 309.890625 400.0703125 c 0
 309.890625 449.733398438 350.204101562 490.0546875 399.859375 490.0546875 c 0
EndSplineSet
Validated: 33
EndChar

StartChar: K
Encoding: 75 75 12
Width: 1000
HStem: 0.140625 27.9961<28.123 375.945 423.928 737.857> 772.004 27.9961<62.0664 376 423.982 771.861>
VStem: 0.132812 27.9902<28.1367 738.082> 375.945 47.9824<28.1367 342.129 388.193 390.199 458.016 772.004> 771.861 27.9902<62.0039 772.004>
LayerCount: 2
Fore
SplineSet
0.1328125 800 m 1
 34.07421875 800 l 1
 376 800 l 1
 423.982421875 800 l 1
 799.8515625 800 l 1
 799.8515625 27.0234375 l 2
 800.08203125 22.4677734375 799.96875 17.7685546875 799.8515625 13.068359375 c 2
 799.8515625 0.140625 l 1
 765.84765625 0.140625 l 1
 423.927734375 0.140625 l 1
 375.9453125 0.140625 l 1
 0.1328125 0.140625 l 1
 0.1328125 773.099609375 l 2
 -0.0966796875 777.65625 0.0166015625 782.353515625 0.1328125 787.052734375 c 2
 0.1328125 800 l 1
62.06640625 772.00390625 m 1
 166.7109375 667.340820312 271.35546875 562.678710938 376 458.015625 c 1
 376 772.00390625 l 1
 62.06640625 772.00390625 l 1
423.982421875 772.00390625 m 1
 423.982421875 409.939453125 l 1
 539.942382812 293.9609375 655.901367188 177.982421875 771.861328125 62.00390625 c 1
 771.861328125 772.00390625 l 1
 423.982421875 772.00390625 l 1
28.123046875 738.08203125 m 1
 28.123046875 28.13671875 l 1
 375.9453125 28.13671875 l 1
 375.9453125 390.19921875 l 1
 28.123046875 738.08203125 l 1
423.927734375 342.12890625 m 1
 423.927734375 28.13671875 l 1
 737.857421875 28.13671875 l 1
 633.21484375 132.799804688 528.5703125 237.465820312 423.927734375 342.12890625 c 1
EndSplineSet
Validated: 1
EndChar

StartChar: j
Encoding: 106 106 13
Width: 1000
HStem: 0.140625 179.969<31.8672 148.833> 0.140625 27.9961<154.898 771.729> 310.086 179.969<340.995 458.724> 620.031 179.969<650.886 767.852> 772.004 27.9961<27.9902 644.816>
VStem: 0 179.938<32.0142 148.999> 0 27.9902<155.068 771.557> 309.891 179.938<341.196 458.945> 619.781 179.938<651.141 768.126> 771.729 27.9902<28.5839 645.072>
LayerCount: 2
Fore
SplineSet
0 800 m 1x6b
 709.75 800 l 1x33
 799.71875 800 l 1x2b40
 799.71875 710.015625 l 1x2980
 799.71875 0.140625 l 1x6940
 89.96875 0.140625 l 1xa140
 0 0.140625 l 1x6340
 0 90.125 l 1x65
 0 800 l 1x6b
27.990234375 772.00390625 m 1x2b80
 27.990234375 772.00390625 28.0185546875 155.065429688 27.990234375 155.068359375 c 1
 44.08984375 170.51171875 65.9404296875 180.030273438 89.96875 180.109375 c 0xab80
 139.624023438 180.109375 179.9375 139.788085938 179.9375 90.125 c 0
 179.857421875 66.0927734375 170.33984375 44.23828125 154.8984375 28.13671875 c 1
 771.728515625 28.13671875 l 1
 771.728515625 28.13671875 771.700195312 645.075195312 771.728515625 645.072265625 c 1
 755.62890625 629.62890625 733.778320312 620.110351562 709.75 620.03125 c 0x7540
 660.094726562 620.03125 619.78125 660.352539062 619.78125 710.015625 c 0
 619.860351562 734.047851562 629.375976562 755.901367188 644.81640625 772.00390625 c 1
 27.990234375 772.00390625 l 1x2b80
399.859375 490.0546875 m 0
 449.514648438 490.0546875 489.828125 449.733398438 489.828125 400.0703125 c 0
 489.828125 350.407226562 449.514648438 310.0859375 399.859375 310.0859375 c 0
 350.204101562 310.0859375 309.890625 350.407226562 309.890625 400.0703125 c 0
 309.890625 449.733398438 350.204101562 490.0546875 399.859375 490.0546875 c 0
EndSplineSet
Validated: 33
EndChar

StartChar: k
Encoding: 107 107 14
Width: 1000
HStem: 0.140625 27.9961<28.123 375.945 423.928 737.857> 772.004 27.9961<62.0664 376 423.982 771.861>
VStem: 0.132812 27.9902<28.1367 738.082> 375.945 47.9824<28.1367 342.129 388.193 390.199 458.016 772.004> 771.861 27.9902<62.0039 772.004>
LayerCount: 2
Fore
SplineSet
0.1328125 800 m 1
 34.07421875 800 l 1
 376 800 l 1
 423.982421875 800 l 1
 799.8515625 800 l 1
 799.8515625 27.0234375 l 2
 800.08203125 22.4677734375 799.96875 17.7685546875 799.8515625 13.068359375 c 2
 799.8515625 0.140625 l 1
 765.84765625 0.140625 l 1
 423.927734375 0.140625 l 1
 375.9453125 0.140625 l 1
 0.1328125 0.140625 l 1
 0.1328125 773.099609375 l 2
 -0.0966796875 777.65625 0.0166015625 782.353515625 0.1328125 787.052734375 c 2
 0.1328125 800 l 1
62.06640625 772.00390625 m 1
 166.7109375 667.340820312 271.35546875 562.678710938 376 458.015625 c 1
 376 772.00390625 l 1
 62.06640625 772.00390625 l 1
423.982421875 772.00390625 m 1
 423.982421875 409.939453125 l 1
 539.942382812 293.9609375 655.901367188 177.982421875 771.861328125 62.00390625 c 1
 771.861328125 772.00390625 l 1
 423.982421875 772.00390625 l 1
28.123046875 738.08203125 m 1
 28.123046875 28.13671875 l 1
 375.9453125 28.13671875 l 1
 375.9453125 390.19921875 l 1
 28.123046875 738.08203125 l 1
423.927734375 342.12890625 m 1
 423.927734375 28.13671875 l 1
 737.857421875 28.13671875 l 1
 633.21484375 132.799804688 528.5703125 237.465820312 423.927734375 342.12890625 c 1
EndSplineSet
Validated: 1
EndChar

StartChar: q
Encoding: 113 113 15
Width: 1000
HStem: 0.140625 179.969<31.8672 148.833> 0.140625 27.9961<154.898 771.729> 310.086 179.969<340.995 458.724> 620.031 179.969<31.8672 148.833> 772.004 27.9961<155.146 771.729>
VStem: 0 179.938<32.0142 148.999 651.141 768.912> 0 27.9902<155.068 644.717> 309.891 179.938<341.196 458.945> 771.729 27.9902<28.1367 772.004>
LayerCount: 2
Fore
SplineSet
0 800 m 1x6b80
 89.96875 800 l 1x3380
 799.71875 800 l 1
 799.71875 0.140625 l 1x6b80
 89.96875 0.140625 l 1xa380
 0 0.140625 l 1x6380
 0 90.125 l 1
 0 710.015625 l 1x6580
 0 800 l 1x6b80
155.146484375 772.00390625 m 1x6d80
 170.497070312 755.868164062 179.926757812 734.022460938 179.9375 710.015625 c 0x6d80
 179.9375 660.352539062 139.624023438 620.03125 89.96875 620.03125 c 0
 65.9404296875 620.110351562 44.08984375 629.62890625 27.990234375 645.072265625 c 1
 27.990234375 645.072265625 28.0185546875 155.065429688 27.990234375 155.068359375 c 1
 44.08984375 170.51171875 65.9404296875 180.030273438 89.96875 180.109375 c 0xb380
 139.624023438 180.109375 179.9375 139.788085938 179.9375 90.125 c 0
 179.857421875 66.0927734375 170.33984375 44.23828125 154.8984375 28.13671875 c 1
 771.728515625 28.13671875 l 1
 771.728515625 772.00390625 l 1
 155.146484375 772.00390625 l 1x6d80
399.859375 490.0546875 m 0
 449.514648438 490.0546875 489.828125 449.733398438 489.828125 400.0703125 c 0
 489.828125 350.407226562 449.514648438 310.0859375 399.859375 310.0859375 c 0
 350.204101562 310.0859375 309.890625 350.407226562 309.890625 400.0703125 c 0
 309.890625 449.733398438 350.204101562 490.0546875 399.859375 490.0546875 c 0
EndSplineSet
Validated: 33
EndChar

StartChar: Q
Encoding: 81 81 16
Width: 1000
HStem: 0.140625 179.969<31.8672 148.833> 0.140625 27.9961<154.898 771.729> 310.086 179.969<340.995 458.724> 620.031 179.969<31.8672 148.833> 772.004 27.9961<155.146 771.729>
VStem: 0 179.938<32.0142 148.999 651.141 768.912> 0 27.9902<155.068 644.717> 309.891 179.938<341.196 458.945> 771.729 27.9902<28.1367 772.004>
LayerCount: 2
Fore
SplineSet
0 800 m 1x6b80
 89.96875 800 l 1x3380
 799.71875 800 l 1
 799.71875 0.140625 l 1x6b80
 89.96875 0.140625 l 1xa380
 0 0.140625 l 1x6380
 0 90.125 l 1
 0 710.015625 l 1x6580
 0 800 l 1x6b80
155.146484375 772.00390625 m 1x6d80
 170.497070312 755.868164062 179.926757812 734.022460938 179.9375 710.015625 c 0x6d80
 179.9375 660.352539062 139.624023438 620.03125 89.96875 620.03125 c 0
 65.9404296875 620.110351562 44.08984375 629.62890625 27.990234375 645.072265625 c 1
 27.990234375 645.072265625 28.0185546875 155.065429688 27.990234375 155.068359375 c 1
 44.08984375 170.51171875 65.9404296875 180.030273438 89.96875 180.109375 c 0xb380
 139.624023438 180.109375 179.9375 139.788085938 179.9375 90.125 c 0
 179.857421875 66.0927734375 170.33984375 44.23828125 154.8984375 28.13671875 c 1
 771.728515625 28.13671875 l 1
 771.728515625 772.00390625 l 1
 155.146484375 772.00390625 l 1x6d80
399.859375 490.0546875 m 0
 449.514648438 490.0546875 489.828125 449.733398438 489.828125 400.0703125 c 0
 489.828125 350.407226562 449.514648438 310.0859375 399.859375 310.0859375 c 0
 350.204101562 310.0859375 309.890625 350.407226562 309.890625 400.0703125 c 0
 309.890625 449.733398438 350.204101562 490.0546875 399.859375 490.0546875 c 0
EndSplineSet
Validated: 33
EndChar

StartChar: c
Encoding: 99 99 17
Width: 1000
HStem: 0.140625 27.9961<61.8555 771.729> 772.004 27.9961<27.9902 737.816>
VStem: 0 27.9902<62.1387 772.004> 771.729 27.9902<28.1367 738.059>
LayerCount: 2
Fore
SplineSet
0 800 m 1
 765.80859375 800 l 1
 799.71875 800 l 1
 799.71875 766.052734375 l 1
 799.71875 0.140625 l 1
 26.876953125 0.140625 l 2
 22.322265625 -0.08984375 17.625 0.0234375 12.92578125 0.140625 c 2
 0 0.140625 l 1
 0 800 l 1
27.990234375 772.00390625 m 1
 27.990234375 62.138671875 l 1
 146.274414062 180.4453125 264.557617188 298.75390625 382.841796875 417.060546875 c 1
 382.919921875 416.982421875 l 1
 382.908203125 416.994140625 382.900390625 417.009765625 382.888671875 417.021484375 c 0
 501.197265625 535.349609375 619.5078125 653.676757812 737.81640625 772.00390625 c 1
 27.990234375 772.00390625 l 1
771.728515625 738.05859375 m 1
 653.423828125 619.733398438 535.119140625 501.407226562 416.814453125 383.08203125 c 1
 416.775390625 383.12109375 l 1
 298.467773438 264.79296875 180.162109375 146.46484375 61.85546875 28.13671875 c 1
 771.728515625 28.13671875 l 1
 771.728515625 738.05859375 l 1
EndSplineSet
Validated: 1
EndChar

StartChar: w
Encoding: 119 119 18
Width: 1000
HStem: 0.140625 179.969<650.886 768.638> 0.140625 27.9961<28.4373 644.818> 772.004 27.9961<27.9902 771.729>
VStem: 0 27.9902<28.1367 772.004> 619.781 179.938<32.0142 148.999> 771.729 27.9902<155.314 772.004>
LayerCount: 2
Fore
SplineSet
0 800 m 1x74
 799.71875 800 l 1x74
 799.71875 90.125 l 1x78
 799.71875 0.140625 l 1x74
 709.75 0.140625 l 1xb4
 0 0.140625 l 1
 0 800 l 1x74
27.990234375 772.00390625 m 1
 27.990234375 28.13671875 l 1
 27.990234375 28.13671875 644.821289062 28.1650390625 644.818359375 28.13671875 c 1x74
 629.376953125 44.23828125 619.861328125 66.0927734375 619.78125 90.125 c 0
 619.78125 139.788085938 660.094726562 180.109375 709.75 180.109375 c 0xb8
 733.752929688 180.098632812 755.595703125 170.66796875 771.728515625 155.314453125 c 1
 771.728515625 772.00390625 l 1
 27.990234375 772.00390625 l 1
EndSplineSet
Validated: 33
EndChar

StartChar: W
Encoding: 87 87 19
Width: 1000
HStem: 0.140625 179.969<650.886 768.638> 0.140625 27.9961<28.4373 644.818> 772.004 27.9961<27.9902 771.729>
VStem: 0 27.9902<28.1367 772.004> 619.781 179.938<32.0142 148.999> 771.729 27.9902<155.314 772.004>
LayerCount: 2
Fore
SplineSet
0 800 m 1x74
 799.71875 800 l 1x74
 799.71875 90.125 l 1x78
 799.71875 0.140625 l 1x74
 709.75 0.140625 l 1xb4
 0 0.140625 l 1
 0 800 l 1x74
27.990234375 772.00390625 m 1
 27.990234375 28.13671875 l 1
 27.990234375 28.13671875 644.821289062 28.1650390625 644.818359375 28.13671875 c 1x74
 629.376953125 44.23828125 619.861328125 66.0927734375 619.78125 90.125 c 0
 619.78125 139.788085938 660.094726562 180.109375 709.75 180.109375 c 0xb8
 733.752929688 180.098632812 755.595703125 170.66796875 771.728515625 155.314453125 c 1
 771.728515625 772.00390625 l 1
 27.990234375 772.00390625 l 1
EndSplineSet
Validated: 33
EndChar

StartChar: v
Encoding: 118 118 20
Width: 1000
HStem: 0.140625 27.9961<27.9902 771.729> 620.031 179.969<31.8672 148.833> 772.004 27.9961<155.146 771.729>
VStem: 0 179.938<651.141 768.912> 0 27.9902<28.1367 645.072> 771.729 27.9902<28.1367 772.004>
LayerCount: 2
Fore
SplineSet
0 800 m 1xac
 89.96875 800 l 1xcc
 799.71875 800 l 1
 799.71875 0.140625 l 1
 0 0.140625 l 1xac
 0 710.015625 l 1xb4
 0 800 l 1xac
155.146484375 772.00390625 m 1xac
 170.497070312 755.868164062 179.926757812 734.022460938 179.9375 710.015625 c 0
 179.9375 660.352539062 139.624023438 620.03125 89.96875 620.03125 c 0xd4
 65.9404296875 620.110351562 44.08984375 629.62890625 27.990234375 645.072265625 c 1
 27.990234375 28.13671875 l 1
 771.728515625 28.13671875 l 1
 771.728515625 772.00390625 l 1
 155.146484375 772.00390625 l 1xac
EndSplineSet
Validated: 1
EndChar

StartChar: V
Encoding: 86 86 21
Width: 1000
HStem: 0.140625 27.9961<27.9902 771.729> 620.031 179.969<31.8672 148.833> 772.004 27.9961<155.146 771.729>
VStem: 0 179.938<651.141 768.912> 0 27.9902<28.1367 645.072> 771.729 27.9902<28.1367 772.004>
LayerCount: 2
Fore
SplineSet
0 800 m 1xac
 89.96875 800 l 1xcc
 799.71875 800 l 1
 799.71875 0.140625 l 1
 0 0.140625 l 1xac
 0 710.015625 l 1xb4
 0 800 l 1xac
155.146484375 772.00390625 m 1xac
 170.497070312 755.868164062 179.926757812 734.022460938 179.9375 710.015625 c 0
 179.9375 660.352539062 139.624023438 620.03125 89.96875 620.03125 c 0xd4
 65.9404296875 620.110351562 44.08984375 629.62890625 27.990234375 645.072265625 c 1
 27.990234375 28.13671875 l 1
 771.728515625 28.13671875 l 1
 771.728515625 772.00390625 l 1
 155.146484375 772.00390625 l 1xac
EndSplineSet
Validated: 1
EndChar

StartChar: u
Encoding: 117 117 22
Width: 1000
HStem: 0.140625 179.969<31.8672 148.833> 0.140625 27.9961<154.898 771.729> 772.004 27.9961<27.9902 771.729>
VStem: 0 179.938<32.0142 148.999> 0 27.9902<155.068 771.557> 771.729 27.9902<28.1367 772.004>
LayerCount: 2
Fore
SplineSet
0 800 m 1x6c
 799.71875 800 l 1
 799.71875 0.140625 l 1x6c
 89.96875 0.140625 l 1xac
 0 0.140625 l 1x6c
 0 90.125 l 1x74
 0 800 l 1x6c
27.990234375 772.00390625 m 1
 27.990234375 772.00390625 28.0185546875 155.065429688 27.990234375 155.068359375 c 1x6c
 44.08984375 170.51171875 65.9404296875 180.030273438 89.96875 180.109375 c 0
 139.624023438 180.109375 179.9375 139.788085938 179.9375 90.125 c 0xb4
 179.857421875 66.0927734375 170.33984375 44.23828125 154.8984375 28.13671875 c 1
 771.728515625 28.13671875 l 1
 771.728515625 772.00390625 l 1
 27.990234375 772.00390625 l 1
EndSplineSet
Validated: 33
EndChar

StartChar: U
Encoding: 85 85 23
Width: 1000
HStem: 0.140625 179.969<31.8672 148.833> 0.140625 27.9961<154.898 771.729> 772.004 27.9961<27.9902 771.729>
VStem: 0 179.938<32.0142 148.999> 0 27.9902<155.068 771.557> 771.729 27.9902<28.1367 772.004>
LayerCount: 2
Fore
SplineSet
0 800 m 1x6c
 799.71875 800 l 1
 799.71875 0.140625 l 1x6c
 89.96875 0.140625 l 1xac
 0 0.140625 l 1x6c
 0 90.125 l 1x74
 0 800 l 1x6c
27.990234375 772.00390625 m 1
 27.990234375 772.00390625 28.0185546875 155.065429688 27.990234375 155.068359375 c 1x6c
 44.08984375 170.51171875 65.9404296875 180.030273438 89.96875 180.109375 c 0
 139.624023438 180.109375 179.9375 139.788085938 179.9375 90.125 c 0xb4
 179.857421875 66.0927734375 170.33984375 44.23828125 154.8984375 28.13671875 c 1
 771.728515625 28.13671875 l 1
 771.728515625 772.00390625 l 1
 27.990234375 772.00390625 l 1
EndSplineSet
Validated: 33
EndChar

StartChar: T
Encoding: 84 84 24
Width: 1000
HStem: 0.140625 27.9961<28.123 737.857> 772.004 27.9961<62.0664 771.861>
VStem: 0.132812 27.9902<28.1367 738.082> 771.861 27.9902<62.0039 772.004>
LayerCount: 2
Fore
SplineSet
0.1328125 800 m 1
 34.07421875 800 l 1
 799.8515625 800 l 1
 799.8515625 27.0234375 l 2
 800.08203125 22.4677734375 799.96875 17.7685546875 799.8515625 13.068359375 c 2
 799.8515625 0.140625 l 1
 765.84765625 0.140625 l 1
 0.1328125 0.140625 l 1
 0.1328125 773.099609375 l 2
 -0.0966796875 777.65625 0.0166015625 782.353515625 0.1328125 787.052734375 c 2
 0.1328125 800 l 1
62.06640625 772.00390625 m 1
 180.360351562 653.689453125 298.653320312 535.375 416.947265625 417.060546875 c 1
 416.947265625 417.060546875 416.938476562 417.0546875 416.939453125 417.052734375 c 0
 417.09375 416.831054688 417.243164062 416.608398438 417.390625 416.380859375 c 0
 417.586914062 416.240234375 417.778320312 416.09765625 417.970703125 415.951171875 c 0
 535.934570312 297.96875 653.897460938 179.986328125 771.861328125 62.00390625 c 1
 771.861328125 772.00390625 l 1
 62.06640625 772.00390625 l 1
28.123046875 738.08203125 m 1
 28.123046875 28.13671875 l 1
 737.857421875 28.13671875 l 1
 619.56640625 146.451171875 501.2734375 264.767578125 382.982421875 383.08203125 c 0
 383.006835938 383.106445312 383.036132812 383.127929688 383.060546875 383.15234375 c 1
 383.059570312 383.153320312 383.057617188 383.155273438 383.056640625 383.15625 c 0
 383.055664062 383.157226562 383.053710938 383.159179688 383.052734375 383.16015625 c 1
 383.041015625 383.1484375 383.033203125 383.1328125 383.021484375 383.12109375 c 1
 28.123046875 738.08203125 l 1
EndSplineSet
Validated: 5
EndChar

StartChar: t
Encoding: 116 116 25
Width: 1000
HStem: 0.140625 27.9961<28.123 737.857> 772.004 27.9961<62.0664 771.861>
VStem: 0.132812 27.9902<28.1367 738.082> 771.861 27.9902<62.0039 772.004>
LayerCount: 2
Fore
SplineSet
0.1328125 800 m 1
 34.07421875 800 l 1
 799.8515625 800 l 1
 799.8515625 27.0234375 l 2
 800.08203125 22.4677734375 799.96875 17.7685546875 799.8515625 13.068359375 c 2
 799.8515625 0.140625 l 1
 765.84765625 0.140625 l 1
 0.1328125 0.140625 l 1
 0.1328125 773.099609375 l 2
 -0.0966796875 777.65625 0.0166015625 782.353515625 0.1328125 787.052734375 c 2
 0.1328125 800 l 1
62.06640625 772.00390625 m 1
 180.360351562 653.689453125 298.653320312 535.375 416.947265625 417.060546875 c 1
 416.947265625 417.060546875 416.938476562 417.0546875 416.939453125 417.052734375 c 0
 417.09375 416.831054688 417.243164062 416.608398438 417.390625 416.380859375 c 0
 417.586914062 416.240234375 417.778320312 416.09765625 417.970703125 415.951171875 c 0
 535.934570312 297.96875 653.897460938 179.986328125 771.861328125 62.00390625 c 1
 771.861328125 772.00390625 l 1
 62.06640625 772.00390625 l 1
28.123046875 738.08203125 m 1
 28.123046875 28.13671875 l 1
 737.857421875 28.13671875 l 1
 619.56640625 146.451171875 501.2734375 264.767578125 382.982421875 383.08203125 c 0
 383.006835938 383.106445312 383.036132812 383.127929688 383.060546875 383.15234375 c 1
 383.059570312 383.153320312 383.057617188 383.155273438 383.056640625 383.15625 c 0
 383.055664062 383.157226562 383.053710938 383.159179688 383.052734375 383.16015625 c 1
 383.041015625 383.1484375 383.033203125 383.1328125 383.021484375 383.12109375 c 1
 28.123046875 738.08203125 l 1
EndSplineSet
Validated: 5
EndChar

StartChar: s
Encoding: 115 115 26
Width: 1000
HStem: 0.140625 179.969<31.8672 148.833> 0.140625 27.9961<154.898 771.729> 620.031 179.969<650.886 767.852> 772.004 27.9961<27.9902 644.816>
VStem: 0 179.938<32.0142 148.999> 0 27.9902<155.068 771.557> 619.781 179.938<651.141 768.126> 771.729 27.9902<28.5839 645.072>
LayerCount: 2
Fore
SplineSet
0 800 m 1x54
 709.75 800 l 1x24
 799.71875 800 l 1x15
 799.71875 710.015625 l 1x12
 799.71875 0.140625 l 1x51
 89.96875 0.140625 l 1x81
 0 0.140625 l 1x45
 0 90.125 l 1x48
 0 800 l 1x54
27.990234375 772.00390625 m 1x16
 27.990234375 772.00390625 28.0185546875 155.065429688 27.990234375 155.068359375 c 1
 44.08984375 170.51171875 65.9404296875 180.030273438 89.96875 180.109375 c 0x96
 139.624023438 180.109375 179.9375 139.788085938 179.9375 90.125 c 0
 179.857421875 66.0927734375 170.33984375 44.23828125 154.8984375 28.13671875 c 1
 771.728515625 28.13671875 l 1
 771.728515625 28.13671875 771.700195312 645.075195312 771.728515625 645.072265625 c 1
 755.62890625 629.62890625 733.778320312 620.110351562 709.75 620.03125 c 0x69
 660.094726562 620.03125 619.78125 660.352539062 619.78125 710.015625 c 0
 619.860351562 734.047851562 629.375976562 755.901367188 644.81640625 772.00390625 c 1
 27.990234375 772.00390625 l 1x16
EndSplineSet
Validated: 33
EndChar

StartChar: S
Encoding: 83 83 27
Width: 1000
HStem: 0.140625 179.969<31.8672 148.833> 0.140625 27.9961<154.898 771.729> 620.031 179.969<650.886 767.852> 772.004 27.9961<27.9902 644.816>
VStem: 0 179.938<32.0142 148.999> 0 27.9902<155.068 771.557> 619.781 179.938<651.141 768.126> 771.729 27.9902<28.5839 645.072>
LayerCount: 2
Fore
SplineSet
0 800 m 1x54
 709.75 800 l 1x24
 799.71875 800 l 1x15
 799.71875 710.015625 l 1x12
 799.71875 0.140625 l 1x51
 89.96875 0.140625 l 1x81
 0 0.140625 l 1x45
 0 90.125 l 1x48
 0 800 l 1x54
27.990234375 772.00390625 m 1x16
 27.990234375 772.00390625 28.0185546875 155.065429688 27.990234375 155.068359375 c 1
 44.08984375 170.51171875 65.9404296875 180.030273438 89.96875 180.109375 c 0x96
 139.624023438 180.109375 179.9375 139.788085938 179.9375 90.125 c 0
 179.857421875 66.0927734375 170.33984375 44.23828125 154.8984375 28.13671875 c 1
 771.728515625 28.13671875 l 1
 771.728515625 28.13671875 771.700195312 645.075195312 771.728515625 645.072265625 c 1
 755.62890625 629.62890625 733.778320312 620.110351562 709.75 620.03125 c 0x69
 660.094726562 620.03125 619.78125 660.352539062 619.78125 710.015625 c 0
 619.860351562 734.047851562 629.375976562 755.901367188 644.81640625 772.00390625 c 1
 27.990234375 772.00390625 l 1x16
EndSplineSet
Validated: 33
EndChar

StartChar: R
Encoding: 82 82 28
Width: 1000
HStem: 0.140625 27.9961<61.8555 771.729> 376.098 47.9922<27.9902 341.887 387.959 411.696 457.76 771.729> 772.004 27.9961<27.9902 737.816>
VStem: 0 27.9902<62.1387 376.098 424.09 772.004> 771.729 27.9902<28.1367 376.043 424.035 738.059>
LayerCount: 2
Fore
SplineSet
0 800 m 1
 765.80859375 800 l 1
 799.71875 800 l 1
 799.71875 766.052734375 l 1
 799.71875 424.03515625 l 1
 799.71875 376.04296875 l 1
 799.71875 0.140625 l 1
 26.876953125 0.140625 l 2
 22.322265625 -0.08984375 17.625 0.0234375 12.92578125 0.140625 c 2
 0 0.140625 l 1
 0 34.142578125 l 1
 0 376.09765625 l 1
 0 424.08984375 l 1
 0 800 l 1
27.990234375 772.00390625 m 1
 27.990234375 424.08984375 l 1
 389.955078125 424.08984375 l 1
 505.908203125 540.061523438 621.86328125 656.032226562 737.81640625 772.00390625 c 1
 27.990234375 772.00390625 l 1
771.728515625 738.05859375 m 1
 667.072265625 633.383789062 562.416015625 528.709960938 457.759765625 424.03515625 c 1
 771.728515625 424.03515625 l 1
 771.728515625 738.05859375 l 1
27.990234375 376.09765625 m 1
 27.990234375 62.138671875 l 1
 132.622070312 166.791015625 237.254882812 271.4453125 341.88671875 376.09765625 c 1
 27.990234375 376.09765625 l 1
409.69921875 376.04296875 m 1
 293.750976562 260.07421875 177.803710938 144.10546875 61.85546875 28.13671875 c 1
 771.728515625 28.13671875 l 1
 771.728515625 376.04296875 l 1
 409.69921875 376.04296875 l 1
EndSplineSet
Validated: 5
EndChar

StartChar: r
Encoding: 114 114 29
Width: 1000
HStem: 0.140625 27.9961<61.8555 771.729> 376.098 47.9922<27.9902 341.887 387.959 411.696 457.76 771.729> 772.004 27.9961<27.9902 737.816>
VStem: 0 27.9902<62.1387 376.098 424.09 772.004> 771.729 27.9902<28.1367 376.043 424.035 738.059>
LayerCount: 2
Fore
SplineSet
0 800 m 1
 765.80859375 800 l 1
 799.71875 800 l 1
 799.71875 766.052734375 l 1
 799.71875 424.03515625 l 1
 799.71875 376.04296875 l 1
 799.71875 0.140625 l 1
 26.876953125 0.140625 l 2
 22.322265625 -0.08984375 17.625 0.0234375 12.92578125 0.140625 c 2
 0 0.140625 l 1
 0 34.142578125 l 1
 0 376.09765625 l 1
 0 424.08984375 l 1
 0 800 l 1
27.990234375 772.00390625 m 1
 27.990234375 424.08984375 l 1
 389.955078125 424.08984375 l 1
 505.908203125 540.061523438 621.86328125 656.032226562 737.81640625 772.00390625 c 1
 27.990234375 772.00390625 l 1
771.728515625 738.05859375 m 1
 667.072265625 633.383789062 562.416015625 528.709960938 457.759765625 424.03515625 c 1
 771.728515625 424.03515625 l 1
 771.728515625 738.05859375 l 1
27.990234375 376.09765625 m 1
 27.990234375 62.138671875 l 1
 132.622070312 166.791015625 237.254882812 271.4453125 341.88671875 376.09765625 c 1
 27.990234375 376.09765625 l 1
409.69921875 376.04296875 m 1
 293.750976562 260.07421875 177.803710938 144.10546875 61.85546875 28.13671875 c 1
 771.728515625 28.13671875 l 1
 771.728515625 376.04296875 l 1
 409.69921875 376.04296875 l 1
EndSplineSet
Validated: 5
EndChar

StartChar: p
Encoding: 112 112 30
Width: 1000
HStem: 0.140625 27.9961<61.8555 375.812 423.795 771.729> 772.004 27.9961<27.9902 375.867 423.85 737.816>
VStem: 0 27.9902<62.1387 772.004> 375.812 47.9824<28.1367 342.15 388.337 411.814 457.988 772.004> 771.729 27.9902<28.1367 738.059>
LayerCount: 2
Fore
SplineSet
0 800 m 1
 375.8671875 800 l 1
 423.849609375 800 l 1
 765.80859375 800 l 1
 799.71875 800 l 1
 799.71875 766.052734375 l 1
 799.71875 0.140625 l 1
 423.794921875 0.140625 l 1
 375.8125 0.140625 l 1
 26.876953125 0.140625 l 2
 22.322265625 -0.08984375 17.625 0.0234375 12.92578125 0.140625 c 2
 0 0.140625 l 1
 0 34.142578125 l 1
 0 800 l 1
27.990234375 772.00390625 m 1
 27.990234375 62.138671875 l 1
 143.94921875 178.120117188 259.908203125 294.102539062 375.8671875 410.083984375 c 1
 375.8671875 772.00390625 l 1
 27.990234375 772.00390625 l 1
423.849609375 772.00390625 m 1
 423.849609375 457.98828125 l 1
 528.504882812 562.66015625 633.161132812 667.33203125 737.81640625 772.00390625 c 1
 423.849609375 772.00390625 l 1
771.728515625 738.05859375 m 1
 655.750976562 622.060546875 539.772460938 506.0625 423.794921875 390.064453125 c 1
 423.794921875 28.13671875 l 1
 771.728515625 28.13671875 l 1
 771.728515625 738.05859375 l 1
375.8125 342.150390625 m 1
 271.16015625 237.479492188 166.5078125 132.807617188 61.85546875 28.13671875 c 1
 375.8125 28.13671875 l 1
 375.8125 342.150390625 l 1
EndSplineSet
Validated: 1
EndChar

StartChar: P
Encoding: 80 80 31
Width: 1000
HStem: 0.140625 27.9961<61.8555 375.812 423.795 771.729> 772.004 27.9961<27.9902 375.867 423.85 737.816>
VStem: 0 27.9902<62.1387 772.004> 375.812 47.9824<28.1367 342.15 388.337 411.814 457.988 772.004> 771.729 27.9902<28.1367 738.059>
LayerCount: 2
Fore
SplineSet
0 800 m 1
 375.8671875 800 l 1
 423.849609375 800 l 1
 765.80859375 800 l 1
 799.71875 800 l 1
 799.71875 766.052734375 l 1
 799.71875 0.140625 l 1
 423.794921875 0.140625 l 1
 375.8125 0.140625 l 1
 26.876953125 0.140625 l 2
 22.322265625 -0.08984375 17.625 0.0234375 12.92578125 0.140625 c 2
 0 0.140625 l 1
 0 34.142578125 l 1
 0 800 l 1
27.990234375 772.00390625 m 1
 27.990234375 62.138671875 l 1
 143.94921875 178.120117188 259.908203125 294.102539062 375.8671875 410.083984375 c 1
 375.8671875 772.00390625 l 1
 27.990234375 772.00390625 l 1
423.849609375 772.00390625 m 1
 423.849609375 457.98828125 l 1
 528.504882812 562.66015625 633.161132812 667.33203125 737.81640625 772.00390625 c 1
 423.849609375 772.00390625 l 1
771.728515625 738.05859375 m 1
 655.750976562 622.060546875 539.772460938 506.0625 423.794921875 390.064453125 c 1
 423.794921875 28.13671875 l 1
 771.728515625 28.13671875 l 1
 771.728515625 738.05859375 l 1
375.8125 342.150390625 m 1
 271.16015625 237.479492188 166.5078125 132.807617188 61.85546875 28.13671875 c 1
 375.8125 28.13671875 l 1
 375.8125 342.150390625 l 1
EndSplineSet
Validated: 1
EndChar

StartChar: o
Encoding: 111 111 32
Width: 1000
HStem: 0.140625 27.9961<61.9883 737.857> 772.004 27.9961<62.0645 737.949>
VStem: 0.132812 27.9902<62.1387 738.082> 771.861 27.9902<62.0039 738.059>
LayerCount: 2
Fore
SplineSet
0.1328125 800 m 1
 34.07421875 800 l 1
 765.94140625 800 l 1
 799.8515625 800 l 1
 799.8515625 766.052734375 l 1
 799.8515625 27.0234375 l 2
 800.08203125 22.4677734375 799.96875 17.7685546875 799.8515625 13.068359375 c 2
 799.8515625 0.140625 l 1
 765.84765625 0.140625 l 1
 27.009765625 0.140625 l 2
 22.455078125 -0.08984375 17.7578125 0.0234375 13.05859375 0.140625 c 2
 0.1328125 0.140625 l 1
 0.1328125 34.142578125 l 1
 0.1328125 773.099609375 l 2
 -0.0966796875 777.65625 0.0166015625 782.353515625 0.1328125 787.052734375 c 2
 0.1328125 800 l 1
62.064453125 772.00390625 m 1
 174.7109375 659.337890625 287.357421875 546.671875 400.00390625 434.005859375 c 1
 512.65234375 546.671875 625.30078125 659.337890625 737.94921875 772.00390625 c 1
 62.064453125 772.00390625 l 1
28.123046875 738.08203125 m 1
 28.123046875 62.138671875 l 1
 140.758789062 174.795898438 253.395507812 287.456054688 366.03125 400.11328125 c 1
 28.123046875 738.08203125 l 1
771.861328125 738.05859375 m 1
 659.205078125 625.381835938 546.546875 512.706054688 433.890625 400.029296875 c 1
 546.547851562 287.354492188 659.204101562 174.678710938 771.861328125 62.00390625 c 1
 771.861328125 738.05859375 l 1
399.92578125 366.134765625 m 1
 287.279296875 253.46875 174.633789062 140.802734375 61.98828125 28.13671875 c 1
 737.857421875 28.13671875 l 1
 625.213867188 140.802734375 512.569335938 253.469726562 399.92578125 366.134765625 c 1
EndSplineSet
Validated: 5
EndChar

StartChar: O
Encoding: 79 79 33
Width: 1000
HStem: 0.140625 27.9961<61.9883 737.857> 772.004 27.9961<62.0645 737.949>
VStem: 0.132812 27.9902<62.1387 738.082> 771.861 27.9902<62.0039 738.059>
LayerCount: 2
Fore
SplineSet
0.1328125 800 m 1
 34.07421875 800 l 1
 765.94140625 800 l 1
 799.8515625 800 l 1
 799.8515625 766.052734375 l 1
 799.8515625 27.0234375 l 2
 800.08203125 22.4677734375 799.96875 17.7685546875 799.8515625 13.068359375 c 2
 799.8515625 0.140625 l 1
 765.84765625 0.140625 l 1
 27.009765625 0.140625 l 2
 22.455078125 -0.08984375 17.7578125 0.0234375 13.05859375 0.140625 c 2
 0.1328125 0.140625 l 1
 0.1328125 34.142578125 l 1
 0.1328125 773.099609375 l 2
 -0.0966796875 777.65625 0.0166015625 782.353515625 0.1328125 787.052734375 c 2
 0.1328125 800 l 1
62.064453125 772.00390625 m 1
 174.7109375 659.337890625 287.357421875 546.671875 400.00390625 434.005859375 c 1
 512.65234375 546.671875 625.30078125 659.337890625 737.94921875 772.00390625 c 1
 62.064453125 772.00390625 l 1
28.123046875 738.08203125 m 1
 28.123046875 62.138671875 l 1
 140.758789062 174.795898438 253.395507812 287.456054688 366.03125 400.11328125 c 1
 28.123046875 738.08203125 l 1
771.861328125 738.05859375 m 1
 659.205078125 625.381835938 546.546875 512.706054688 433.890625 400.029296875 c 1
 546.547851562 287.354492188 659.204101562 174.678710938 771.861328125 62.00390625 c 1
 771.861328125 738.05859375 l 1
399.92578125 366.134765625 m 1
 287.279296875 253.46875 174.633789062 140.802734375 61.98828125 28.13671875 c 1
 737.857421875 28.13671875 l 1
 625.213867188 140.802734375 512.569335938 253.469726562 399.92578125 366.134765625 c 1
EndSplineSet
Validated: 5
EndChar

StartChar: n
Encoding: 110 110 34
Width: 1000
HStem: 0.140625 179.969<650.886 768.638> 0.140625 27.9961<28.4373 644.818> 620.031 179.969<650.886 767.852> 772.004 27.9961<27.9902 644.816>
VStem: 0 27.9902<28.1367 772.004> 619.781 179.938<32.0142 148.999 651.141 768.126> 771.729 27.9902<155.669 645.072>
LayerCount: 2
Fore
SplineSet
0 800 m 1x5a
 709.75 800 l 1x2a
 799.71875 800 l 1x1a
 799.71875 710.015625 l 1
 799.71875 90.125 l 1x1c
 799.71875 0.140625 l 1x5a
 709.75 0.140625 l 1x8a
 0 0.140625 l 1
 0 800 l 1x5a
27.990234375 772.00390625 m 1x1c
 27.990234375 28.13671875 l 1
 27.990234375 28.13671875 644.821289062 28.1650390625 644.818359375 28.13671875 c 1
 629.376953125 44.23828125 619.861328125 66.0927734375 619.78125 90.125 c 0x5c
 619.78125 139.788085938 660.094726562 180.109375 709.75 180.109375 c 0
 733.752929688 180.098632812 755.595703125 170.66796875 771.728515625 155.314453125 c 1
 771.728515625 155.314453125 771.700195312 645.075195312 771.728515625 645.072265625 c 1
 755.62890625 629.62890625 733.778320312 620.110351562 709.75 620.03125 c 0xaa
 660.094726562 620.03125 619.78125 660.352539062 619.78125 710.015625 c 0
 619.860351562 734.047851562 629.375976562 755.901367188 644.81640625 772.00390625 c 1
 27.990234375 772.00390625 l 1x1c
EndSplineSet
Validated: 33
EndChar

StartChar: N
Encoding: 78 78 35
Width: 1000
HStem: 0.140625 179.969<650.886 768.638> 0.140625 27.9961<28.4373 644.818> 620.031 179.969<650.886 767.852> 772.004 27.9961<27.9902 644.816>
VStem: 0 27.9902<28.1367 772.004> 619.781 179.938<32.0142 148.999 651.141 768.126> 771.729 27.9902<155.669 645.072>
LayerCount: 2
Fore
SplineSet
0 800 m 1x5a
 709.75 800 l 1x2a
 799.71875 800 l 1x1a
 799.71875 710.015625 l 1
 799.71875 90.125 l 1x1c
 799.71875 0.140625 l 1x5a
 709.75 0.140625 l 1x8a
 0 0.140625 l 1
 0 800 l 1x5a
27.990234375 772.00390625 m 1x1c
 27.990234375 28.13671875 l 1
 27.990234375 28.13671875 644.821289062 28.1650390625 644.818359375 28.13671875 c 1
 629.376953125 44.23828125 619.861328125 66.0927734375 619.78125 90.125 c 0x5c
 619.78125 139.788085938 660.094726562 180.109375 709.75 180.109375 c 0
 733.752929688 180.098632812 755.595703125 170.66796875 771.728515625 155.314453125 c 1
 771.728515625 155.314453125 771.700195312 645.075195312 771.728515625 645.072265625 c 1
 755.62890625 629.62890625 733.778320312 620.110351562 709.75 620.03125 c 0xaa
 660.094726562 620.03125 619.78125 660.352539062 619.78125 710.015625 c 0
 619.860351562 734.047851562 629.375976562 755.901367188 644.81640625 772.00390625 c 1
 27.990234375 772.00390625 l 1x1c
EndSplineSet
Validated: 33
EndChar

StartChar: m
Encoding: 109 109 36
Width: 1000
HStem: 0.140625 179.969<31.8672 148.833> 0.140625 27.9961<154.898 771.729> 620.031 179.969<31.8672 148.833> 772.004 27.9961<155.146 771.729>
VStem: 0 179.938<32.0142 148.999 651.141 768.912> 0 27.9902<155.068 644.717> 771.729 27.9902<28.1367 772.004>
LayerCount: 2
Fore
SplineSet
0 800 m 1x56
 89.96875 800 l 1x26
 799.71875 800 l 1
 799.71875 0.140625 l 1x56
 89.96875 0.140625 l 1x86
 0 0.140625 l 1x46
 0 90.125 l 1
 0 710.015625 l 1x4a
 0 800 l 1x56
155.146484375 772.00390625 m 1x5a
 170.497070312 755.868164062 179.926757812 734.022460938 179.9375 710.015625 c 0x5a
 179.9375 660.352539062 139.624023438 620.03125 89.96875 620.03125 c 0
 65.9404296875 620.110351562 44.08984375 629.62890625 27.990234375 645.072265625 c 1
 27.990234375 645.072265625 28.0185546875 155.065429688 27.990234375 155.068359375 c 1
 44.08984375 170.51171875 65.9404296875 180.030273438 89.96875 180.109375 c 0xa6
 139.624023438 180.109375 179.9375 139.788085938 179.9375 90.125 c 0
 179.857421875 66.0927734375 170.33984375 44.23828125 154.8984375 28.13671875 c 1
 771.728515625 28.13671875 l 1
 771.728515625 772.00390625 l 1
 155.146484375 772.00390625 l 1x5a
EndSplineSet
Validated: 33
EndChar

StartChar: M
Encoding: 77 77 37
Width: 1000
HStem: 0.140625 179.969<31.8672 148.833> 0.140625 27.9961<154.898 771.729> 620.031 179.969<31.8672 148.833> 772.004 27.9961<155.146 771.729>
VStem: 0 179.938<32.0142 148.999 651.141 768.912> 0 27.9902<155.068 644.717> 771.729 27.9902<28.1367 772.004>
LayerCount: 2
Fore
SplineSet
0 800 m 1x56
 89.96875 800 l 1x26
 799.71875 800 l 1
 799.71875 0.140625 l 1x56
 89.96875 0.140625 l 1x86
 0 0.140625 l 1x46
 0 90.125 l 1
 0 710.015625 l 1x4a
 0 800 l 1x56
155.146484375 772.00390625 m 1x5a
 170.497070312 755.868164062 179.926757812 734.022460938 179.9375 710.015625 c 0x5a
 179.9375 660.352539062 139.624023438 620.03125 89.96875 620.03125 c 0
 65.9404296875 620.110351562 44.08984375 629.62890625 27.990234375 645.072265625 c 1
 27.990234375 645.072265625 28.0185546875 155.065429688 27.990234375 155.068359375 c 1
 44.08984375 170.51171875 65.9404296875 180.030273438 89.96875 180.109375 c 0xa6
 139.624023438 180.109375 179.9375 139.788085938 179.9375 90.125 c 0
 179.857421875 66.0927734375 170.33984375 44.23828125 154.8984375 28.13671875 c 1
 771.728515625 28.13671875 l 1
 771.728515625 772.00390625 l 1
 155.146484375 772.00390625 l 1x5a
EndSplineSet
Validated: 33
EndChar

StartChar: L
Encoding: 76 76 38
Width: 1000
HStem: 0.140625 27.9961<27.9902 771.729> 376.098 47.9922<27.9902 771.729> 772.004 27.9961<27.9902 771.729>
VStem: 0 27.9902<28.1367 376.098 424.09 772.004> 771.729 27.9902<28.1367 376.043 424.035 772.004>
LayerCount: 2
Fore
SplineSet
0 800 m 1
 799.71875 800 l 1
 799.71875 424.03515625 l 1
 799.71875 376.04296875 l 1
 799.71875 0.140625 l 1
 0 0.140625 l 1
 0 376.09765625 l 1
 0 424.08984375 l 1
 0 800 l 1
27.990234375 772.00390625 m 1
 27.990234375 424.08984375 l 1
 399.828125 424.08984375 l 1
 399.828125 424.08984375 399.827148438 424.06640625 399.828125 424.06640625 c 0
 399.833007812 424.06640625 399.837890625 424.06640625 399.84375 424.06640625 c 0
 399.848632812 424.06640625 399.854492188 424.06640625 399.859375 424.06640625 c 0
 400.260742188 424.065429688 400.642578125 424.055664062 401.0390625 424.03515625 c 2
 771.728515625 424.03515625 l 1
 771.728515625 772.00390625 l 1
 27.990234375 772.00390625 l 1
27.990234375 376.09765625 m 1
 27.990234375 28.13671875 l 1
 771.728515625 28.13671875 l 1
 771.728515625 376.04296875 l 1
 399.828125 376.04296875 l 1
 399.828125 376.07421875 l 1
 399.819335938 376.075195312 399.811523438 376.077148438 399.802734375 376.078125 c 0
 399.711914062 376.083984375 399.622070312 376.090820312 399.53125 376.09765625 c 2
 27.990234375 376.09765625 l 1
EndSplineSet
Validated: 1
EndChar

StartChar: l
Encoding: 108 108 39
Width: 1000
HStem: 0.140625 27.9961<27.9902 771.729> 376.098 47.9922<27.9902 771.729> 772.004 27.9961<27.9902 771.729>
VStem: 0 27.9902<28.1367 376.098 424.09 772.004> 771.729 27.9902<28.1367 376.043 424.035 772.004>
LayerCount: 2
Fore
SplineSet
0 800 m 1
 799.71875 800 l 1
 799.71875 424.03515625 l 1
 799.71875 376.04296875 l 1
 799.71875 0.140625 l 1
 0 0.140625 l 1
 0 376.09765625 l 1
 0 424.08984375 l 1
 0 800 l 1
27.990234375 772.00390625 m 1
 27.990234375 424.08984375 l 1
 399.828125 424.08984375 l 1
 399.828125 424.08984375 399.827148438 424.06640625 399.828125 424.06640625 c 0
 399.833007812 424.06640625 399.837890625 424.06640625 399.84375 424.06640625 c 0
 399.848632812 424.06640625 399.854492188 424.06640625 399.859375 424.06640625 c 0
 400.260742188 424.065429688 400.642578125 424.055664062 401.0390625 424.03515625 c 2
 771.728515625 424.03515625 l 1
 771.728515625 772.00390625 l 1
 27.990234375 772.00390625 l 1
27.990234375 376.09765625 m 1
 27.990234375 28.13671875 l 1
 771.728515625 28.13671875 l 1
 771.728515625 376.04296875 l 1
 399.828125 376.04296875 l 1
 399.828125 376.07421875 l 1
 399.819335938 376.075195312 399.811523438 376.077148438 399.802734375 376.078125 c 0
 399.711914062 376.083984375 399.622070312 376.090820312 399.53125 376.09765625 c 2
 27.990234375 376.09765625 l 1
EndSplineSet
Validated: 1
EndChar

StartChar: I
Encoding: 73 73 40
Width: 1000
HStem: 0.140625 27.9961<27.9902 375.812 423.795 771.729> 376.043 47.9922<27.9902 375.812 423.85 771.729> 772.004 27.9961<27.9902 375.867 423.85 771.729>
VStem: 0 27.9902<28.1367 376.098 424.09 772.004> 375.812 47.9824<28.1367 376.043 424.09 772.004> 771.729 27.9902<28.1367 376.043 424.035 772.004>
LayerCount: 2
Fore
SplineSet
0 800 m 1
 375.8671875 800 l 1
 423.849609375 800 l 1
 799.71875 800 l 1
 799.71875 424.03515625 l 1
 799.71875 376.04296875 l 1
 799.71875 0.140625 l 1
 423.794921875 0.140625 l 1
 375.8125 0.140625 l 1
 0 0.140625 l 1
 0 376.09765625 l 1
 0 424.08984375 l 1
 0 800 l 1
27.990234375 772.00390625 m 1
 27.990234375 424.08984375 l 1
 375.8671875 424.08984375 l 1
 375.8671875 772.00390625 l 1
 27.990234375 772.00390625 l 1
423.849609375 772.00390625 m 1
 423.849609375 424.03515625 l 1
 771.728515625 424.03515625 l 1
 771.728515625 772.00390625 l 1
 423.849609375 772.00390625 l 1
27.990234375 376.09765625 m 1
 27.990234375 28.13671875 l 1
 375.8125 28.13671875 l 1
 375.8125 376.09765625 l 1
 27.990234375 376.09765625 l 1
423.794921875 376.04296875 m 1
 423.794921875 28.13671875 l 1
 771.728515625 28.13671875 l 1
 771.728515625 376.04296875 l 1
 423.794921875 376.04296875 l 1
EndSplineSet
Validated: 1
EndChar

StartChar: i
Encoding: 105 105 41
Width: 1000
HStem: 0.140625 27.9961<27.9902 375.812 423.795 771.729> 376.043 47.9922<27.9902 375.812 423.85 771.729> 772.004 27.9961<27.9902 375.867 423.85 771.729>
VStem: 0 27.9902<28.1367 376.098 424.09 772.004> 375.812 47.9824<28.1367 376.043 424.09 772.004> 771.729 27.9902<28.1367 376.043 424.035 772.004>
LayerCount: 2
Fore
SplineSet
0 800 m 1
 375.8671875 800 l 1
 423.849609375 800 l 1
 799.71875 800 l 1
 799.71875 424.03515625 l 1
 799.71875 376.04296875 l 1
 799.71875 0.140625 l 1
 423.794921875 0.140625 l 1
 375.8125 0.140625 l 1
 0 0.140625 l 1
 0 376.09765625 l 1
 0 424.08984375 l 1
 0 800 l 1
27.990234375 772.00390625 m 1
 27.990234375 424.08984375 l 1
 375.8671875 424.08984375 l 1
 375.8671875 772.00390625 l 1
 27.990234375 772.00390625 l 1
423.849609375 772.00390625 m 1
 423.849609375 424.03515625 l 1
 771.728515625 424.03515625 l 1
 771.728515625 772.00390625 l 1
 423.849609375 772.00390625 l 1
27.990234375 376.09765625 m 1
 27.990234375 28.13671875 l 1
 375.8125 28.13671875 l 1
 375.8125 376.09765625 l 1
 27.990234375 376.09765625 l 1
423.794921875 376.04296875 m 1
 423.794921875 28.13671875 l 1
 771.728515625 28.13671875 l 1
 771.728515625 376.04296875 l 1
 423.794921875 376.04296875 l 1
EndSplineSet
Validated: 1
EndChar

StartChar: h
Encoding: 104 104 42
Width: 1000
HStem: 0.140625 179.969<650.886 768.638> 0.140625 27.9961<28.4373 644.818> 310.086 179.969<340.995 458.724> 620.031 179.969<31.8672 148.833> 772.004 27.9961<155.146 771.729>
VStem: 0 179.938<651.141 768.912> 0 27.9902<28.1367 645.072> 309.891 179.938<341.196 458.945> 619.781 179.938<32.0142 148.999> 771.729 27.9902<155.314 772.004>
LayerCount: 2
Fore
SplineSet
0 800 m 1x6b
 89.96875 800 l 1x33
 799.71875 800 l 1x2b40
 799.71875 90.125 l 1x2980
 799.71875 0.140625 l 1x6940
 709.75 0.140625 l 1xa140
 0 0.140625 l 1x6340
 0 710.015625 l 1x65
 0 800 l 1x6b
155.146484375 772.00390625 m 1xa940
 170.497070312 755.868164062 179.926757812 734.022460938 179.9375 710.015625 c 0xad40
 179.9375 660.352539062 139.624023438 620.03125 89.96875 620.03125 c 0
 65.9404296875 620.110351562 44.08984375 629.62890625 27.990234375 645.072265625 c 1
 27.990234375 28.13671875 l 1
 27.990234375 28.13671875 644.821289062 28.1650390625 644.818359375 28.13671875 c 1
 629.376953125 44.23828125 619.861328125 66.0927734375 619.78125 90.125 c 0x7380
 619.78125 139.788085938 660.094726562 180.109375 709.75 180.109375 c 0
 733.752929688 180.098632812 755.595703125 170.66796875 771.728515625 155.314453125 c 1
 771.728515625 772.00390625 l 1
 155.146484375 772.00390625 l 1xa940
399.859375 490.0546875 m 0
 449.514648438 490.0546875 489.828125 449.733398438 489.828125 400.0703125 c 0
 489.828125 350.407226562 449.514648438 310.0859375 399.859375 310.0859375 c 0
 350.204101562 310.0859375 309.890625 350.407226562 309.890625 400.0703125 c 0
 309.890625 449.733398438 350.204101562 490.0546875 399.859375 490.0546875 c 0
EndSplineSet
Validated: 33
EndChar

StartChar: H
Encoding: 72 72 43
Width: 1000
HStem: 0.140625 179.969<650.886 768.638> 0.140625 27.9961<28.4373 644.818> 310.086 179.969<340.995 458.724> 620.031 179.969<31.8672 148.833> 772.004 27.9961<155.146 771.729>
VStem: 0 179.938<651.141 768.912> 0 27.9902<28.1367 645.072> 309.891 179.938<341.196 458.945> 619.781 179.938<32.0142 148.999> 771.729 27.9902<155.314 772.004>
LayerCount: 2
Fore
SplineSet
0 800 m 1x6b
 89.96875 800 l 1x33
 799.71875 800 l 1x2b40
 799.71875 90.125 l 1x2980
 799.71875 0.140625 l 1x6940
 709.75 0.140625 l 1xa140
 0 0.140625 l 1x6340
 0 710.015625 l 1x65
 0 800 l 1x6b
155.146484375 772.00390625 m 1xa940
 170.497070312 755.868164062 179.926757812 734.022460938 179.9375 710.015625 c 0xad40
 179.9375 660.352539062 139.624023438 620.03125 89.96875 620.03125 c 0
 65.9404296875 620.110351562 44.08984375 629.62890625 27.990234375 645.072265625 c 1
 27.990234375 28.13671875 l 1
 27.990234375 28.13671875 644.821289062 28.1650390625 644.818359375 28.13671875 c 1
 629.376953125 44.23828125 619.861328125 66.0927734375 619.78125 90.125 c 0x7380
 619.78125 139.788085938 660.094726562 180.109375 709.75 180.109375 c 0
 733.752929688 180.098632812 755.595703125 170.66796875 771.728515625 155.314453125 c 1
 771.728515625 772.00390625 l 1
 155.146484375 772.00390625 l 1xa940
399.859375 490.0546875 m 0
 449.514648438 490.0546875 489.828125 449.733398438 489.828125 400.0703125 c 0
 489.828125 350.407226562 449.514648438 310.0859375 399.859375 310.0859375 c 0
 350.204101562 310.0859375 309.890625 350.407226562 309.890625 400.0703125 c 0
 309.890625 449.733398438 350.204101562 490.0546875 399.859375 490.0546875 c 0
EndSplineSet
Validated: 33
EndChar

StartChar: G
Encoding: 71 71 44
Width: 1000
HStem: 0.140625 27.9961<27.9902 375.812 423.795 771.729> 772.004 27.9961<27.9902 375.867 423.85 771.729>
VStem: 0 27.9902<28.1367 772.004> 375.812 47.9824<28.1367 772.004> 771.729 27.9902<28.1367 772.004>
LayerCount: 2
Fore
SplineSet
0 800 m 1
 375.8671875 800 l 1
 423.849609375 800 l 1
 799.71875 800 l 1
 799.71875 0.140625 l 1
 423.794921875 0.140625 l 1
 375.8125 0.140625 l 1
 0 0.140625 l 1
 0 800 l 1
27.990234375 772.00390625 m 1
 27.990234375 28.13671875 l 1
 375.8125 28.13671875 l 1
 375.8125 400.0703125 l 1
 375.8671875 400.0703125 l 1
 375.8671875 772.00390625 l 1
 27.990234375 772.00390625 l 1
423.849609375 772.00390625 m 1
 423.849609375 772.00390625 423.849609375 400.075195312 423.849609375 400.0703125 c 0
 423.834960938 399.809570312 423.817382812 399.555664062 423.794921875 399.296875 c 2
 423.794921875 28.13671875 l 1
 771.728515625 28.13671875 l 1
 771.728515625 772.00390625 l 1
 423.849609375 772.00390625 l 1
EndSplineSet
Validated: 1
EndChar

StartChar: g
Encoding: 103 103 45
Width: 1000
HStem: 0.140625 27.9961<27.9902 375.812 423.795 771.729> 772.004 27.9961<27.9902 375.867 423.85 771.729>
VStem: 0 27.9902<28.1367 772.004> 375.812 47.9824<28.1367 772.004> 771.729 27.9902<28.1367 772.004>
LayerCount: 2
Fore
SplineSet
0 800 m 1
 375.8671875 800 l 1
 423.849609375 800 l 1
 799.71875 800 l 1
 799.71875 0.140625 l 1
 423.794921875 0.140625 l 1
 375.8125 0.140625 l 1
 0 0.140625 l 1
 0 800 l 1
27.990234375 772.00390625 m 1
 27.990234375 28.13671875 l 1
 375.8125 28.13671875 l 1
 375.8125 400.0703125 l 1
 375.8671875 400.0703125 l 1
 375.8671875 772.00390625 l 1
 27.990234375 772.00390625 l 1
423.849609375 772.00390625 m 1
 423.849609375 772.00390625 423.849609375 400.075195312 423.849609375 400.0703125 c 0
 423.834960938 399.809570312 423.817382812 399.555664062 423.794921875 399.296875 c 2
 423.794921875 28.13671875 l 1
 771.728515625 28.13671875 l 1
 771.728515625 772.00390625 l 1
 423.849609375 772.00390625 l 1
EndSplineSet
Validated: 1
EndChar

StartChar: F
Encoding: 70 70 46
Width: 1000
HStem: 0.140625 179.969<31.8672 148.833 650.886 768.638> 0.140625 27.9961<155.254 644.818> 310.086 179.969<340.995 458.724> 772.004 27.9961<27.9902 771.729>
VStem: 0 179.938<32.0142 148.999> 0 27.9902<155.068 771.557> 309.891 179.938<341.196 458.945> 619.781 179.938<32.0142 148.999> 771.729 27.9902<155.314 772.004>
LayerCount: 2
Fore
SplineSet
0 800 m 1x76
 799.71875 800 l 1x7680
 799.71875 90.125 l 1x73
 799.71875 0.140625 l 1x7280
 709.75 0.140625 l 1
 89.96875 0.140625 l 1xb280
 0 0.140625 l 1x7680
 0 90.125 l 1x7a
 0 800 l 1x76
27.990234375 772.00390625 m 1
 27.990234375 772.00390625 28.0185546875 155.065429688 27.990234375 155.068359375 c 1
 44.08984375 170.51171875 65.9404296875 180.030273438 89.96875 180.109375 c 0xb680
 139.624023438 180.109375 179.9375 139.788085938 179.9375 90.125 c 0
 179.857421875 66.0927734375 170.33984375 44.23828125 154.8984375 28.13671875 c 1
 154.8984375 28.13671875 644.821289062 28.1650390625 644.818359375 28.13671875 c 1x7a
 629.376953125 44.23828125 619.861328125 66.0927734375 619.78125 90.125 c 0
 619.78125 139.788085938 660.094726562 180.109375 709.75 180.109375 c 0xbb
 733.752929688 180.098632812 755.595703125 170.66796875 771.728515625 155.314453125 c 1
 771.728515625 772.00390625 l 1
 27.990234375 772.00390625 l 1
399.859375 490.0546875 m 0
 449.514648438 490.0546875 489.828125 449.733398438 489.828125 400.0703125 c 0
 489.828125 350.407226562 449.514648438 310.0859375 399.859375 310.0859375 c 0
 350.204101562 310.0859375 309.890625 350.407226562 309.890625 400.0703125 c 0
 309.890625 449.733398438 350.204101562 490.0546875 399.859375 490.0546875 c 0
EndSplineSet
Validated: 33
EndChar

StartChar: f
Encoding: 102 102 47
Width: 1000
HStem: 0.140625 179.969<31.8672 148.833 650.886 768.638> 0.140625 27.9961<155.254 644.818> 310.086 179.969<340.995 458.724> 772.004 27.9961<27.9902 771.729>
VStem: 0 179.938<32.0142 148.999> 0 27.9902<155.068 771.557> 309.891 179.938<341.196 458.945> 619.781 179.938<32.0142 148.999> 771.729 27.9902<155.314 772.004>
LayerCount: 2
Fore
SplineSet
0 800 m 1x76
 799.71875 800 l 1x7680
 799.71875 90.125 l 1x73
 799.71875 0.140625 l 1x7280
 709.75 0.140625 l 1
 89.96875 0.140625 l 1xb280
 0 0.140625 l 1x7680
 0 90.125 l 1x7a
 0 800 l 1x76
27.990234375 772.00390625 m 1
 27.990234375 772.00390625 28.0185546875 155.065429688 27.990234375 155.068359375 c 1
 44.08984375 170.51171875 65.9404296875 180.030273438 89.96875 180.109375 c 0xb680
 139.624023438 180.109375 179.9375 139.788085938 179.9375 90.125 c 0
 179.857421875 66.0927734375 170.33984375 44.23828125 154.8984375 28.13671875 c 1
 154.8984375 28.13671875 644.821289062 28.1650390625 644.818359375 28.13671875 c 1x7a
 629.376953125 44.23828125 619.861328125 66.0927734375 619.78125 90.125 c 0
 619.78125 139.788085938 660.094726562 180.109375 709.75 180.109375 c 0xbb
 733.752929688 180.098632812 755.595703125 170.66796875 771.728515625 155.314453125 c 1
 771.728515625 772.00390625 l 1
 27.990234375 772.00390625 l 1
399.859375 490.0546875 m 0
 449.514648438 490.0546875 489.828125 449.733398438 489.828125 400.0703125 c 0
 489.828125 350.407226562 449.514648438 310.0859375 399.859375 310.0859375 c 0
 350.204101562 310.0859375 309.890625 350.407226562 309.890625 400.0703125 c 0
 309.890625 449.733398438 350.204101562 490.0546875 399.859375 490.0546875 c 0
EndSplineSet
Validated: 33
EndChar

StartChar: E
Encoding: 69 69 48
Width: 1000
HStem: 0.140625 27.9961<27.9902 771.729> 310.086 179.969<340.995 458.724> 620.031 179.969<31.8672 148.833 650.886 767.852> 772.004 27.9961<155.146 644.816>
VStem: 0 179.938<651.141 768.912> 0 27.9902<28.1367 645.072> 309.891 179.938<341.196 458.945> 619.781 179.938<651.141 768.126> 771.729 27.9902<28.5839 645.072>
LayerCount: 2
Fore
SplineSet
0 800 m 1xd6
 89.96875 800 l 1
 709.75 800 l 1xe6
 799.71875 800 l 1xd680
 799.71875 710.015625 l 1xd3
 799.71875 0.140625 l 1
 0 0.140625 l 1xd680
 0 710.015625 l 1xda
 0 800 l 1xd6
155.146484375 772.00390625 m 1xd3
 170.497070312 755.868164062 179.926757812 734.022460938 179.9375 710.015625 c 0xdb
 179.9375 660.352539062 139.624023438 620.03125 89.96875 620.03125 c 0
 65.9404296875 620.110351562 44.08984375 629.62890625 27.990234375 645.072265625 c 1
 27.990234375 28.13671875 l 1
 771.728515625 28.13671875 l 1
 771.728515625 28.13671875 771.700195312 645.075195312 771.728515625 645.072265625 c 1
 755.62890625 629.62890625 733.778320312 620.110351562 709.75 620.03125 c 0xe680
 660.094726562 620.03125 619.78125 660.352539062 619.78125 710.015625 c 0
 619.860351562 734.047851562 629.375976562 755.901367188 644.81640625 772.00390625 c 1
 155.146484375 772.00390625 l 1xd3
399.859375 490.0546875 m 0
 449.514648438 490.0546875 489.828125 449.733398438 489.828125 400.0703125 c 0
 489.828125 350.407226562 449.514648438 310.0859375 399.859375 310.0859375 c 0
 350.204101562 310.0859375 309.890625 350.407226562 309.890625 400.0703125 c 0
 309.890625 449.733398438 350.204101562 490.0546875 399.859375 490.0546875 c 0
EndSplineSet
Validated: 33
EndChar

StartChar: e
Encoding: 101 101 49
Width: 1000
HStem: 0.140625 27.9961<27.9902 771.729> 310.086 179.969<340.995 458.724> 620.031 179.969<31.8672 148.833 650.886 767.852> 772.004 27.9961<155.146 644.816>
VStem: 0 179.938<651.141 768.912> 0 27.9902<28.1367 645.072> 309.891 179.938<341.196 458.945> 619.781 179.938<651.141 768.126> 771.729 27.9902<28.5839 645.072>
LayerCount: 2
Fore
SplineSet
0 800 m 1xd6
 89.96875 800 l 1
 709.75 800 l 1xe6
 799.71875 800 l 1xd680
 799.71875 710.015625 l 1xd3
 799.71875 0.140625 l 1
 0 0.140625 l 1xd680
 0 710.015625 l 1xda
 0 800 l 1xd6
155.146484375 772.00390625 m 1xd3
 170.497070312 755.868164062 179.926757812 734.022460938 179.9375 710.015625 c 0xdb
 179.9375 660.352539062 139.624023438 620.03125 89.96875 620.03125 c 0
 65.9404296875 620.110351562 44.08984375 629.62890625 27.990234375 645.072265625 c 1
 27.990234375 28.13671875 l 1
 771.728515625 28.13671875 l 1
 771.728515625 28.13671875 771.700195312 645.075195312 771.728515625 645.072265625 c 1
 755.62890625 629.62890625 733.778320312 620.110351562 709.75 620.03125 c 0xe680
 660.094726562 620.03125 619.78125 660.352539062 619.78125 710.015625 c 0
 619.860351562 734.047851562 629.375976562 755.901367188 644.81640625 772.00390625 c 1
 155.146484375 772.00390625 l 1xd3
399.859375 490.0546875 m 0
 449.514648438 490.0546875 489.828125 449.733398438 489.828125 400.0703125 c 0
 489.828125 350.407226562 449.514648438 310.0859375 399.859375 310.0859375 c 0
 350.204101562 310.0859375 309.890625 350.407226562 309.890625 400.0703125 c 0
 309.890625 449.733398438 350.204101562 490.0546875 399.859375 490.0546875 c 0
EndSplineSet
Validated: 33
EndChar

StartChar: D
Encoding: 68 68 50
Width: 1000
HStem: 0.140625 27.9961<28.123 737.857> 376.098 47.9922<28.123 342.061 388.23 411.708 457.873 771.861> 772.004 27.9961<62.0664 771.861>
VStem: 0.132812 27.9902<28.1367 376.098 424.09 738.082> 771.861 27.9902<62.0039 376.043 424.035 772.004>
LayerCount: 2
Fore
SplineSet
0.1328125 800 m 1
 34.07421875 800 l 1
 799.8515625 800 l 1
 799.8515625 424.03515625 l 1
 799.8515625 376.04296875 l 1
 799.8515625 27.0234375 l 2
 800.08203125 22.4677734375 799.96875 17.7685546875 799.8515625 13.068359375 c 2
 799.8515625 0.140625 l 1
 765.84765625 0.140625 l 1
 0.1328125 0.140625 l 1
 0.1328125 376.09765625 l 1
 0.1328125 424.08984375 l 1
 0.1328125 773.099609375 l 2
 -0.0966796875 777.65625 0.0166015625 782.353515625 0.1328125 787.052734375 c 2
 0.1328125 800 l 1
62.06640625 772.00390625 m 1
 178.036132812 656.014648438 294.004882812 540.024414062 409.974609375 424.03515625 c 1
 771.861328125 424.03515625 l 1
 771.861328125 772.00390625 l 1
 62.06640625 772.00390625 l 1
28.123046875 738.08203125 m 1
 28.123046875 424.08984375 l 1
 342.060546875 424.08984375 l 1
 28.123046875 738.08203125 l 1
28.123046875 376.09765625 m 1
 28.123046875 28.13671875 l 1
 737.857421875 28.13671875 l 1
 621.893554688 144.123046875 505.928710938 260.111328125 389.96484375 376.09765625 c 1
 28.123046875 376.09765625 l 1
457.873046875 376.04296875 m 1
 562.536132812 271.36328125 667.198242188 166.68359375 771.861328125 62.00390625 c 1
 771.861328125 376.04296875 l 1
 457.873046875 376.04296875 l 1
EndSplineSet
Validated: 5
EndChar

StartChar: d
Encoding: 100 100 51
Width: 1000
HStem: 0.140625 27.9961<28.123 737.857> 376.098 47.9922<28.123 342.061 388.23 411.708 457.873 771.861> 772.004 27.9961<62.0664 771.861>
VStem: 0.132812 27.9902<28.1367 376.098 424.09 738.082> 771.861 27.9902<62.0039 376.043 424.035 772.004>
LayerCount: 2
Fore
SplineSet
0.1328125 800 m 1
 34.07421875 800 l 1
 799.8515625 800 l 1
 799.8515625 424.03515625 l 1
 799.8515625 376.04296875 l 1
 799.8515625 27.0234375 l 2
 800.08203125 22.4677734375 799.96875 17.7685546875 799.8515625 13.068359375 c 2
 799.8515625 0.140625 l 1
 765.84765625 0.140625 l 1
 0.1328125 0.140625 l 1
 0.1328125 376.09765625 l 1
 0.1328125 424.08984375 l 1
 0.1328125 773.099609375 l 2
 -0.0966796875 777.65625 0.0166015625 782.353515625 0.1328125 787.052734375 c 2
 0.1328125 800 l 1
62.06640625 772.00390625 m 1
 178.036132812 656.014648438 294.004882812 540.024414062 409.974609375 424.03515625 c 1
 771.861328125 424.03515625 l 1
 771.861328125 772.00390625 l 1
 62.06640625 772.00390625 l 1
28.123046875 738.08203125 m 1
 28.123046875 424.08984375 l 1
 342.060546875 424.08984375 l 1
 28.123046875 738.08203125 l 1
28.123046875 376.09765625 m 1
 28.123046875 28.13671875 l 1
 737.857421875 28.13671875 l 1
 621.893554688 144.123046875 505.928710938 260.111328125 389.96484375 376.09765625 c 1
 28.123046875 376.09765625 l 1
457.873046875 376.04296875 m 1
 562.536132812 271.36328125 667.198242188 166.68359375 771.861328125 62.00390625 c 1
 771.861328125 376.04296875 l 1
 457.873046875 376.04296875 l 1
EndSplineSet
Validated: 5
EndChar

StartChar: zero
Encoding: 48 48 52
Width: 1000
HStem: 0.141602 27.9951<27.9902 771.728> 772.005 27.9951<27.9902 771.728>
VStem: 0 27.9902<28.1367 772.005> 771.728 27.9902<28.1367 772.005>
LayerCount: 2
Fore
SplineSet
0 800 m 1
 266.572265625 800 533.145507812 800 799.717773438 800 c 1
 799.717773438 533.380859375 799.717773438 266.760742188 799.717773438 0.1416015625 c 1
 533.145507812 0.1416015625 266.572265625 0.1416015625 0 0.1416015625 c 1
 0 266.760742188 0 533.380859375 0 800 c 1
27.990234375 772.004882812 m 1
 27.990234375 524.048828125 27.990234375 276.092773438 27.990234375 28.13671875 c 1
 275.90234375 28.13671875 523.815429688 28.13671875 771.727539062 28.13671875 c 1
 771.727539062 276.092773438 771.727539062 524.048828125 771.727539062 772.004882812 c 1
 523.815429688 772.004882812 275.90234375 772.004882812 27.990234375 772.004882812 c 1
EndSplineSet
Validated: 1
EndChar

StartChar: nine
Encoding: 57 57 53
Width: 1000
HStem: 0.140625 179.969<31.8672 148.833 340.995 458.724 650.886 768.638> 0.140625 27.9961<155.029 334.928 464.789 644.818> 310.086 179.969<31.8672 148.833 340.995 458.724 650.886 767.845> 620.031 179.969<31.8672 148.833 340.995 458.724 650.886 767.852> 772.004 27.9961<155.146 334.926>
VStem: 0 179.938<32.0142 148.999 341.196 458.945 651.141 768.912> 0 27.9902<155.068 334.996 465.014 644.942> 309.891 179.938<32.0142 148.999 341.196 458.945 651.141 768.119> 619.781 179.938<32.0142 148.999 341.196 458.945 651.141 768.126> 771.729 27.9902<155.445 335.129 465.26 645.072>
LayerCount: 2
Fore
SplineSet
0 800 m 1x6b
 89.96875 800 l 1
 399.859375 800 l 1
 709.75 800 l 1x33
 799.71875 800 l 1x2b40
 799.71875 710.015625 l 1
 799.71875 400.0703125 l 1
 799.71875 90.125 l 1x2980
 799.71875 0.140625 l 1x6940
 709.75 0.140625 l 1
 399.859375 0.140625 l 1
 89.96875 0.140625 l 1xa140
 0 0.140625 l 1x6340
 0 90.125 l 1
 0 400.0703125 l 1
 0 710.015625 l 1x65
 0 800 l 1x6b
155.146484375 772.00390625 m 1x2980
 170.497070312 755.868164062 179.926757812 734.022460938 179.9375 710.015625 c 0x2d80
 179.9375 660.352539062 139.624023438 620.03125 89.96875 620.03125 c 0
 65.9404296875 620.110351562 44.08984375 629.62890625 27.990234375 645.072265625 c 1
 27.990234375 645.072265625 28.0185546875 465.010742188 27.990234375 465.013671875 c 1x33
 44.08984375 480.45703125 65.9404296875 489.975585938 89.96875 490.0546875 c 0
 139.624023438 490.0546875 179.9375 449.733398438 179.9375 400.0703125 c 0x35
 179.9375 350.407226562 139.624023438 310.0859375 89.96875 310.0859375 c 0
 65.9404296875 310.165039062 44.08984375 319.68359375 27.990234375 335.126953125 c 1
 27.990234375 335.126953125 28.0185546875 155.065429688 27.990234375 155.068359375 c 1
 44.08984375 170.51171875 65.9404296875 180.030273438 89.96875 180.109375 c 0xb3
 139.624023438 180.109375 179.9375 139.788085938 179.9375 90.125 c 0
 179.857421875 66.0927734375 170.33984375 44.23828125 154.8984375 28.13671875 c 1
 154.8984375 28.13671875 334.930664062 28.1650390625 334.927734375 28.13671875 c 1x65
 319.486328125 44.23828125 309.970703125 66.0927734375 309.890625 90.125 c 0
 309.890625 139.788085938 350.204101562 180.109375 399.859375 180.109375 c 0xa5
 449.514648438 180.109375 489.828125 139.788085938 489.828125 90.125 c 0
 489.748046875 66.0927734375 480.23046875 44.23828125 464.7890625 28.13671875 c 1
 464.7890625 28.13671875 644.821289062 28.1650390625 644.818359375 28.13671875 c 1
 629.376953125 44.23828125 619.861328125 66.0927734375 619.78125 90.125 c 0x6580
 619.78125 139.788085938 660.094726562 180.109375 709.75 180.109375 c 0
 733.752929688 180.098632812 755.595703125 170.66796875 771.728515625 155.314453125 c 1
 771.728515625 155.314453125 771.700195312 335.131835938 771.728515625 335.12890625 c 1xa140
 755.62890625 319.684570312 733.778320312 310.166015625 709.75 310.0859375 c 0
 660.094726562 310.0859375 619.78125 350.407226562 619.78125 400.0703125 c 0xa180
 619.78125 449.733398438 660.094726562 490.0546875 709.75 490.0546875 c 0
 733.752929688 490.043945312 755.595703125 480.61328125 771.728515625 465.259765625 c 1
 771.728515625 465.259765625 771.700195312 645.075195312 771.728515625 645.072265625 c 1
 755.62890625 629.62890625 733.778320312 620.110351562 709.75 620.03125 c 0xb140
 660.094726562 620.03125 619.78125 660.352539062 619.78125 710.015625 c 0
 619.860351562 734.047851562 629.375976562 755.901367188 644.81640625 772.00390625 c 1
 644.81640625 772.00390625 465.036132812 771.978515625 465.037109375 772.00390625 c 1x2980
 480.387695312 755.868164062 489.817382812 734.022460938 489.828125 710.015625 c 0
 489.828125 660.352539062 449.514648438 620.03125 399.859375 620.03125 c 0x3180
 350.204101562 620.03125 309.890625 660.352539062 309.890625 710.015625 c 0
 309.969726562 734.047851562 319.485351562 755.901367188 334.92578125 772.00390625 c 1
 155.146484375 772.00390625 l 1x2980
399.859375 490.0546875 m 0
 449.514648438 490.0546875 489.828125 449.733398438 489.828125 400.0703125 c 0
 489.828125 350.407226562 449.514648438 310.0859375 399.859375 310.0859375 c 0
 350.204101562 310.0859375 309.890625 350.407226562 309.890625 400.0703125 c 0
 309.890625 449.733398438 350.204101562 490.0546875 399.859375 490.0546875 c 0
EndSplineSet
Validated: 33
EndChar

StartChar: eight
Encoding: 56 56 54
Width: 1000
HStem: 0.140625 179.969<31.8672 148.833 340.995 458.724 650.886 768.638> 0.140625 27.9961<155.029 334.928 464.789 644.818> 310.086 179.969<31.8672 148.833 650.886 767.845> 620.031 179.969<31.8672 148.833 340.995 458.724 650.886 767.852> 772.004 27.9961<155.146 334.926>
VStem: 0 179.938<32.0142 148.999 341.196 458.945 651.141 768.912> 0 27.9902<155.068 334.996 465.014 644.942> 309.891 179.938<32.0142 148.999 651.141 768.119> 619.781 179.938<32.0142 148.999 341.196 458.945 651.141 768.126> 771.729 27.9902<155.445 335.129 465.26 645.072>
LayerCount: 2
Fore
SplineSet
0 800 m 1x6b
 89.96875 800 l 1
 399.859375 800 l 1
 709.75 800 l 1x33
 799.71875 800 l 1x2b40
 799.71875 710.015625 l 1
 799.71875 400.0703125 l 1
 799.71875 90.125 l 1x2980
 799.71875 0.140625 l 1x6940
 709.75 0.140625 l 1
 399.859375 0.140625 l 1
 89.96875 0.140625 l 1xa140
 0 0.140625 l 1x6340
 0 90.125 l 1
 0 400.0703125 l 1
 0 710.015625 l 1x65
 0 800 l 1x6b
155.146484375 772.00390625 m 1x2980
 170.497070312 755.868164062 179.926757812 734.022460938 179.9375 710.015625 c 0x2d80
 179.9375 660.352539062 139.624023438 620.03125 89.96875 620.03125 c 0
 65.9404296875 620.110351562 44.08984375 629.62890625 27.990234375 645.072265625 c 1
 27.990234375 645.072265625 28.0185546875 465.010742188 27.990234375 465.013671875 c 1x33
 44.08984375 480.45703125 65.9404296875 489.975585938 89.96875 490.0546875 c 0
 139.624023438 490.0546875 179.9375 449.733398438 179.9375 400.0703125 c 0x35
 179.9375 350.407226562 139.624023438 310.0859375 89.96875 310.0859375 c 0
 65.9404296875 310.165039062 44.08984375 319.68359375 27.990234375 335.126953125 c 1
 27.990234375 335.126953125 28.0185546875 155.065429688 27.990234375 155.068359375 c 1
 44.08984375 170.51171875 65.9404296875 180.030273438 89.96875 180.109375 c 0xb3
 139.624023438 180.109375 179.9375 139.788085938 179.9375 90.125 c 0
 179.857421875 66.0927734375 170.33984375 44.23828125 154.8984375 28.13671875 c 1
 154.8984375 28.13671875 334.930664062 28.1650390625 334.927734375 28.13671875 c 1x65
 319.486328125 44.23828125 309.970703125 66.0927734375 309.890625 90.125 c 0
 309.890625 139.788085938 350.204101562 180.109375 399.859375 180.109375 c 0xa5
 449.514648438 180.109375 489.828125 139.788085938 489.828125 90.125 c 0
 489.748046875 66.0927734375 480.23046875 44.23828125 464.7890625 28.13671875 c 1
 464.7890625 28.13671875 644.821289062 28.1650390625 644.818359375 28.13671875 c 1
 629.376953125 44.23828125 619.861328125 66.0927734375 619.78125 90.125 c 0x6580
 619.78125 139.788085938 660.094726562 180.109375 709.75 180.109375 c 0
 733.752929688 180.098632812 755.595703125 170.66796875 771.728515625 155.314453125 c 1
 771.728515625 155.314453125 771.700195312 335.131835938 771.728515625 335.12890625 c 1xa140
 755.62890625 319.684570312 733.778320312 310.166015625 709.75 310.0859375 c 0
 660.094726562 310.0859375 619.78125 350.407226562 619.78125 400.0703125 c 0xa180
 619.78125 449.733398438 660.094726562 490.0546875 709.75 490.0546875 c 0
 733.752929688 490.043945312 755.595703125 480.61328125 771.728515625 465.259765625 c 1
 771.728515625 465.259765625 771.700195312 645.075195312 771.728515625 645.072265625 c 1
 755.62890625 629.62890625 733.778320312 620.110351562 709.75 620.03125 c 0xb140
 660.094726562 620.03125 619.78125 660.352539062 619.78125 710.015625 c 0
 619.860351562 734.047851562 629.375976562 755.901367188 644.81640625 772.00390625 c 1
 644.81640625 772.00390625 465.036132812 771.978515625 465.037109375 772.00390625 c 1x2980
 480.387695312 755.868164062 489.817382812 734.022460938 489.828125 710.015625 c 0
 489.828125 660.352539062 449.514648438 620.03125 399.859375 620.03125 c 0x3180
 350.204101562 620.03125 309.890625 660.352539062 309.890625 710.015625 c 0
 309.969726562 734.047851562 319.485351562 755.901367188 334.92578125 772.00390625 c 1
 155.146484375 772.00390625 l 1x2980
EndSplineSet
Validated: 33
EndChar

StartChar: seven
Encoding: 55 55 55
Width: 1000
HStem: 0.140625 179.969<31.8672 148.833 650.886 768.638> 0.140625 27.9961<155.254 644.818> 310.086 179.969<31.8672 148.833 340.995 458.724 650.886 767.845> 620.031 179.969<31.8672 148.833 650.886 767.852> 772.004 27.9961<155.146 644.816>
VStem: 0 179.938<32.0142 148.999 341.196 458.945 651.141 768.912> 0 27.9902<155.068 334.996 465.014 644.942> 309.891 179.938<341.196 458.945> 619.781 179.938<32.0142 148.999 341.196 458.945 651.141 768.126> 771.729 27.9902<155.445 335.129 465.26 645.072>
LayerCount: 2
Fore
SplineSet
0 800 m 1x6b
 89.96875 800 l 1
 709.75 800 l 1x33
 799.71875 800 l 1x2b40
 799.71875 710.015625 l 1
 799.71875 400.0703125 l 1
 799.71875 90.125 l 1x2980
 799.71875 0.140625 l 1x6940
 709.75 0.140625 l 1
 89.96875 0.140625 l 1xa140
 0 0.140625 l 1x6340
 0 90.125 l 1
 0 400.0703125 l 1
 0 710.015625 l 1x65
 0 800 l 1x6b
155.146484375 772.00390625 m 1x2980
 170.497070312 755.868164062 179.926757812 734.022460938 179.9375 710.015625 c 0x2d80
 179.9375 660.352539062 139.624023438 620.03125 89.96875 620.03125 c 0
 65.9404296875 620.110351562 44.08984375 629.62890625 27.990234375 645.072265625 c 1
 27.990234375 645.072265625 28.0185546875 465.010742188 27.990234375 465.013671875 c 1x33
 44.08984375 480.45703125 65.9404296875 489.975585938 89.96875 490.0546875 c 0
 139.624023438 490.0546875 179.9375 449.733398438 179.9375 400.0703125 c 0x35
 179.9375 350.407226562 139.624023438 310.0859375 89.96875 310.0859375 c 0
 65.9404296875 310.165039062 44.08984375 319.68359375 27.990234375 335.126953125 c 1
 27.990234375 335.126953125 28.0185546875 155.065429688 27.990234375 155.068359375 c 1
 44.08984375 170.51171875 65.9404296875 180.030273438 89.96875 180.109375 c 0xb3
 139.624023438 180.109375 179.9375 139.788085938 179.9375 90.125 c 0
 179.857421875 66.0927734375 170.33984375 44.23828125 154.8984375 28.13671875 c 1
 154.8984375 28.13671875 644.821289062 28.1650390625 644.818359375 28.13671875 c 1
 629.376953125 44.23828125 619.861328125 66.0927734375 619.78125 90.125 c 0x6580
 619.78125 139.788085938 660.094726562 180.109375 709.75 180.109375 c 0
 733.752929688 180.098632812 755.595703125 170.66796875 771.728515625 155.314453125 c 1
 771.728515625 155.314453125 771.700195312 335.131835938 771.728515625 335.12890625 c 1xa140
 755.62890625 319.684570312 733.778320312 310.166015625 709.75 310.0859375 c 0
 660.094726562 310.0859375 619.78125 350.407226562 619.78125 400.0703125 c 0xa180
 619.78125 449.733398438 660.094726562 490.0546875 709.75 490.0546875 c 0
 733.752929688 490.043945312 755.595703125 480.61328125 771.728515625 465.259765625 c 1
 771.728515625 465.259765625 771.700195312 645.075195312 771.728515625 645.072265625 c 1
 755.62890625 629.62890625 733.778320312 620.110351562 709.75 620.03125 c 0xb140
 660.094726562 620.03125 619.78125 660.352539062 619.78125 710.015625 c 0
 619.860351562 734.047851562 629.375976562 755.901367188 644.81640625 772.00390625 c 1
 155.146484375 772.00390625 l 1x2980
399.859375 490.0546875 m 0
 449.514648438 490.0546875 489.828125 449.733398438 489.828125 400.0703125 c 0
 489.828125 350.407226562 449.514648438 310.0859375 399.859375 310.0859375 c 0
 350.204101562 310.0859375 309.890625 350.407226562 309.890625 400.0703125 c 0
 309.890625 449.733398438 350.204101562 490.0546875 399.859375 490.0546875 c 0
EndSplineSet
Validated: 33
EndChar

StartChar: six
Encoding: 54 54 56
Width: 1000
HStem: 0.140625 179.969<31.8672 148.833 650.886 768.638> 0.140625 27.9961<155.254 644.818> 310.086 179.969<31.8672 148.833 650.886 767.845> 620.031 179.969<31.8672 148.833 650.886 767.852> 772.004 27.9961<155.146 644.816>
VStem: 0 179.938<32.0142 148.999 341.196 458.945 651.141 768.912> 0 27.9902<155.068 334.996 465.014 644.942> 619.781 179.938<32.0142 148.999 341.196 458.945 651.141 768.126> 771.729 27.9902<155.445 335.129 465.26 645.072>
LayerCount: 2
Fore
SplineSet
0 800 m 1x6a
 89.96875 800 l 1
 709.75 800 l 1x32
 799.71875 800 l 1x2a80
 799.71875 710.015625 l 1
 799.71875 400.0703125 l 1
 799.71875 90.125 l 1x29
 799.71875 0.140625 l 1x6880
 709.75 0.140625 l 1
 89.96875 0.140625 l 1xa080
 0 0.140625 l 1x6280
 0 90.125 l 1
 0 400.0703125 l 1
 0 710.015625 l 1x64
 0 800 l 1x6a
155.146484375 772.00390625 m 1x29
 170.497070312 755.868164062 179.926757812 734.022460938 179.9375 710.015625 c 0x2d
 179.9375 660.352539062 139.624023438 620.03125 89.96875 620.03125 c 0
 65.9404296875 620.110351562 44.08984375 629.62890625 27.990234375 645.072265625 c 1
 27.990234375 645.072265625 28.0185546875 465.010742188 27.990234375 465.013671875 c 1x32
 44.08984375 480.45703125 65.9404296875 489.975585938 89.96875 490.0546875 c 0
 139.624023438 490.0546875 179.9375 449.733398438 179.9375 400.0703125 c 0x34
 179.9375 350.407226562 139.624023438 310.0859375 89.96875 310.0859375 c 0
 65.9404296875 310.165039062 44.08984375 319.68359375 27.990234375 335.126953125 c 1
 27.990234375 335.126953125 28.0185546875 155.065429688 27.990234375 155.068359375 c 1
 44.08984375 170.51171875 65.9404296875 180.030273438 89.96875 180.109375 c 0xb2
 139.624023438 180.109375 179.9375 139.788085938 179.9375 90.125 c 0
 179.857421875 66.0927734375 170.33984375 44.23828125 154.8984375 28.13671875 c 1
 154.8984375 28.13671875 644.821289062 28.1650390625 644.818359375 28.13671875 c 1
 629.376953125 44.23828125 619.861328125 66.0927734375 619.78125 90.125 c 0x65
 619.78125 139.788085938 660.094726562 180.109375 709.75 180.109375 c 0
 733.752929688 180.098632812 755.595703125 170.66796875 771.728515625 155.314453125 c 1
 771.728515625 155.314453125 771.700195312 335.131835938 771.728515625 335.12890625 c 1xa080
 755.62890625 319.684570312 733.778320312 310.166015625 709.75 310.0859375 c 0
 660.094726562 310.0859375 619.78125 350.407226562 619.78125 400.0703125 c 0xa1
 619.78125 449.733398438 660.094726562 490.0546875 709.75 490.0546875 c 0
 733.752929688 490.043945312 755.595703125 480.61328125 771.728515625 465.259765625 c 1
 771.728515625 465.259765625 771.700195312 645.075195312 771.728515625 645.072265625 c 1
 755.62890625 629.62890625 733.778320312 620.110351562 709.75 620.03125 c 0xb080
 660.094726562 620.03125 619.78125 660.352539062 619.78125 710.015625 c 0
 619.860351562 734.047851562 629.375976562 755.901367188 644.81640625 772.00390625 c 1
 155.146484375 772.00390625 l 1x29
EndSplineSet
Validated: 33
EndChar

StartChar: five
Encoding: 53 53 57
Width: 1000
HStem: 0.140625 179.969<340.995 458.724> 0.140625 27.9961<28.2127 334.928 464.789 771.729> 310.086 179.969<31.8672 148.833 340.995 458.724 650.886 767.845> 620.031 179.969<340.995 458.724> 772.004 27.9961<27.9902 334.926>
VStem: 0 179.938<341.196 458.945> 0 27.9902<28.1367 335.127 465.014 771.781> 309.891 179.938<32.0142 148.999 341.196 458.945 651.141 768.119> 619.781 179.938<341.196 458.945> 771.729 27.9902<28.3592 335.129 465.26 772.004>
LayerCount: 2
Fore
SplineSet
0 800 m 1x6b
 399.859375 800 l 1x33
 799.71875 800 l 1x2b40
 799.71875 400.0703125 l 1x2980
 799.71875 0.140625 l 1x6940
 399.859375 0.140625 l 1xa140
 0 0.140625 l 1x6340
 0 400.0703125 l 1x65
 0 800 l 1x6b
27.990234375 772.00390625 m 1x2b40
 27.990234375 772.00390625 28.0185546875 465.010742188 27.990234375 465.013671875 c 1x2b40
 44.08984375 480.45703125 65.9404296875 489.975585938 89.96875 490.0546875 c 0
 139.624023438 490.0546875 179.9375 449.733398438 179.9375 400.0703125 c 0x2d
 179.9375 350.407226562 139.624023438 310.0859375 89.96875 310.0859375 c 0
 65.9404296875 310.165039062 44.08984375 319.68359375 27.990234375 335.126953125 c 1
 27.990234375 28.13671875 l 1
 27.990234375 28.13671875 334.930664062 28.1650390625 334.927734375 28.13671875 c 1x6b
 319.486328125 44.23828125 309.970703125 66.0927734375 309.890625 90.125 c 0
 309.890625 139.788085938 350.204101562 180.109375 399.859375 180.109375 c 0xa3
 449.514648438 180.109375 489.828125 139.788085938 489.828125 90.125 c 0
 489.748046875 66.0927734375 480.23046875 44.23828125 464.7890625 28.13671875 c 1
 771.728515625 28.13671875 l 1
 771.728515625 28.13671875 771.700195312 335.131835938 771.728515625 335.12890625 c 1x6340
 755.62890625 319.684570312 733.778320312 310.166015625 709.75 310.0859375 c 0
 660.094726562 310.0859375 619.78125 350.407226562 619.78125 400.0703125 c 0x6180
 619.78125 449.733398438 660.094726562 490.0546875 709.75 490.0546875 c 0
 733.752929688 490.043945312 755.595703125 480.61328125 771.728515625 465.259765625 c 1
 771.728515625 772.00390625 l 1
 771.728515625 772.00390625 465.036132812 771.978515625 465.037109375 772.00390625 c 1x6940
 480.387695312 755.868164062 489.817382812 734.022460938 489.828125 710.015625 c 0
 489.828125 660.352539062 449.514648438 620.03125 399.859375 620.03125 c 0x3140
 350.204101562 620.03125 309.890625 660.352539062 309.890625 710.015625 c 0
 309.969726562 734.047851562 319.485351562 755.901367188 334.92578125 772.00390625 c 1
 27.990234375 772.00390625 l 1x2b40
399.859375 490.0546875 m 0
 449.514648438 490.0546875 489.828125 449.733398438 489.828125 400.0703125 c 0
 489.828125 350.407226562 449.514648438 310.0859375 399.859375 310.0859375 c 0
 350.204101562 310.0859375 309.890625 350.407226562 309.890625 400.0703125 c 0
 309.890625 449.733398438 350.204101562 490.0546875 399.859375 490.0546875 c 0
EndSplineSet
Validated: 33
EndChar

StartChar: four
Encoding: 52 52 58
Width: 1000
HStem: 0.140625 179.969<340.995 458.724> 0.140625 27.9961<28.2127 334.928 464.789 771.729> 310.086 179.969<31.8672 148.833 650.886 767.845> 620.031 179.969<340.995 458.724> 772.004 27.9961<27.9902 334.926>
VStem: 0 179.938<341.196 458.945> 0 27.9902<28.1367 335.127 465.014 771.781> 309.891 179.938<32.0142 148.999 651.141 768.119> 619.781 179.938<341.196 458.945> 771.729 27.9902<28.3592 335.129 465.26 772.004>
LayerCount: 2
Fore
SplineSet
0 800 m 1x6b
 399.859375 800 l 1x33
 799.71875 800 l 1x2b40
 799.71875 400.0703125 l 1x2980
 799.71875 0.140625 l 1x6940
 399.859375 0.140625 l 1xa140
 0 0.140625 l 1x6340
 0 400.0703125 l 1x65
 0 800 l 1x6b
27.990234375 772.00390625 m 1x2b40
 27.990234375 772.00390625 28.0185546875 465.010742188 27.990234375 465.013671875 c 1x2b40
 44.08984375 480.45703125 65.9404296875 489.975585938 89.96875 490.0546875 c 0
 139.624023438 490.0546875 179.9375 449.733398438 179.9375 400.0703125 c 0x2d
 179.9375 350.407226562 139.624023438 310.0859375 89.96875 310.0859375 c 0
 65.9404296875 310.165039062 44.08984375 319.68359375 27.990234375 335.126953125 c 1
 27.990234375 28.13671875 l 1
 27.990234375 28.13671875 334.930664062 28.1650390625 334.927734375 28.13671875 c 1x6b
 319.486328125 44.23828125 309.970703125 66.0927734375 309.890625 90.125 c 0
 309.890625 139.788085938 350.204101562 180.109375 399.859375 180.109375 c 0xa3
 449.514648438 180.109375 489.828125 139.788085938 489.828125 90.125 c 0
 489.748046875 66.0927734375 480.23046875 44.23828125 464.7890625 28.13671875 c 1
 771.728515625 28.13671875 l 1
 771.728515625 28.13671875 771.700195312 335.131835938 771.728515625 335.12890625 c 1x6340
 755.62890625 319.684570312 733.778320312 310.166015625 709.75 310.0859375 c 0
 660.094726562 310.0859375 619.78125 350.407226562 619.78125 400.0703125 c 0x6180
 619.78125 449.733398438 660.094726562 490.0546875 709.75 490.0546875 c 0
 733.752929688 490.043945312 755.595703125 480.61328125 771.728515625 465.259765625 c 1
 771.728515625 772.00390625 l 1
 771.728515625 772.00390625 465.036132812 771.978515625 465.037109375 772.00390625 c 1x6940
 480.387695312 755.868164062 489.817382812 734.022460938 489.828125 710.015625 c 0
 489.828125 660.352539062 449.514648438 620.03125 399.859375 620.03125 c 0x3140
 350.204101562 620.03125 309.890625 660.352539062 309.890625 710.015625 c 0
 309.969726562 734.047851562 319.485351562 755.901367188 334.92578125 772.00390625 c 1
 27.990234375 772.00390625 l 1x2b40
EndSplineSet
Validated: 33
EndChar

StartChar: three
Encoding: 51 51 59
Width: 1000
HStem: 0.140625 179.969<340.995 458.724> 0.140625 27.9961<28.2127 334.928 464.789 771.729> 310.086 179.969<340.995 458.724> 620.031 179.969<340.995 458.724> 772.004 27.9961<27.9902 334.926>
VStem: 0 27.9902<28.1367 772.004> 309.891 179.938<32.0142 148.999 341.196 458.945 651.141 768.119> 771.729 27.9902<28.1367 772.004>
CounterMasks: 1 07
LayerCount: 2
Fore
SplineSet
0 800 m 1x6f
 399.859375 800 l 1x37
 799.71875 800 l 1
 799.71875 0.140625 l 1x6f
 399.859375 0.140625 l 1xa7
 0 0.140625 l 1
 0 800 l 1x6f
27.990234375 772.00390625 m 1x2f
 27.990234375 28.13671875 l 1
 27.990234375 28.13671875 334.930664062 28.1650390625 334.927734375 28.13671875 c 1x6f
 319.486328125 44.23828125 309.970703125 66.0927734375 309.890625 90.125 c 0
 309.890625 139.788085938 350.204101562 180.109375 399.859375 180.109375 c 0xa7
 449.514648438 180.109375 489.828125 139.788085938 489.828125 90.125 c 0
 489.748046875 66.0927734375 480.23046875 44.23828125 464.7890625 28.13671875 c 1
 771.728515625 28.13671875 l 1
 771.728515625 772.00390625 l 1
 771.728515625 772.00390625 465.036132812 771.978515625 465.037109375 772.00390625 c 1x6f
 480.387695312 755.868164062 489.817382812 734.022460938 489.828125 710.015625 c 0
 489.828125 660.352539062 449.514648438 620.03125 399.859375 620.03125 c 0x37
 350.204101562 620.03125 309.890625 660.352539062 309.890625 710.015625 c 0
 309.969726562 734.047851562 319.485351562 755.901367188 334.92578125 772.00390625 c 1
 27.990234375 772.00390625 l 1x2f
399.859375 490.0546875 m 0
 449.514648438 490.0546875 489.828125 449.733398438 489.828125 400.0703125 c 0
 489.828125 350.407226562 449.514648438 310.0859375 399.859375 310.0859375 c 0
 350.204101562 310.0859375 309.890625 350.407226562 309.890625 400.0703125 c 0
 309.890625 449.733398438 350.204101562 490.0546875 399.859375 490.0546875 c 0
EndSplineSet
Validated: 33
EndChar

StartChar: two
Encoding: 50 50 60
Width: 1000
HStem: 0.140625 179.969<340.995 458.724> 0.140625 27.9961<28.2127 334.928 464.789 771.729> 620.031 179.969<340.995 458.724> 772.004 27.9961<27.9902 334.926>
VStem: 0 27.9902<28.1367 772.004> 309.891 179.938<32.0142 148.999 651.141 768.119> 771.729 27.9902<28.1367 772.004>
CounterMasks: 1 0e
LayerCount: 2
Fore
SplineSet
0 800 m 1x5e
 399.859375 800 l 1x2e
 799.71875 800 l 1
 799.71875 0.140625 l 1x5e
 399.859375 0.140625 l 1x8e
 0 0.140625 l 1
 0 800 l 1x5e
27.990234375 772.00390625 m 1x1e
 27.990234375 28.13671875 l 1
 27.990234375 28.13671875 334.930664062 28.1650390625 334.927734375 28.13671875 c 1x5e
 319.486328125 44.23828125 309.970703125 66.0927734375 309.890625 90.125 c 0
 309.890625 139.788085938 350.204101562 180.109375 399.859375 180.109375 c 0x8e
 449.514648438 180.109375 489.828125 139.788085938 489.828125 90.125 c 0
 489.748046875 66.0927734375 480.23046875 44.23828125 464.7890625 28.13671875 c 1
 771.728515625 28.13671875 l 1
 771.728515625 772.00390625 l 1
 771.728515625 772.00390625 465.036132812 771.978515625 465.037109375 772.00390625 c 1x5e
 480.387695312 755.868164062 489.817382812 734.022460938 489.828125 710.015625 c 0
 489.828125 660.352539062 449.514648438 620.03125 399.859375 620.03125 c 0x2e
 350.204101562 620.03125 309.890625 660.352539062 309.890625 710.015625 c 0
 309.969726562 734.047851562 319.485351562 755.901367188 334.92578125 772.00390625 c 1
 27.990234375 772.00390625 l 1x1e
EndSplineSet
Validated: 33
EndChar

StartChar: one
Encoding: 49 49 61
Width: 1000
HStem: 0.140625 27.9961<27.9902 771.729> 620.031 179.969<340.995 458.724> 772.004 27.9961<27.9902 334.926>
VStem: 0 27.9902<28.1367 772.004> 309.891 179.938<651.141 768.119> 771.729 27.9902<28.1367 772.004>
CounterMasks: 1 1c
LayerCount: 2
Fore
SplineSet
0 800 m 1xbc
 399.859375 800 l 1xdc
 799.71875 800 l 1
 799.71875 0.140625 l 1
 0 0.140625 l 1
 0 800 l 1xbc
27.990234375 772.00390625 m 1xbc
 27.990234375 28.13671875 l 1
 771.728515625 28.13671875 l 1
 771.728515625 772.00390625 l 1
 771.728515625 772.00390625 465.036132812 771.978515625 465.037109375 772.00390625 c 1xbc
 480.387695312 755.868164062 489.817382812 734.022460938 489.828125 710.015625 c 0
 489.828125 660.352539062 449.514648438 620.03125 399.859375 620.03125 c 0xdc
 350.204101562 620.03125 309.890625 660.352539062 309.890625 710.015625 c 0
 309.969726562 734.047851562 319.485351562 755.901367188 334.92578125 772.00390625 c 1
 27.990234375 772.00390625 l 1xbc
EndSplineSet
Validated: 33
EndChar

StartChar: exclam
Encoding: 33 33 62
Width: 1000
HStem: 0.140625 27.9961<28.2127 334.928 464.789 771.729> 772.004 27.9961<27.9902 375.867 423.85 771.729>
VStem: 0 27.9902<28.1367 772.004> 309.891 179.938<32.0142 147.771> 375.867 47.9824<167.575 399.136 399.297 772.004> 771.729 27.9902<28.1367 772.004>
LayerCount: 2
Fore
SplineSet
0 800 m 1xec
 375.8671875 800 l 1
 423.849609375 800 l 1
 799.71875 800 l 1
 799.71875 0.140625 l 1
 423.794921875 0.140625 l 1
 375.8125 0.140625 l 1
 0 0.140625 l 1
 0 800 l 1xec
27.990234375 772.00390625 m 1
 27.990234375 28.13671875 l 1
 27.990234375 28.13671875 334.930664062 28.1650390625 334.927734375 28.13671875 c 1
 319.486328125 44.23828125 309.970703125 66.0927734375 309.890625 90.125 c 0xf4
 309.930664062 131.413085938 337.85546875 166.217773438 375.8125 176.748046875 c 1
 375.8125 400.0703125 l 1
 375.8671875 400.0703125 l 1
 375.8671875 772.00390625 l 1
 27.990234375 772.00390625 l 1
423.849609375 772.00390625 m 1xec
 423.849609375 772.00390625 423.849609375 400.075195312 423.849609375 400.0703125 c 0xec
 423.834960938 399.809570312 423.817382812 399.555664062 423.794921875 399.296875 c 2
 423.794921875 399.296875 423.817382812 176.849609375 423.794921875 176.837890625 c 1
 461.827148438 166.33984375 489.815429688 131.479492188 489.828125 90.125 c 0xf4
 489.748046875 66.0927734375 480.23046875 44.23828125 464.7890625 28.13671875 c 1
 771.728515625 28.13671875 l 1
 771.728515625 772.00390625 l 1
 423.849609375 772.00390625 l 1xec
EndSplineSet
Validated: 33
EndChar

StartChar: quotedbl
Encoding: 34 34 63
Width: 1000
HStem: 0.140625 27.9961<27.9902 771.729> 620.031 179.969<666.182 767.852> 772.004 27.9961<27.9902 334.926 465.037 644.816>
VStem: 0 27.9902<28.1367 772.004> 309.891 179.938<652.349 768.119> 375.867 47.9824<457.988 632.645> 619.781 179.938<666.42 768.126> 771.729 27.9902<28.5839 645.072>
LayerCount: 2
Fore
SplineSet
0 800 m 1xb1
 375.8671875 800 l 1
 423.849609375 800 l 1xb5
 709.75 800 l 1
 765.80859375 800 l 1xd5
 799.71875 800 l 1xb5
 799.71875 766.052734375 l 1
 799.71875 710.015625 l 1xb2
 799.71875 0.140625 l 1
 0 0.140625 l 1
 0 800 l 1xb1
27.990234375 772.00390625 m 1
 27.990234375 28.13671875 l 1
 771.728515625 28.13671875 l 1
 771.728515625 28.13671875 771.700195312 645.075195312 771.728515625 645.072265625 c 1
 755.62890625 629.62890625 733.778320312 620.110351562 709.75 620.03125 c 0
 693.724609375 620.111328125 678.580078125 624.447265625 665.5703125 631.880859375 c 1
 582.65234375 548.948242188 499.732421875 466.014648438 416.814453125 383.08203125 c 1
 416.814453125 383.08203125 416.770507812 383.130859375 416.767578125 383.12890625 c 0
 416.432617188 382.891601562 416.09375 382.6640625 415.74609375 382.443359375 c 0
 414.120117188 380.995117188 412.307617188 379.775390625 410.33203125 378.80859375 c 0
 409.681640625 378.4375 409.006835938 378.092773438 408.3203125 377.783203125 c 0
 405.702148438 376.737304688 402.8359375 376.12890625 399.859375 376.07421875 c 0
 396.913085938 376.125 394.075195312 376.71875 391.478515625 377.7421875 c 0
 390.666992188 378.100585938 389.872070312 378.505859375 389.111328125 378.94921875 c 0
 387.315429688 379.849609375 385.658203125 380.958984375 384.154296875 382.26171875 c 0
 383.405273438 382.922851562 382.713867188 383.614257812 382.052734375 384.36328125 c 0
 380.749023438 385.868164062 379.638671875 387.526367188 378.73828125 389.32421875 c 0
 378.296875 390.083984375 377.892578125 390.877929688 377.53515625 391.6875 c 0
 376.51171875 394.28515625 375.91796875 397.123046875 375.8671875 400.0703125 c 2
 375.8671875 400.0703125 375.844726562 623.37109375 375.8671875 623.380859375 c 1xd5
 337.883789062 633.892578125 309.932617188 668.708984375 309.890625 710.015625 c 0xd8
 309.969726562 734.047851562 319.485351562 755.901367188 334.92578125 772.00390625 c 1
 27.990234375 772.00390625 l 1
465.037109375 772.00390625 m 1xb6
 480.387695312 755.868164062 489.817382812 734.022460938 489.828125 710.015625 c 0xba
 489.786132812 668.708984375 461.833984375 633.891601562 423.849609375 623.380859375 c 1
 423.849609375 457.98828125 l 1
 493.112304688 527.26171875 562.375976562 596.53515625 631.638671875 665.80859375 c 1
 624.200195312 678.825195312 619.860351562 693.979492188 619.78125 710.015625 c 0
 619.860351562 734.047851562 629.375976562 755.901367188 644.81640625 772.00390625 c 1
 465.037109375 772.00390625 l 1xb6
EndSplineSet
Validated: 33
EndChar

StartChar: quotesingle
Encoding: 39 39 64
Width: 1000
HStem: 0.140625 27.9961<27.9902 771.729> 620.031 179.969<666.182 767.852> 772.004 27.9961<27.9902 644.816>
VStem: 0 27.9902<28.1367 772.004> 619.781 179.938<666.422 768.126> 771.729 27.9902<28.5839 645.072>
LayerCount: 2
Fore
SplineSet
0 800 m 1xb4
 709.75 800 l 1
 765.80859375 800 l 1xd4
 799.71875 800 l 1xb4
 799.71875 766.052734375 l 1
 799.71875 710.015625 l 1xb8
 799.71875 0.140625 l 1
 0 0.140625 l 1
 0 800 l 1xb4
27.990234375 772.00390625 m 1xb8
 27.990234375 28.13671875 l 1
 771.728515625 28.13671875 l 1
 771.728515625 28.13671875 771.700195312 645.075195312 771.728515625 645.072265625 c 1
 755.62890625 629.62890625 733.778320312 620.110351562 709.75 620.03125 c 0xd4
 693.724609375 620.111328125 678.580078125 624.447265625 665.5703125 631.880859375 c 1
 582.651367188 548.948242188 499.732421875 466.014648438 416.814453125 383.08203125 c 1
 416.814453125 383.08203125 416.762695312 383.1328125 416.767578125 383.12890625 c 1
 412.44140625 378.788085938 406.459960938 376.096679688 399.859375 376.07421875 c 0
 386.618164062 376.07421875 375.8671875 386.826171875 375.8671875 400.0703125 c 0
 375.889648438 406.672851562 378.580078125 412.655273438 382.919921875 416.982421875 c 0
 382.908203125 416.994140625 382.900390625 417.009765625 382.888671875 417.021484375 c 0
 465.8046875 499.951171875 548.721679688 582.880859375 631.638671875 665.810546875 c 1
 624.200195312 678.827148438 619.861328125 693.98046875 619.78125 710.015625 c 0
 619.860351562 734.047851562 629.375976562 755.901367188 644.81640625 772.00390625 c 1
 27.990234375 772.00390625 l 1xb8
EndSplineSet
Validated: 33
EndChar

StartChar: numbersign
Encoding: 35 35 65
Width: 1000
HStem: 0.140625 27.9961<61.9883 737.857> 310.086 179.969<356.424 443.526> 772.004 27.9961<62.0645 737.949>
VStem: 0.132812 27.9902<62.1387 738.082> 310.023 179.938<356.533 443.662> 771.861 27.9902<62.0039 738.059>
CounterMasks: 1 fc
LayerCount: 2
Fore
SplineSet
0.1328125 800 m 1
 34.07421875 800 l 1
 765.94140625 800 l 1
 799.8515625 800 l 1
 799.8515625 766.052734375 l 1
 799.8515625 27.0234375 l 2
 800.08203125 22.4677734375 799.96875 17.7685546875 799.8515625 13.068359375 c 2
 799.8515625 0.140625 l 1
 765.84765625 0.140625 l 1
 27.009765625 0.140625 l 2
 22.455078125 -0.08984375 17.7578125 0.0234375 13.05859375 0.140625 c 2
 0.1328125 0.140625 l 1
 0.1328125 34.142578125 l 1
 0.1328125 773.099609375 l 2
 -0.0966796875 777.65625 0.0166015625 782.353515625 0.1328125 787.052734375 c 2
 0.1328125 800 l 1
62.064453125 772.00390625 m 1
 159.98046875 674.0703125 257.896484375 576.137695312 355.8125 478.205078125 c 1
 368.822265625 485.638671875 383.966796875 489.974609375 399.9921875 490.0546875 c 0
 416.0703125 490.044921875 431.263671875 485.75 444.328125 478.337890625 c 1
 542.201171875 576.2265625 640.076171875 674.115234375 737.94921875 772.00390625 c 1
 62.064453125 772.00390625 l 1
28.123046875 738.08203125 m 1
 28.123046875 62.138671875 l 1
 126.03125 160.06640625 223.94140625 257.994140625 321.849609375 355.921875 c 1
 314.430664062 368.924804688 310.103515625 384.05859375 310.0234375 400.0703125 c 0
 310.102539062 416.104492188 314.44140625 431.2578125 321.87890625 444.2734375 c 1
 28.123046875 738.08203125 l 1
771.861328125 738.05859375 m 1
 673.9921875 640.172851562 576.123046875 542.286132812 478.25390625 444.400390625 c 1
 485.66015625 431.336914062 489.951171875 416.145507812 489.9609375 400.0703125 c 0
 489.881835938 384.020507812 485.53515625 368.853515625 478.083984375 355.828125 c 1
 576.009765625 257.88671875 673.935546875 159.9453125 771.861328125 62.00390625 c 1
 771.861328125 738.05859375 l 1
355.76171875 321.962890625 m 1
 257.836914062 224.021484375 159.913085938 126.078125 61.98828125 28.13671875 c 1
 737.857421875 28.13671875 l 1
 639.951171875 126.0625 542.04296875 223.990234375 444.13671875 321.916015625 c 1
 431.134765625 314.494140625 416.002929688 310.166015625 399.9921875 310.0859375 c 0
 383.946289062 310.165039062 368.783203125 314.51171875 355.76171875 321.962890625 c 1
EndSplineSet
Validated: 5
EndChar

StartChar: dollar
Encoding: 36 36 66
Width: 1000
HStem: 0.140625 27.9961<61.8555 737.725> 620.031 179.969<340.995 458.724> 772.004 27.9961<27.9902 334.926>
VStem: 0 27.9902<62.1387 772.004> 309.891 179.938<651.141 768.119> 771.729 27.9902<62.0039 772.004>
CounterMasks: 1 1c
LayerCount: 2
Fore
SplineSet
0 800 m 1xbc
 399.859375 800 l 1xdc
 799.71875 800 l 1
 799.71875 27.0234375 l 2
 799.94921875 22.4677734375 799.8359375 17.7685546875 799.71875 13.068359375 c 2
 799.71875 0.140625 l 1
 765.71484375 0.140625 l 1
 26.876953125 0.140625 l 2
 22.322265625 -0.08984375 17.625 0.0234375 12.92578125 0.140625 c 2
 0 0.140625 l 1
 0 34.142578125 l 1
 0 800 l 1xbc
27.990234375 772.00390625 m 1xbc
 27.990234375 62.138671875 l 1
 146.274414062 180.4453125 264.557617188 298.75390625 382.841796875 417.060546875 c 1
 382.841796875 417.060546875 382.885742188 417.015625 382.8828125 417.01953125 c 0
 387.225585938 421.373046875 393.231445312 424.064453125 399.859375 424.06640625 c 0
 403.235351562 424.040039062 406.46875 423.302734375 409.376953125 422.015625 c 0
 410.274414062 421.49609375 411.129882812 420.924804688 411.94921875 420.296875 c 0
 413.911132812 419.231445312 415.6875 417.916992188 417.271484375 416.369140625 c 0
 417.462890625 416.231445312 417.650390625 416.09375 417.837890625 415.951171875 c 0
 535.801757812 297.96875 653.764648438 179.986328125 771.728515625 62.00390625 c 1
 771.728515625 772.00390625 l 1
 771.728515625 772.00390625 465.036132812 771.978515625 465.037109375 772.00390625 c 1xbc
 480.387695312 755.868164062 489.817382812 734.022460938 489.828125 710.015625 c 0
 489.828125 660.352539062 449.514648438 620.03125 399.859375 620.03125 c 0xdc
 350.204101562 620.03125 309.890625 660.352539062 309.890625 710.015625 c 0
 309.969726562 734.047851562 319.485351562 755.901367188 334.92578125 772.00390625 c 1
 27.990234375 772.00390625 l 1xbc
399.79296875 366.134765625 m 1
 287.146484375 253.46875 174.501953125 140.802734375 61.85546875 28.13671875 c 1
 737.724609375 28.13671875 l 1
 625.081054688 140.802734375 512.436523438 253.469726562 399.79296875 366.134765625 c 1
EndSplineSet
Validated: 33
EndChar

StartChar: percent
Encoding: 37 37 67
Width: 1000
HStem: 0.140625 179.969<650.886 768.638> 0.140625 27.9961<62.278 644.818> 620.031 179.969<31.8672 148.833> 772.004 27.9961<155.146 737.816>
VStem: 0 179.938<651.141 768.912> 0 27.9902<62.1387 645.072> 619.781 179.938<32.0142 148.999> 771.729 27.9902<155.314 738.059>
LayerCount: 2
Fore
SplineSet
0 800 m 1x54
 89.96875 800 l 1x24
 765.80859375 800 l 1
 799.71875 800 l 1
 799.71875 766.052734375 l 1x15
 799.71875 90.125 l 1x12
 799.71875 0.140625 l 1x51
 709.75 0.140625 l 1x81
 26.876953125 0.140625 l 2
 22.322265625 -0.08984375 17.625 0.0234375 12.92578125 0.140625 c 2
 0 0.140625 l 1
 0 34.142578125 l 1x45
 0 710.015625 l 1x48
 0 800 l 1x54
155.146484375 772.00390625 m 1x14
 170.497070312 755.868164062 179.926757812 734.022460938 179.9375 710.015625 c 0
 179.9375 660.352539062 139.624023438 620.03125 89.96875 620.03125 c 0x28
 65.9404296875 620.110351562 44.08984375 629.62890625 27.990234375 645.072265625 c 1
 27.990234375 62.138671875 l 1
 146.274414062 180.4453125 264.557617188 298.75390625 382.841796875 417.060546875 c 1
 382.919921875 416.982421875 l 1
 382.908203125 416.994140625 382.900390625 417.009765625 382.888671875 417.021484375 c 0
 501.197265625 535.349609375 619.5078125 653.676757812 737.81640625 772.00390625 c 1
 155.146484375 772.00390625 l 1x14
771.728515625 738.05859375 m 1x81
 653.423828125 619.733398438 535.119140625 501.407226562 416.814453125 383.08203125 c 1
 416.775390625 383.12109375 l 1
 298.467773438 264.79296875 180.162109375 146.46484375 61.85546875 28.13671875 c 1
 61.85546875 28.13671875 644.821289062 28.1650390625 644.818359375 28.13671875 c 1
 629.376953125 44.23828125 619.861328125 66.0927734375 619.78125 90.125 c 0x42
 619.78125 139.788085938 660.094726562 180.109375 709.75 180.109375 c 0
 733.752929688 180.098632812 755.595703125 170.66796875 771.728515625 155.314453125 c 1
 771.728515625 738.05859375 l 1x81
EndSplineSet
Validated: 33
EndChar

StartChar: ampersand
Encoding: 38 38 68
Width: 1000
HStem: 0.140625 179.969<32 133.773> 0.140625 27.9961<155.031 771.861> 310.086 179.969<652.239 767.977> 376.043 47.9922<410.129 632.516> 620.031 179.969<32 133.685> 772.004 27.9961<155.279 771.861>
VStem: 0.132812 179.938<32.0142 133.889 666.44 768.912> 0.132812 27.9902<155.068 644.717> 771.861 27.9902<28.3592 335.129 465.26 772.004>
LayerCount: 2
Fore
SplineSet
0.1328125 800 m 1x4580
 34.07421875 800 l 1
 90.1015625 800 l 1x0980
 799.8515625 800 l 1
 799.8515625 424.03515625 l 1
 799.8515625 376.04296875 l 1
 799.8515625 0.140625 l 1x5580
 90.1015625 0.140625 l 1x8180
 27.009765625 0.140625 l 2
 22.455078125 -0.08984375 17.7578125 0.0234375 13.05859375 0.140625 c 2
 0.1328125 0.140625 l 1x4180
 0.1328125 34.142578125 l 1
 0.1328125 90.125 l 1
 0.1328125 710.015625 l 1x4280
 0.1328125 773.099609375 l 2
 -0.0966796875 777.65625 0.0166015625 782.353515625 0.1328125 787.052734375 c 2
 0.1328125 800 l 1x4580
155.279296875 772.00390625 m 1x2680
 170.629882812 755.868164062 180.059570312 734.022460938 180.0703125 710.015625 c 0
 179.990234375 693.98828125 175.655273438 678.840820312 168.22265625 665.828125 c 1
 248.806640625 585.23046875 329.390625 504.6328125 409.974609375 424.03515625 c 1
 409.974609375 424.03515625 623.248046875 424.057617188 623.2578125 424.03515625 c 1x1680
 633.756835938 462.040039062 668.573242188 490.01171875 709.8828125 490.0546875 c 0
 733.885742188 490.043945312 755.728515625 480.61328125 771.861328125 465.259765625 c 1
 771.861328125 772.00390625 l 1
 155.279296875 772.00390625 l 1x2680
28.123046875 645.072265625 m 1x8980
 28.123046875 645.072265625 28.1513671875 155.065429688 28.123046875 155.068359375 c 1
 44.22265625 170.51171875 66.0732421875 180.030273438 90.1015625 180.109375 c 0
 106.158203125 180.099609375 121.333984375 175.81640625 134.38671875 168.421875 c 1
 211.6015625 245.65234375 288.81640625 322.883789062 366.03125 400.11328125 c 1
 366.03125 400.11328125 134.192382812 631.831054688 134.296875 631.888671875 c 1
 121.283203125 624.450195312 106.1328125 620.110351562 90.1015625 620.03125 c 0
 66.0732421875 620.110351562 44.22265625 629.62890625 28.123046875 645.072265625 c 1x8980
409.83203125 376.04296875 m 1x1280
 329.333007812 295.530273438 248.833984375 215.016601562 168.3359375 134.50390625 c 1
 175.758789062 121.4296875 180.060546875 106.219726562 180.0703125 90.125 c 0
 179.990234375 66.0927734375 170.47265625 44.23828125 155.03125 28.13671875 c 1
 771.861328125 28.13671875 l 1
 771.861328125 28.13671875 771.833007812 335.131835938 771.861328125 335.12890625 c 1
 755.76171875 319.684570312 733.911132812 310.166015625 709.8828125 310.0859375 c 0x6280
 668.594726562 310.126953125 633.791015625 338.068359375 623.271484375 376.04296875 c 1
 409.83203125 376.04296875 l 1x1280
EndSplineSet
Validated: 33
EndChar

StartChar: parenleft
Encoding: 40 40 69
Width: 1000
HStem: 0.140625 27.9961<27.9902 737.725> 772.004 27.9961<27.9902 737.816>
VStem: 0 27.9902<28.1367 772.004> 771.729 27.9902<62.0039 738.059>
LayerCount: 2
Fore
SplineSet
0 800 m 1
 765.80859375 800 l 1
 799.71875 800 l 1
 799.71875 766.052734375 l 1
 799.71875 27.0234375 l 2
 799.94921875 22.4677734375 799.8359375 17.7685546875 799.71875 13.068359375 c 2
 799.71875 0.140625 l 1
 765.71484375 0.140625 l 1
 0 0.140625 l 1
 0 800 l 1
27.990234375 772.00390625 m 1
 27.990234375 28.13671875 l 1
 737.724609375 28.13671875 l 1
 619.43359375 146.451171875 501.140625 264.767578125 382.849609375 383.08203125 c 0
 382.861328125 383.09375 382.874023438 383.104492188 382.88671875 383.115234375 c 1
 378.549804688 387.45703125 375.868164062 393.454101562 375.8671875 400.0703125 c 0
 375.870117188 406.706054688 378.568359375 412.71875 382.9296875 417.0625 c 0
 501.224609375 535.376953125 619.521484375 653.690429688 737.81640625 772.00390625 c 1
 27.990234375 772.00390625 l 1
771.728515625 738.05859375 m 1
 659.072265625 625.381835938 546.4140625 512.706054688 433.7578125 400.029296875 c 1
 546.415039062 287.354492188 659.071289062 174.678710938 771.728515625 62.00390625 c 1
 771.728515625 738.05859375 l 1
EndSplineSet
Validated: 1
EndChar

StartChar: bracketleft
Encoding: 91 91 70
Width: 1000
HStem: 0.140625 27.9961<27.9902 737.725> 310.086 179.969<650.886 767.845> 772.004 27.9961<27.9902 737.816>
VStem: 0 27.9902<28.1367 772.004> 619.781 179.938<341.196 458.945> 771.729 27.9902<62.0039 335.129 465.26 738.059>
CounterMasks: 1 e0
LayerCount: 2
Fore
SplineSet
0 800 m 1xf4
 765.80859375 800 l 1
 799.71875 800 l 1
 799.71875 766.052734375 l 1xf4
 799.71875 400.0703125 l 1xf8
 799.71875 27.0234375 l 2
 799.94921875 22.4677734375 799.8359375 17.7685546875 799.71875 13.068359375 c 2
 799.71875 0.140625 l 1
 765.71484375 0.140625 l 1
 0 0.140625 l 1
 0 800 l 1xf4
27.990234375 772.00390625 m 1
 27.990234375 28.13671875 l 1
 737.724609375 28.13671875 l 1
 619.43359375 146.451171875 501.140625 264.767578125 382.849609375 383.08203125 c 0
 382.861328125 383.09375 382.874023438 383.104492188 382.88671875 383.115234375 c 1
 378.549804688 387.45703125 375.868164062 393.454101562 375.8671875 400.0703125 c 0
 375.870117188 406.706054688 378.568359375 412.71875 382.9296875 417.0625 c 0
 501.224609375 535.376953125 619.521484375 653.690429688 737.81640625 772.00390625 c 1
 27.990234375 772.00390625 l 1
771.728515625 738.05859375 m 1
 659.072265625 625.381835938 546.4140625 512.706054688 433.7578125 400.029296875 c 1
 546.415039062 287.354492188 659.071289062 174.678710938 771.728515625 62.00390625 c 1
 771.728515625 62.00390625 771.700195312 335.131835938 771.728515625 335.12890625 c 1xf4
 755.62890625 319.684570312 733.778320312 310.166015625 709.75 310.0859375 c 0
 660.094726562 310.0859375 619.78125 350.407226562 619.78125 400.0703125 c 0xf8
 619.78125 449.733398438 660.094726562 490.0546875 709.75 490.0546875 c 0
 733.752929688 490.043945312 755.595703125 480.61328125 771.728515625 465.259765625 c 1
 771.728515625 738.05859375 l 1
EndSplineSet
Validated: 33
EndChar

StartChar: braceleft
Encoding: 123 123 71
Width: 1000
HStem: 0.140625 27.9961<27.9902 737.725> 310.086 179.969<31.8672 148.833> 772.004 27.9961<27.9902 737.816>
VStem: 0 179.938<341.196 458.945> 0 27.9902<28.1367 335.127 465.014 771.781> 771.729 27.9902<62.0039 738.059>
CounterMasks: 1 e0
LayerCount: 2
Fore
SplineSet
0 800 m 1xec
 765.80859375 800 l 1
 799.71875 800 l 1
 799.71875 766.052734375 l 1
 799.71875 27.0234375 l 2
 799.94921875 22.4677734375 799.8359375 17.7685546875 799.71875 13.068359375 c 2
 799.71875 0.140625 l 1
 765.71484375 0.140625 l 1
 0 0.140625 l 1xec
 0 400.0703125 l 1xf4
 0 800 l 1xec
27.990234375 772.00390625 m 1
 27.990234375 772.00390625 28.0185546875 465.010742188 27.990234375 465.013671875 c 1xec
 44.08984375 480.45703125 65.9404296875 489.975585938 89.96875 490.0546875 c 0
 139.624023438 490.0546875 179.9375 449.733398438 179.9375 400.0703125 c 0xf4
 179.9375 350.407226562 139.624023438 310.0859375 89.96875 310.0859375 c 0
 65.9404296875 310.165039062 44.08984375 319.68359375 27.990234375 335.126953125 c 1
 27.990234375 28.13671875 l 1
 737.724609375 28.13671875 l 1
 619.43359375 146.451171875 501.140625 264.767578125 382.849609375 383.08203125 c 0
 382.861328125 383.09375 382.874023438 383.104492188 382.88671875 383.115234375 c 1
 378.549804688 387.45703125 375.868164062 393.454101562 375.8671875 400.0703125 c 0
 375.870117188 406.706054688 378.568359375 412.71875 382.9296875 417.0625 c 0
 501.224609375 535.376953125 619.521484375 653.690429688 737.81640625 772.00390625 c 1
 27.990234375 772.00390625 l 1
771.728515625 738.05859375 m 1
 659.072265625 625.381835938 546.4140625 512.706054688 433.7578125 400.029296875 c 1
 546.415039062 287.354492188 659.071289062 174.678710938 771.728515625 62.00390625 c 1
 771.728515625 738.05859375 l 1
EndSplineSet
Validated: 33
EndChar

StartChar: parenright
Encoding: 41 41 72
Width: 1000
HStem: 0.140625 27.9961<61.9883 771.861> 772.004 27.9961<62.0664 771.861>
VStem: 0.132812 27.9902<62.1387 738.082> 771.861 27.9902<28.1367 772.004>
LayerCount: 2
Fore
SplineSet
0.1328125 800 m 1
 34.07421875 800 l 1
 799.8515625 800 l 1
 799.8515625 0.140625 l 1
 27.009765625 0.140625 l 2
 22.455078125 -0.08984375 17.7578125 0.0234375 13.05859375 0.140625 c 2
 0.1328125 0.140625 l 1
 0.1328125 34.142578125 l 1
 0.1328125 773.099609375 l 2
 -0.0966796875 777.65625 0.0166015625 782.353515625 0.1328125 787.052734375 c 2
 0.1328125 800 l 1
62.06640625 772.00390625 m 1
 180.360351562 653.689453125 298.653320312 535.375 416.947265625 417.060546875 c 1
 416.939453125 417.052734375 l 1
 416.940429688 417.051757812 416.940429688 417.049804688 416.94140625 417.048828125 c 0
 418.55078125 415.284179688 419.889648438 413.291015625 420.919921875 411.10546875 c 0
 421.360351562 410.508789062 421.76953125 409.895507812 422.154296875 409.2578125 c 0
 423.325195312 406.431640625 423.982421875 403.318359375 423.982421875 400.0703125 c 0
 423.96484375 393.373046875 421.203125 387.314453125 416.7578125 382.970703125 c 0
 298.500976562 264.692382812 180.245117188 146.4140625 61.98828125 28.13671875 c 1
 771.861328125 28.13671875 l 1
 771.861328125 772.00390625 l 1
 62.06640625 772.00390625 l 1
28.123046875 738.08203125 m 1
 28.123046875 62.138671875 l 1
 140.758789062 174.795898438 253.395507812 287.456054688 366.03125 400.11328125 c 1
 28.123046875 738.08203125 l 1
EndSplineSet
Validated: 1
EndChar

StartChar: less
Encoding: 60 60 73
Width: 1000
HStem: 0.140625 27.9961<27.9902 737.725> 310.086 179.969<340.995 443.393> 772.004 27.9961<27.9902 737.816>
VStem: 0 27.9902<28.1367 772.004> 309.891 179.938<356.44 443.786> 771.729 27.9902<62.0039 738.059>
CounterMasks: 1 fc
LayerCount: 2
Fore
SplineSet
0 800 m 1
 765.80859375 800 l 1
 799.71875 800 l 1
 799.71875 766.052734375 l 1
 799.71875 27.0234375 l 2
 799.94921875 22.4677734375 799.8359375 17.7685546875 799.71875 13.068359375 c 2
 799.71875 0.140625 l 1
 765.71484375 0.140625 l 1
 0 0.140625 l 1
 0 800 l 1
27.990234375 772.00390625 m 1
 27.990234375 28.13671875 l 1
 737.724609375 28.13671875 l 1
 639.818359375 126.0625 541.91015625 223.990234375 444.00390625 321.916015625 c 1
 431.001953125 314.494140625 415.870117188 310.166015625 399.859375 310.0859375 c 0
 350.204101562 310.0859375 309.890625 350.407226562 309.890625 400.0703125 c 0
 309.890625 449.733398438 350.204101562 490.0546875 399.859375 490.0546875 c 0
 415.9375 490.044921875 431.130859375 485.75 444.1953125 478.337890625 c 1
 542.068359375 576.2265625 639.943359375 674.115234375 737.81640625 772.00390625 c 1
 27.990234375 772.00390625 l 1
771.728515625 738.05859375 m 1
 673.859375 640.172851562 575.990234375 542.286132812 478.12109375 444.400390625 c 1
 485.52734375 431.336914062 489.818359375 416.145507812 489.828125 400.0703125 c 0
 489.749023438 384.020507812 485.40234375 368.853515625 477.951171875 355.828125 c 1
 575.876953125 257.88671875 673.802734375 159.9453125 771.728515625 62.00390625 c 1
 771.728515625 738.05859375 l 1
EndSplineSet
Validated: 1
EndChar

StartChar: greater
Encoding: 62 62 74
Width: 1000
HStem: 0.140625 27.9961<61.9883 771.861> 310.086 179.969<356.424 458.856> 772.004 27.9961<62.0664 771.861>
VStem: 0.132812 27.9902<62.1387 738.082> 310.023 179.938<356.533 443.662> 771.861 27.9902<28.1367 772.004>
CounterMasks: 1 fc
LayerCount: 2
Fore
SplineSet
0.1328125 800 m 1
 34.07421875 800 l 1
 799.8515625 800 l 1
 799.8515625 0.140625 l 1
 27.009765625 0.140625 l 2
 22.455078125 -0.08984375 17.7578125 0.0234375 13.05859375 0.140625 c 2
 0.1328125 0.140625 l 1
 0.1328125 34.142578125 l 1
 0.1328125 773.099609375 l 2
 -0.0966796875 777.65625 0.0166015625 782.353515625 0.1328125 787.052734375 c 2
 0.1328125 800 l 1
62.06640625 772.00390625 m 1
 159.981445312 674.071289062 257.897460938 576.139648438 355.8125 478.20703125 c 1
 368.822265625 485.639648438 383.966796875 489.975585938 399.9921875 490.0546875 c 0
 449.646484375 490.0546875 489.9609375 449.733398438 489.9609375 400.0703125 c 0
 489.9609375 350.407226562 449.646484375 310.0859375 399.9921875 310.0859375 c 0
 383.946289062 310.165039062 368.783203125 314.51171875 355.76171875 321.962890625 c 1
 257.836914062 224.021484375 159.913085938 126.078125 61.98828125 28.13671875 c 1
 771.861328125 28.13671875 l 1
 771.861328125 772.00390625 l 1
 62.06640625 772.00390625 l 1
28.123046875 738.08203125 m 1
 28.123046875 62.138671875 l 1
 126.03125 160.06640625 223.94140625 257.994140625 321.849609375 355.921875 c 1
 314.430664062 368.924804688 310.103515625 384.05859375 310.0234375 400.0703125 c 0
 310.102539062 416.104492188 314.44140625 431.2578125 321.87890625 444.2734375 c 1
 28.123046875 738.08203125 l 1
EndSplineSet
Validated: 1
EndChar

StartChar: bracketright
Encoding: 93 93 75
Width: 1000
HStem: 0.140625 27.9961<61.9883 771.861> 310.086 179.969<32 148.966> 772.004 27.9961<62.0664 771.861>
VStem: 0.132812 179.938<341.196 458.945> 0.132812 27.9902<62.1387 335.127 465.014 737.884> 771.861 27.9902<28.1367 772.004>
CounterMasks: 1 e0
LayerCount: 2
Fore
SplineSet
0.1328125 800 m 1xec
 34.07421875 800 l 1
 799.8515625 800 l 1
 799.8515625 0.140625 l 1
 27.009765625 0.140625 l 2
 22.455078125 -0.08984375 17.7578125 0.0234375 13.05859375 0.140625 c 2
 0.1328125 0.140625 l 1
 0.1328125 34.142578125 l 1xec
 0.1328125 400.0703125 l 1xf4
 0.1328125 773.099609375 l 2
 -0.0966796875 777.65625 0.0166015625 782.353515625 0.1328125 787.052734375 c 2
 0.1328125 800 l 1xec
62.06640625 772.00390625 m 1
 180.360351562 653.689453125 298.653320312 535.375 416.947265625 417.060546875 c 1
 416.939453125 417.052734375 l 1
 416.940429688 417.051757812 416.940429688 417.049804688 416.94140625 417.048828125 c 0
 418.55078125 415.284179688 419.889648438 413.291015625 420.919921875 411.10546875 c 0
 421.360351562 410.508789062 421.76953125 409.895507812 422.154296875 409.2578125 c 0
 423.325195312 406.431640625 423.982421875 403.318359375 423.982421875 400.0703125 c 0
 423.96484375 393.373046875 421.203125 387.314453125 416.7578125 382.970703125 c 0
 298.500976562 264.692382812 180.245117188 146.4140625 61.98828125 28.13671875 c 1
 771.861328125 28.13671875 l 1
 771.861328125 772.00390625 l 1
 62.06640625 772.00390625 l 1
28.123046875 738.08203125 m 1
 28.123046875 738.08203125 28.1513671875 465.010742188 28.123046875 465.013671875 c 1xec
 44.22265625 480.45703125 66.0732421875 489.975585938 90.1015625 490.0546875 c 0
 139.755859375 490.0546875 180.0703125 449.733398438 180.0703125 400.0703125 c 0xf4
 180.0703125 350.407226562 139.755859375 310.0859375 90.1015625 310.0859375 c 0
 66.0732421875 310.165039062 44.22265625 319.68359375 28.123046875 335.126953125 c 1
 28.123046875 62.138671875 l 1
 140.758789062 174.795898438 253.395507812 287.456054688 366.03125 400.11328125 c 1
 28.123046875 738.08203125 l 1
EndSplineSet
Validated: 33
EndChar

StartChar: braceright
Encoding: 125 125 76
Width: 1000
HStem: 0.140625 27.9961<61.9883 771.861> 310.086 179.969<651.018 767.977> 772.004 27.9961<62.0664 771.861>
VStem: 0.132812 27.9902<62.1387 738.082> 619.914 179.938<341.196 458.945> 771.861 27.9902<28.3592 335.129 465.26 772.004>
CounterMasks: 1 e0
LayerCount: 2
Fore
SplineSet
0.1328125 800 m 1xf4
 34.07421875 800 l 1
 799.8515625 800 l 1xf4
 799.8515625 400.0703125 l 1xf8
 799.8515625 0.140625 l 1
 27.009765625 0.140625 l 2
 22.455078125 -0.08984375 17.7578125 0.0234375 13.05859375 0.140625 c 2
 0.1328125 0.140625 l 1
 0.1328125 34.142578125 l 1
 0.1328125 773.099609375 l 2
 -0.0966796875 777.65625 0.0166015625 782.353515625 0.1328125 787.052734375 c 2
 0.1328125 800 l 1xf4
62.06640625 772.00390625 m 1
 180.360351562 653.689453125 298.653320312 535.375 416.947265625 417.060546875 c 1
 416.939453125 417.052734375 l 1
 416.940429688 417.051757812 416.940429688 417.049804688 416.94140625 417.048828125 c 0
 418.55078125 415.284179688 419.889648438 413.291015625 420.919921875 411.10546875 c 0
 421.360351562 410.508789062 421.76953125 409.895507812 422.154296875 409.2578125 c 0
 423.325195312 406.431640625 423.982421875 403.318359375 423.982421875 400.0703125 c 0
 423.96484375 393.373046875 421.203125 387.314453125 416.7578125 382.970703125 c 0
 298.500976562 264.692382812 180.245117188 146.4140625 61.98828125 28.13671875 c 1
 771.861328125 28.13671875 l 1
 771.861328125 28.13671875 771.833007812 335.131835938 771.861328125 335.12890625 c 1xf4
 755.76171875 319.684570312 733.911132812 310.166015625 709.8828125 310.0859375 c 0
 660.227539062 310.0859375 619.9140625 350.407226562 619.9140625 400.0703125 c 0xf8
 619.9140625 449.733398438 660.227539062 490.0546875 709.8828125 490.0546875 c 0
 733.885742188 490.043945312 755.728515625 480.61328125 771.861328125 465.259765625 c 1
 771.861328125 772.00390625 l 1
 62.06640625 772.00390625 l 1
28.123046875 738.08203125 m 1
 28.123046875 62.138671875 l 1
 140.758789062 174.795898438 253.395507812 287.456054688 366.03125 400.11328125 c 1
 28.123046875 738.08203125 l 1
EndSplineSet
Validated: 33
EndChar

StartChar: asterisk
Encoding: 42 42 77
Width: 1000
HStem: 0.140625 27.9961<61.9883 375.945 423.928 737.857> 376.043 47.9922<28.123 342.02 457.893 771.861> 772.004 27.9961<62.0664 376 423.982 737.949>
VStem: 0.132812 27.9902<62.1387 376.098 424.09 738.082> 375.945 47.9824<28.1367 342.129 458.016 772.004> 771.861 27.9902<62.0039 376.043 424.035 738.059>
LayerCount: 2
Fore
SplineSet
0.1328125 800 m 1
 34.07421875 800 l 1
 376 800 l 1
 423.982421875 800 l 1
 765.94140625 800 l 1
 799.8515625 800 l 1
 799.8515625 766.052734375 l 1
 799.8515625 424.03515625 l 1
 799.8515625 376.04296875 l 1
 799.8515625 27.0234375 l 2
 800.08203125 22.4677734375 799.96875 17.7685546875 799.8515625 13.068359375 c 2
 799.8515625 0.140625 l 1
 765.84765625 0.140625 l 1
 423.927734375 0.140625 l 1
 375.9453125 0.140625 l 1
 27.009765625 0.140625 l 2
 22.455078125 -0.08984375 17.7578125 0.0234375 13.05859375 0.140625 c 2
 0.1328125 0.140625 l 1
 0.1328125 34.142578125 l 1
 0.1328125 376.09765625 l 1
 0.1328125 424.08984375 l 1
 0.1328125 773.099609375 l 2
 -0.0966796875 777.65625 0.0166015625 782.353515625 0.1328125 787.052734375 c 2
 0.1328125 800 l 1
62.06640625 772.00390625 m 1
 166.7109375 667.340820312 271.35546875 562.678710938 376 458.015625 c 1
 376 772.00390625 l 1
 62.06640625 772.00390625 l 1
423.982421875 772.00390625 m 1
 423.982421875 457.98828125 l 1
 528.637695312 562.66015625 633.293945312 667.33203125 737.94921875 772.00390625 c 1
 423.982421875 772.00390625 l 1
28.123046875 738.08203125 m 1
 28.123046875 424.08984375 l 1
 342.060546875 424.08984375 l 1
 28.123046875 738.08203125 l 1
771.861328125 738.05859375 m 1
 667.205078125 633.383789062 562.548828125 528.709960938 457.892578125 424.03515625 c 1
 771.861328125 424.03515625 l 1
 771.861328125 738.05859375 l 1
28.123046875 376.09765625 m 1
 28.123046875 62.138671875 l 1
 132.754882812 166.791015625 237.387695312 271.4453125 342.01953125 376.09765625 c 1
 28.123046875 376.09765625 l 1
457.873046875 376.04296875 m 1
 562.536132812 271.36328125 667.198242188 166.68359375 771.861328125 62.00390625 c 1
 771.861328125 376.04296875 l 1
 457.873046875 376.04296875 l 1
375.9453125 342.150390625 m 1
 271.29296875 237.479492188 166.640625 132.807617188 61.98828125 28.13671875 c 1
 375.9453125 28.13671875 l 1
 375.9453125 342.150390625 l 1
423.927734375 342.12890625 m 1
 423.927734375 28.13671875 l 1
 737.857421875 28.13671875 l 1
 633.21484375 132.799804688 528.5703125 237.465820312 423.927734375 342.12890625 c 1
EndSplineSet
Validated: 5
EndChar

StartChar: plus
Encoding: 43 43 78
Width: 1000
HStem: 0.140625 27.9961<27.9902 375.812 423.795 771.729> 376.098 47.9922<27.9902 375.812 423.795 771.729> 772.004 27.9961<27.9902 771.729>
VStem: 0 27.9902<28.1367 376.098 424.09 772.004> 375.812 47.9824<28.1367 376.043> 771.729 27.9902<28.1367 376.043 424.035 772.004>
LayerCount: 2
Fore
SplineSet
0 800 m 1
 799.71875 800 l 1
 799.71875 424.03515625 l 1
 799.71875 376.04296875 l 1
 799.71875 0.140625 l 1
 423.794921875 0.140625 l 1
 375.8125 0.140625 l 1
 0 0.140625 l 1
 0 376.09765625 l 1
 0 424.08984375 l 1
 0 800 l 1
27.990234375 772.00390625 m 1
 27.990234375 424.08984375 l 1
 399.828125 424.08984375 l 1
 399.828125 424.08984375 399.827148438 424.06640625 399.828125 424.06640625 c 0
 399.833007812 424.06640625 399.837890625 424.06640625 399.84375 424.06640625 c 0
 399.848632812 424.06640625 399.854492188 424.06640625 399.859375 424.06640625 c 0
 400.260742188 424.065429688 400.642578125 424.055664062 401.0390625 424.03515625 c 2
 771.728515625 424.03515625 l 1
 771.728515625 772.00390625 l 1
 27.990234375 772.00390625 l 1
27.990234375 376.09765625 m 1
 27.990234375 28.13671875 l 1
 375.8125 28.13671875 l 1
 375.8125 376.09765625 l 1
 27.990234375 376.09765625 l 1
423.794921875 376.04296875 m 1
 423.794921875 28.13671875 l 1
 771.728515625 28.13671875 l 1
 771.728515625 376.04296875 l 1
 423.794921875 376.04296875 l 1
EndSplineSet
Validated: 1
EndChar

StartChar: hyphen
Encoding: 45 45 79
Width: 1000
HStem: 0.140625 27.9961<27.9902 771.729> 376.043 48.0234<375.991 771.729> 772.004 27.9961<27.9902 771.729>
VStem: 0 27.9902<28.1367 772.004> 771.729 27.9902<28.1367 376.043 424.035 772.004>
LayerCount: 2
Fore
SplineSet
0 800 m 1
 799.71875 800 l 1
 799.71875 424.03515625 l 1
 799.71875 376.04296875 l 1
 799.71875 0.140625 l 1
 0 0.140625 l 1
 0 800 l 1
27.990234375 772.00390625 m 1
 27.990234375 28.13671875 l 1
 771.728515625 28.13671875 l 1
 771.728515625 376.04296875 l 1
 399.828125 376.04296875 l 1
 399.828125 376.04296875 399.827148438 376.07421875 399.828125 376.07421875 c 1
 386.6015625 376.090820312 375.8671875 386.836914062 375.8671875 400.0703125 c 0
 375.8671875 413.313476562 386.618164062 424.06640625 399.859375 424.06640625 c 0
 400.260742188 424.065429688 400.642578125 424.055664062 401.0390625 424.03515625 c 2
 771.728515625 424.03515625 l 1
 771.728515625 772.00390625 l 1
 27.990234375 772.00390625 l 1
EndSplineSet
Validated: 1
EndChar

StartChar: comma
Encoding: 44 44 80
Width: 1000
HStem: 0.140625 27.9961<61.8555 771.729> 310.086 179.969<356.241 458.724> 772.004 27.9961<27.9902 771.729>
VStem: 0 27.9902<62.1387 772.004> 309.891 179.938<356.533 458.945> 771.729 27.9902<28.1367 772.004>
CounterMasks: 1 fc
LayerCount: 2
Fore
SplineSet
0 800 m 1
 799.71875 800 l 1
 799.71875 0.140625 l 1
 26.876953125 0.140625 l 2
 22.322265625 -0.08984375 17.625 0.0234375 12.92578125 0.140625 c 2
 0 0.140625 l 1
 0 34.142578125 l 1
 0 800 l 1
27.990234375 772.00390625 m 1
 27.990234375 62.138671875 l 1
 125.8984375 160.06640625 223.80859375 257.994140625 321.716796875 355.921875 c 1
 314.297851562 368.924804688 309.970703125 384.05859375 309.890625 400.0703125 c 0
 309.890625 449.733398438 350.204101562 490.0546875 399.859375 490.0546875 c 0
 449.514648438 490.0546875 489.828125 449.733398438 489.828125 400.0703125 c 0
 489.828125 350.407226562 449.514648438 310.0859375 399.859375 310.0859375 c 0
 383.813476562 310.165039062 368.650390625 314.51171875 355.62890625 321.962890625 c 1
 257.704101562 224.021484375 159.780273438 126.078125 61.85546875 28.13671875 c 1
 771.728515625 28.13671875 l 1
 771.728515625 772.00390625 l 1
 27.990234375 772.00390625 l 1
EndSplineSet
Validated: 1
EndChar

StartChar: period
Encoding: 46 46 81
Width: 1000
HStem: 0.140625 179.969<340.995 458.724> 0.140625 27.9961<28.2127 334.928 464.789 771.729> 772.004 27.9961<27.9902 771.729>
VStem: 0 27.9902<28.1367 772.004> 309.891 179.938<32.0142 148.999> 771.729 27.9902<28.1367 772.004>
CounterMasks: 1 1c
LayerCount: 2
Fore
SplineSet
0 800 m 1x7c
 799.71875 800 l 1
 799.71875 0.140625 l 1x7c
 399.859375 0.140625 l 1xbc
 0 0.140625 l 1
 0 800 l 1x7c
27.990234375 772.00390625 m 1
 27.990234375 28.13671875 l 1
 27.990234375 28.13671875 334.930664062 28.1650390625 334.927734375 28.13671875 c 1x7c
 319.486328125 44.23828125 309.970703125 66.0927734375 309.890625 90.125 c 0
 309.890625 139.788085938 350.204101562 180.109375 399.859375 180.109375 c 0xbc
 449.514648438 180.109375 489.828125 139.788085938 489.828125 90.125 c 0
 489.748046875 66.0927734375 480.23046875 44.23828125 464.7890625 28.13671875 c 1
 771.728515625 28.13671875 l 1
 771.728515625 772.00390625 l 1
 27.990234375 772.00390625 l 1
EndSplineSet
Validated: 33
EndChar

StartChar: slash
Encoding: 47 47 82
Width: 1000
HStem: 0.140625 27.9961<61.8555 771.729> 310.086 179.969<356.241 443.581> 772.004 27.9961<27.9902 737.816>
VStem: 0 27.9902<62.1387 772.004> 309.891 179.938<356.533 443.786> 771.729 27.9902<28.1367 738.059>
CounterMasks: 1 fc
LayerCount: 2
Fore
SplineSet
0 800 m 1
 765.80859375 800 l 1
 799.71875 800 l 1
 799.71875 766.052734375 l 1
 799.71875 0.140625 l 1
 26.876953125 0.140625 l 2
 22.322265625 -0.08984375 17.625 0.0234375 12.92578125 0.140625 c 2
 0 0.140625 l 1
 0 34.142578125 l 1
 0 800 l 1
27.990234375 772.00390625 m 1
 27.990234375 62.138671875 l 1
 125.8984375 160.06640625 223.80859375 257.994140625 321.716796875 355.921875 c 1
 314.297851562 368.924804688 309.970703125 384.05859375 309.890625 400.0703125 c 0
 309.890625 449.733398438 350.204101562 490.0546875 399.859375 490.0546875 c 0
 415.9375 490.044921875 431.130859375 485.75 444.1953125 478.337890625 c 1
 542.068359375 576.2265625 639.943359375 674.115234375 737.81640625 772.00390625 c 1
 27.990234375 772.00390625 l 1
771.728515625 738.05859375 m 1
 673.859375 640.172851562 575.990234375 542.286132812 478.12109375 444.400390625 c 1
 485.52734375 431.336914062 489.818359375 416.145507812 489.828125 400.0703125 c 0
 489.828125 350.407226562 449.514648438 310.0859375 399.859375 310.0859375 c 0
 383.813476562 310.165039062 368.650390625 314.51171875 355.62890625 321.962890625 c 1
 257.704101562 224.021484375 159.780273438 126.078125 61.85546875 28.13671875 c 1
 771.728515625 28.13671875 l 1
 771.728515625 738.05859375 l 1
EndSplineSet
Validated: 1
EndChar

StartChar: semicolon
Encoding: 59 59 83
Width: 1000
HStem: 0.140625 27.9961<61.8555 771.729> 310.086 179.969<356.241 458.724> 620.031 179.969<340.995 458.724> 772.004 27.9961<27.9902 334.926>
VStem: 0 27.9902<62.1387 772.004> 309.891 179.938<356.533 458.945 651.141 768.119> 771.729 27.9902<28.1367 772.004>
CounterMasks: 1 0e
LayerCount: 2
Fore
SplineSet
0 800 m 1xde
 399.859375 800 l 1xee
 799.71875 800 l 1
 799.71875 0.140625 l 1
 26.876953125 0.140625 l 2
 22.322265625 -0.08984375 17.625 0.0234375 12.92578125 0.140625 c 2
 0 0.140625 l 1
 0 34.142578125 l 1
 0 800 l 1xde
27.990234375 772.00390625 m 1xde
 27.990234375 62.138671875 l 1
 125.8984375 160.06640625 223.80859375 257.994140625 321.716796875 355.921875 c 1
 314.297851562 368.924804688 309.970703125 384.05859375 309.890625 400.0703125 c 0
 309.890625 449.733398438 350.204101562 490.0546875 399.859375 490.0546875 c 0
 449.514648438 490.0546875 489.828125 449.733398438 489.828125 400.0703125 c 0
 489.828125 350.407226562 449.514648438 310.0859375 399.859375 310.0859375 c 0
 383.813476562 310.165039062 368.650390625 314.51171875 355.62890625 321.962890625 c 1
 257.704101562 224.021484375 159.780273438 126.078125 61.85546875 28.13671875 c 1
 771.728515625 28.13671875 l 1
 771.728515625 772.00390625 l 1
 771.728515625 772.00390625 465.036132812 771.978515625 465.037109375 772.00390625 c 1xde
 480.387695312 755.868164062 489.817382812 734.022460938 489.828125 710.015625 c 0
 489.828125 660.352539062 449.514648438 620.03125 399.859375 620.03125 c 0xee
 350.204101562 620.03125 309.890625 660.352539062 309.890625 710.015625 c 0
 309.969726562 734.047851562 319.485351562 755.901367188 334.92578125 772.00390625 c 1
 27.990234375 772.00390625 l 1xde
EndSplineSet
Validated: 33
EndChar

StartChar: colon
Encoding: 58 58 84
Width: 1000
HStem: 0.140625 27.9961<27.9902 771.729> 310.086 179.969<340.995 458.724> 620.031 179.969<340.995 458.724> 772.004 27.9961<27.9902 334.926>
VStem: 0 27.9902<28.1367 772.004> 309.891 179.938<341.196 458.945 651.141 768.119> 771.729 27.9902<28.1367 772.004>
CounterMasks: 1 0e
LayerCount: 2
Fore
SplineSet
0 800 m 1xde
 399.859375 800 l 1xee
 799.71875 800 l 1
 799.71875 0.140625 l 1
 0 0.140625 l 1
 0 800 l 1xde
27.990234375 772.00390625 m 1xde
 27.990234375 28.13671875 l 1
 771.728515625 28.13671875 l 1
 771.728515625 772.00390625 l 1
 771.728515625 772.00390625 465.036132812 771.978515625 465.037109375 772.00390625 c 1xde
 480.387695312 755.868164062 489.817382812 734.022460938 489.828125 710.015625 c 0
 489.828125 660.352539062 449.514648438 620.03125 399.859375 620.03125 c 0xee
 350.204101562 620.03125 309.890625 660.352539062 309.890625 710.015625 c 0
 309.969726562 734.047851562 319.485351562 755.901367188 334.92578125 772.00390625 c 1
 27.990234375 772.00390625 l 1xde
399.859375 490.0546875 m 0
 449.514648438 490.0546875 489.828125 449.733398438 489.828125 400.0703125 c 0
 489.828125 350.407226562 449.514648438 310.0859375 399.859375 310.0859375 c 0
 350.204101562 310.0859375 309.890625 350.407226562 309.890625 400.0703125 c 0
 309.890625 449.733398438 350.204101562 490.0546875 399.859375 490.0546875 c 0
EndSplineSet
Validated: 33
EndChar

StartChar: equal
Encoding: 61 61 85
Width: 1000
HStem: 0.140625 27.9961<27.9902 771.729> 376.098 47.9922<28.197 322.494 477.286 771.522> 772.004 27.9961<27.9902 771.729>
VStem: 0 27.9902<28.1367 376.098 424.09 772.004> 771.729 27.9902<28.1367 376.043 424.035 772.004>
LayerCount: 2
Fore
SplineSet
0 800 m 1
 799.71875 800 l 1
 799.71875 424.03515625 l 1
 799.71875 376.04296875 l 1
 799.71875 0.140625 l 1
 0 0.140625 l 1
 0 376.09765625 l 1
 0 424.08984375 l 1
 0 800 l 1
27.990234375 772.00390625 m 1
 27.990234375 424.08984375 l 1
 27.990234375 424.08984375 313.235351562 424.111328125 313.24609375 424.08984375 c 1
 323.763671875 462.068359375 358.568359375 490.012695312 399.859375 490.0546875 c 0
 441.198242188 490.041992188 476.045898438 462.061523438 486.55078125 424.03515625 c 1
 771.728515625 424.03515625 l 1
 771.728515625 772.00390625 l 1
 27.990234375 772.00390625 l 1
27.990234375 376.09765625 m 1
 27.990234375 28.13671875 l 1
 771.728515625 28.13671875 l 1
 771.728515625 376.04296875 l 1
 771.728515625 376.04296875 486.481445312 376.021484375 486.470703125 376.04296875 c 1
 475.951171875 338.068359375 441.147460938 310.126953125 399.859375 310.0859375 c 0
 358.551757812 310.127929688 323.736328125 338.095703125 313.234375 376.09765625 c 1
 27.990234375 376.09765625 l 1
EndSplineSet
Validated: 33
EndChar

StartChar: question
Encoding: 63 63 86
Width: 1000
HStem: 0.140625 27.9961<28.3455 335.061 464.922 771.861> 772.004 27.9961<62.0664 771.861>
VStem: 0.132812 27.9902<28.1367 738.082> 310.023 179.938<32.0142 147.771> 375.945 47.9824<167.575 390.199> 771.861 27.9902<28.1367 772.004>
LayerCount: 2
Fore
SplineSet
0.1328125 800 m 1xec
 34.07421875 800 l 1
 799.8515625 800 l 1
 799.8515625 0.140625 l 1
 423.927734375 0.140625 l 1
 375.9453125 0.140625 l 1
 0.1328125 0.140625 l 1
 0.1328125 773.099609375 l 2
 -0.0966796875 777.65625 0.0166015625 782.353515625 0.1328125 787.052734375 c 2
 0.1328125 800 l 1xec
62.06640625 772.00390625 m 1
 180.360351562 653.689453125 298.653320312 535.375 416.947265625 417.060546875 c 1
 416.947265625 417.060546875 416.9375 417.055664062 416.939453125 417.052734375 c 0
 417.232421875 416.643554688 417.509765625 416.228515625 417.77734375 415.80078125 c 0
 419.088867188 414.290039062 420.206054688 412.625 421.111328125 410.818359375 c 0
 421.551757812 410.060546875 421.955078125 409.268554688 422.3125 408.4609375 c 0
 423.337890625 405.861328125 423.931640625 403.020507812 423.982421875 400.0703125 c 0
 423.967773438 399.809570312 423.950195312 399.555664062 423.927734375 399.296875 c 2
 423.927734375 399.296875 423.950195312 176.849609375 423.927734375 176.837890625 c 1xec
 461.959960938 166.33984375 489.948242188 131.479492188 489.9609375 90.125 c 0xf4
 489.880859375 66.0927734375 480.36328125 44.23828125 464.921875 28.13671875 c 1
 771.861328125 28.13671875 l 1
 771.861328125 772.00390625 l 1
 62.06640625 772.00390625 l 1
28.123046875 738.08203125 m 1
 28.123046875 28.13671875 l 1
 28.123046875 28.13671875 335.063476562 28.1650390625 335.060546875 28.13671875 c 1
 319.619140625 44.23828125 310.103515625 66.0927734375 310.0234375 90.125 c 0xf4
 310.063476562 131.413085938 337.98828125 166.217773438 375.9453125 176.748046875 c 1
 375.9453125 390.19921875 l 1
 28.123046875 738.08203125 l 1
EndSplineSet
Validated: 33
EndChar

StartChar: at
Encoding: 64 64 87
Width: 1000
HStem: 0.140625 27.9961<28.123 771.861> 310.086 179.969<356.424 443.714> 772.004 27.9961<62.0645 737.949>
VStem: 0.132812 27.9902<28.1367 738.082> 310.023 179.938<341.196 443.662> 771.861 27.9902<28.1367 738.059>
CounterMasks: 1 fc
LayerCount: 2
Fore
SplineSet
0.1328125 800 m 1
 34.07421875 800 l 1
 765.94140625 800 l 1
 799.8515625 800 l 1
 799.8515625 766.052734375 l 1
 799.8515625 0.140625 l 1
 0.1328125 0.140625 l 1
 0.1328125 773.099609375 l 2
 -0.0966796875 777.65625 0.0166015625 782.353515625 0.1328125 787.052734375 c 2
 0.1328125 800 l 1
62.064453125 772.00390625 m 1
 159.98046875 674.0703125 257.896484375 576.137695312 355.8125 478.205078125 c 1
 368.822265625 485.638671875 383.966796875 489.974609375 399.9921875 490.0546875 c 0
 416.0703125 490.044921875 431.263671875 485.75 444.328125 478.337890625 c 1
 542.201171875 576.2265625 640.076171875 674.115234375 737.94921875 772.00390625 c 1
 62.064453125 772.00390625 l 1
28.123046875 738.08203125 m 1
 28.123046875 28.13671875 l 1
 771.861328125 28.13671875 l 1
 771.861328125 738.05859375 l 1
 673.9921875 640.172851562 576.123046875 542.286132812 478.25390625 444.400390625 c 1
 485.66015625 431.336914062 489.951171875 416.145507812 489.9609375 400.0703125 c 0
 489.9609375 350.407226562 449.646484375 310.0859375 399.9921875 310.0859375 c 0
 350.336914062 310.0859375 310.0234375 350.407226562 310.0234375 400.0703125 c 0
 310.102539062 416.104492188 314.44140625 431.2578125 321.87890625 444.2734375 c 1
 28.123046875 738.08203125 l 1
EndSplineSet
Validated: 1
EndChar

StartChar: backslash
Encoding: 92 92 88
Width: 1000
HStem: 0.140625 27.9961<28.123 737.857> 310.086 179.969<356.424 443.526> 772.004 27.9961<62.0664 771.861>
VStem: 0.132812 27.9902<28.1367 738.082> 310.023 179.938<356.44 443.662> 771.861 27.9902<62.0039 772.004>
CounterMasks: 1 fc
LayerCount: 2
Fore
SplineSet
0.1328125 800 m 1
 34.07421875 800 l 1
 799.8515625 800 l 1
 799.8515625 27.0234375 l 2
 800.08203125 22.4677734375 799.96875 17.7685546875 799.8515625 13.068359375 c 2
 799.8515625 0.140625 l 1
 765.84765625 0.140625 l 1
 0.1328125 0.140625 l 1
 0.1328125 773.099609375 l 2
 -0.0966796875 777.65625 0.0166015625 782.353515625 0.1328125 787.052734375 c 2
 0.1328125 800 l 1
62.06640625 772.00390625 m 1
 159.981445312 674.071289062 257.897460938 576.139648438 355.8125 478.20703125 c 1
 368.822265625 485.639648438 383.966796875 489.975585938 399.9921875 490.0546875 c 0
 449.646484375 490.0546875 489.9609375 449.733398438 489.9609375 400.0703125 c 0
 489.881835938 384.020507812 485.53515625 368.853515625 478.083984375 355.828125 c 1
 576.009765625 257.88671875 673.935546875 159.9453125 771.861328125 62.00390625 c 1
 771.861328125 772.00390625 l 1
 62.06640625 772.00390625 l 1
28.123046875 738.08203125 m 1
 28.123046875 28.13671875 l 1
 737.857421875 28.13671875 l 1
 639.951171875 126.0625 542.04296875 223.990234375 444.13671875 321.916015625 c 1
 431.134765625 314.494140625 416.002929688 310.166015625 399.9921875 310.0859375 c 0
 350.336914062 310.0859375 310.0234375 350.407226562 310.0234375 400.0703125 c 0
 310.102539062 416.104492188 314.44140625 431.2578125 321.87890625 444.2734375 c 1
 28.123046875 738.08203125 l 1
EndSplineSet
Validated: 1
EndChar

StartChar: asciicircum
Encoding: 94 94 89
Width: 1000
HStem: 0.140625 27.9961<61.8555 737.725> 772.004 27.9961<27.9902 771.729>
VStem: 0 27.9902<62.1387 772.004> 771.729 27.9902<62.0039 772.004>
LayerCount: 2
Fore
SplineSet
0 800 m 1
 799.71875 800 l 1
 799.71875 27.0234375 l 2
 799.94921875 22.4677734375 799.8359375 17.7685546875 799.71875 13.068359375 c 2
 799.71875 0.140625 l 1
 765.71484375 0.140625 l 1
 26.876953125 0.140625 l 2
 22.322265625 -0.08984375 17.625 0.0234375 12.92578125 0.140625 c 2
 0 0.140625 l 1
 0 34.142578125 l 1
 0 800 l 1
27.990234375 772.00390625 m 1
 27.990234375 62.138671875 l 1
 146.274414062 180.4453125 264.557617188 298.75390625 382.841796875 417.060546875 c 1
 382.841796875 417.060546875 382.885742188 417.015625 382.8828125 417.01953125 c 0
 387.225585938 421.373046875 393.231445312 424.064453125 399.859375 424.06640625 c 0
 403.235351562 424.040039062 406.46875 423.302734375 409.376953125 422.015625 c 0
 410.274414062 421.49609375 411.129882812 420.924804688 411.94921875 420.296875 c 0
 413.911132812 419.231445312 415.6875 417.916992188 417.271484375 416.369140625 c 0
 417.462890625 416.231445312 417.650390625 416.09375 417.837890625 415.951171875 c 0
 535.801757812 297.96875 653.764648438 179.986328125 771.728515625 62.00390625 c 1
 771.728515625 772.00390625 l 1
 27.990234375 772.00390625 l 1
399.79296875 366.134765625 m 1
 287.146484375 253.46875 174.501953125 140.802734375 61.85546875 28.13671875 c 1
 737.724609375 28.13671875 l 1
 625.081054688 140.802734375 512.436523438 253.469726562 399.79296875 366.134765625 c 1
EndSplineSet
Validated: 1
EndChar

StartChar: underscore
Encoding: 95 95 90
Width: 1000
HStem: 0.140625 179.969<31.8672 148.833 340.995 458.724 650.886 768.638> 0.140625 27.9961<155.029 334.928 464.789 644.818> 772.004 27.9961<27.9902 771.729>
VStem: 0 179.938<32.0142 148.999> 0 27.9902<155.068 771.557> 309.891 179.938<32.0142 148.999> 619.781 179.938<32.0142 148.999> 771.729 27.9902<155.314 772.004>
LayerCount: 2
Fore
SplineSet
0 800 m 1x6c
 799.71875 800 l 1x6d
 799.71875 90.125 l 1x66
 799.71875 0.140625 l 1x65
 709.75 0.140625 l 1
 399.859375 0.140625 l 1
 89.96875 0.140625 l 1xa5
 0 0.140625 l 1x6d
 0 90.125 l 1x74
 0 800 l 1x6c
27.990234375 772.00390625 m 1
 27.990234375 772.00390625 28.0185546875 155.065429688 27.990234375 155.068359375 c 1
 44.08984375 170.51171875 65.9404296875 180.030273438 89.96875 180.109375 c 0xad
 139.624023438 180.109375 179.9375 139.788085938 179.9375 90.125 c 0
 179.857421875 66.0927734375 170.33984375 44.23828125 154.8984375 28.13671875 c 1
 154.8984375 28.13671875 334.930664062 28.1650390625 334.927734375 28.13671875 c 1x74
 319.486328125 44.23828125 309.970703125 66.0927734375 309.890625 90.125 c 0
 309.890625 139.788085938 350.204101562 180.109375 399.859375 180.109375 c 0xb4
 449.514648438 180.109375 489.828125 139.788085938 489.828125 90.125 c 0
 489.748046875 66.0927734375 480.23046875 44.23828125 464.7890625 28.13671875 c 1
 464.7890625 28.13671875 644.821289062 28.1650390625 644.818359375 28.13671875 c 1x74
 629.376953125 44.23828125 619.861328125 66.0927734375 619.78125 90.125 c 0
 619.78125 139.788085938 660.094726562 180.109375 709.75 180.109375 c 0xb6
 733.752929688 180.098632812 755.595703125 170.66796875 771.728515625 155.314453125 c 1
 771.728515625 772.00390625 l 1
 27.990234375 772.00390625 l 1
EndSplineSet
Validated: 33
EndChar

StartChar: grave
Encoding: 96 96 91
Width: 1000
HStem: 0.140625 27.9961<28.123 771.861> 620.031 179.969<32 133.685> 772.004 27.9961<155.279 771.861>
VStem: 0.132812 179.938<666.44 768.912> 0.132812 27.9902<28.1367 645.072> 771.861 27.9902<28.1367 772.004>
LayerCount: 2
Fore
SplineSet
0.1328125 800 m 1xac
 34.07421875 800 l 1
 90.1015625 800 l 1xcc
 799.8515625 800 l 1
 799.8515625 0.140625 l 1
 0.1328125 0.140625 l 1xac
 0.1328125 710.015625 l 1xb4
 0.1328125 773.099609375 l 2
 -0.0966796875 777.65625 0.0166015625 782.353515625 0.1328125 787.052734375 c 2
 0.1328125 800 l 1xac
155.279296875 772.00390625 m 1xac
 170.629882812 755.868164062 180.059570312 734.022460938 180.0703125 710.015625 c 0
 179.990234375 693.98828125 175.655273438 678.840820312 168.22265625 665.828125 c 1
 251.130859375 582.905273438 334.0390625 499.983398438 416.947265625 417.060546875 c 1
 416.947265625 417.060546875 416.935546875 417.049804688 416.939453125 417.052734375 c 0
 421.291015625 412.708007812 423.982421875 406.700195312 423.982421875 400.0703125 c 0
 423.982421875 386.827148438 413.232421875 376.075195312 399.9921875 376.07421875 c 0
 393.375 376.096679688 387.381835938 378.80078125 383.052734375 383.16015625 c 1
 383.041015625 383.1484375 383.033203125 383.1328125 383.021484375 383.12109375 c 1
 383.021484375 383.12109375 134.192382812 631.831054688 134.296875 631.888671875 c 1
 121.283203125 624.450195312 106.1328125 620.110351562 90.1015625 620.03125 c 0xd4
 66.0732421875 620.110351562 44.22265625 629.62890625 28.123046875 645.072265625 c 1
 28.123046875 28.13671875 l 1
 771.861328125 28.13671875 l 1
 771.861328125 772.00390625 l 1
 155.279296875 772.00390625 l 1xac
EndSplineSet
Validated: 33
EndChar

StartChar: bar
Encoding: 124 124 92
Width: 1000
HStem: 0.140625 27.9961<27.9902 375.812 423.795 771.729> 772.004 27.9961<27.9902 375.867 423.85 771.729>
VStem: 0 27.9902<28.1367 772.004> 375.812 47.9824<28.3435 322.682 477.497 771.797> 771.729 27.9902<28.1367 772.004>
LayerCount: 2
Fore
SplineSet
0 800 m 1
 375.8671875 800 l 1
 423.849609375 800 l 1
 799.71875 800 l 1
 799.71875 0.140625 l 1
 423.794921875 0.140625 l 1
 375.8125 0.140625 l 1
 0 0.140625 l 1
 0 800 l 1
27.990234375 772.00390625 m 1
 27.990234375 28.13671875 l 1
 375.8125 28.13671875 l 1
 375.8125 28.13671875 375.791015625 313.438476562 375.8125 313.44921875 c 1
 337.85546875 323.978515625 309.931640625 358.783203125 309.890625 400.0703125 c 0
 309.932617188 441.376953125 337.883789062 476.193359375 375.8671875 486.705078125 c 1
 375.8671875 772.00390625 l 1
 27.990234375 772.00390625 l 1
423.849609375 772.00390625 m 1
 423.849609375 772.00390625 423.872070312 486.779296875 423.849609375 486.767578125 c 1
 461.853515625 476.250976562 489.814453125 441.405273438 489.828125 400.0703125 c 0
 489.784179688 358.74609375 461.805664062 323.91796875 423.794921875 313.42578125 c 1
 423.794921875 28.13671875 l 1
 771.728515625 28.13671875 l 1
 771.728515625 772.00390625 l 1
 423.849609375 772.00390625 l 1
EndSplineSet
Validated: 33
EndChar

StartChar: asciitilde
Encoding: 126 126 93
Width: 1000
HStem: 0.140625 27.9961<27.9902 771.729> 310.086 179.969<340.995 457.503 652.106 767.845> 772.004 27.9961<27.9902 771.729>
VStem: 0 27.9902<28.1367 772.004> 771.729 27.9902<28.3592 335.129 465.26 772.004>
CounterMasks: 1 e0
LayerCount: 2
Fore
SplineSet
0 800 m 1
 799.71875 800 l 1
 799.71875 424.03515625 l 1
 799.71875 376.04296875 l 1
 799.71875 0.140625 l 1
 0 0.140625 l 1
 0 800 l 1
27.990234375 772.00390625 m 1
 27.990234375 28.13671875 l 1
 771.728515625 28.13671875 l 1
 771.728515625 28.13671875 771.700195312 335.131835938 771.728515625 335.12890625 c 1
 755.62890625 319.684570312 733.778320312 310.166015625 709.75 310.0859375 c 0
 668.461914062 310.126953125 633.658203125 338.068359375 623.138671875 376.04296875 c 1
 623.138671875 376.04296875 486.481445312 376.021484375 486.470703125 376.04296875 c 1
 475.951171875 338.068359375 441.147460938 310.126953125 399.859375 310.0859375 c 0
 350.204101562 310.0859375 309.890625 350.407226562 309.890625 400.0703125 c 0
 309.890625 449.733398438 350.204101562 490.0546875 399.859375 490.0546875 c 0
 441.198242188 490.041992188 476.045898438 462.061523438 486.55078125 424.03515625 c 1
 486.55078125 424.03515625 623.115234375 424.057617188 623.125 424.03515625 c 1
 633.624023438 462.040039062 668.440429688 490.01171875 709.75 490.0546875 c 0
 733.752929688 490.043945312 755.595703125 480.61328125 771.728515625 465.259765625 c 1
 771.728515625 772.00390625 l 1
 27.990234375 772.00390625 l 1
EndSplineSet
Validated: 33
EndChar

StartChar: exclamdown
Encoding: 161 161 94
Width: 1000
HStem: 0.140625 27.9961<27.9902 375.812 423.795 771.729> 772.004 27.9961<27.9902 334.926 465.037 771.729>
VStem: 0 27.9902<28.1367 772.004> 309.891 179.938<652.349 768.119> 375.812 47.9824<28.1367 400.07 400.232 632.645> 771.729 27.9902<28.1367 772.004>
LayerCount: 2
Fore
SplineSet
0 800 m 1xec
 375.8671875 800 l 1
 423.849609375 800 l 1
 799.71875 800 l 1
 799.71875 0.140625 l 1
 423.794921875 0.140625 l 1
 375.8125 0.140625 l 1
 0 0.140625 l 1
 0 800 l 1xec
27.990234375 772.00390625 m 1
 27.990234375 28.13671875 l 1
 375.8125 28.13671875 l 1
 375.8125 400.0703125 l 1xec
 375.8671875 400.0703125 l 1
 375.8671875 400.0703125 375.844726562 623.37109375 375.8671875 623.380859375 c 1
 337.883789062 633.892578125 309.932617188 668.708984375 309.890625 710.015625 c 0xf4
 309.969726562 734.047851562 319.485351562 755.901367188 334.92578125 772.00390625 c 1
 27.990234375 772.00390625 l 1
465.037109375 772.00390625 m 1
 480.387695312 755.868164062 489.817382812 734.022460938 489.828125 710.015625 c 0xf4
 489.786132812 668.708984375 461.833984375 633.891601562 423.849609375 623.380859375 c 1
 423.849609375 623.380859375 423.849609375 400.075195312 423.849609375 400.0703125 c 0
 423.834960938 399.809570312 423.817382812 399.555664062 423.794921875 399.296875 c 2
 423.794921875 28.13671875 l 1
 771.728515625 28.13671875 l 1
 771.728515625 772.00390625 l 1
 465.037109375 772.00390625 l 1
EndSplineSet
Validated: 33
EndChar

StartChar: sterling
Encoding: 163 163 95
Width: 1000
HStem: 0.140625 27.9961<61.8555 737.725> 620.031 179.969<650.886 767.852> 772.004 27.9961<27.9902 644.816>
VStem: 0 27.9902<62.1387 772.004> 619.781 179.938<651.141 768.126> 771.729 27.9902<62.4265 645.072>
LayerCount: 2
Fore
SplineSet
0 800 m 1xb4
 709.75 800 l 1xd4
 799.71875 800 l 1xb4
 799.71875 710.015625 l 1xb8
 799.71875 27.0234375 l 2
 799.94921875 22.4677734375 799.8359375 17.7685546875 799.71875 13.068359375 c 2
 799.71875 0.140625 l 1
 765.71484375 0.140625 l 1
 26.876953125 0.140625 l 2
 22.322265625 -0.08984375 17.625 0.0234375 12.92578125 0.140625 c 2
 0 0.140625 l 1
 0 34.142578125 l 1
 0 800 l 1xb4
27.990234375 772.00390625 m 1xb8
 27.990234375 62.138671875 l 1
 146.274414062 180.4453125 264.557617188 298.75390625 382.841796875 417.060546875 c 1
 382.841796875 417.060546875 382.885742188 417.015625 382.8828125 417.01953125 c 0
 387.225585938 421.373046875 393.231445312 424.064453125 399.859375 424.06640625 c 0
 403.235351562 424.040039062 406.46875 423.302734375 409.376953125 422.015625 c 0
 410.274414062 421.49609375 411.129882812 420.924804688 411.94921875 420.296875 c 0
 413.911132812 419.231445312 415.6875 417.916992188 417.271484375 416.369140625 c 0
 417.462890625 416.231445312 417.650390625 416.09375 417.837890625 415.951171875 c 0
 535.801757812 297.96875 653.764648438 179.986328125 771.728515625 62.00390625 c 1
 771.728515625 62.00390625 771.700195312 645.075195312 771.728515625 645.072265625 c 1
 755.62890625 629.62890625 733.778320312 620.110351562 709.75 620.03125 c 0xd4
 660.094726562 620.03125 619.78125 660.352539062 619.78125 710.015625 c 0
 619.860351562 734.047851562 629.375976562 755.901367188 644.81640625 772.00390625 c 1
 27.990234375 772.00390625 l 1xb8
399.79296875 366.134765625 m 1
 287.146484375 253.46875 174.501953125 140.802734375 61.85546875 28.13671875 c 1
 737.724609375 28.13671875 l 1
 625.081054688 140.802734375 512.436523438 253.469726562 399.79296875 366.134765625 c 1
EndSplineSet
Validated: 33
EndChar

StartChar: yen
Encoding: 165 165 96
Width: 1000
HStem: 0.140625 27.9961<61.8555 737.725> 620.031 179.969<31.8672 148.833> 772.004 27.9961<155.146 771.729>
VStem: 0 179.938<651.141 768.912> 0 27.9902<62.1387 645.072> 771.729 27.9902<62.0039 772.004>
LayerCount: 2
Fore
SplineSet
0 800 m 1xac
 89.96875 800 l 1xcc
 799.71875 800 l 1
 799.71875 27.0234375 l 2
 799.94921875 22.4677734375 799.8359375 17.7685546875 799.71875 13.068359375 c 2
 799.71875 0.140625 l 1
 765.71484375 0.140625 l 1
 26.876953125 0.140625 l 2
 22.322265625 -0.08984375 17.625 0.0234375 12.92578125 0.140625 c 2
 0 0.140625 l 1
 0 34.142578125 l 1xac
 0 710.015625 l 1xb4
 0 800 l 1xac
155.146484375 772.00390625 m 1xac
 170.497070312 755.868164062 179.926757812 734.022460938 179.9375 710.015625 c 0
 179.9375 660.352539062 139.624023438 620.03125 89.96875 620.03125 c 0xd4
 65.9404296875 620.110351562 44.08984375 629.62890625 27.990234375 645.072265625 c 1
 27.990234375 62.138671875 l 1
 146.274414062 180.4453125 264.557617188 298.75390625 382.841796875 417.060546875 c 1
 382.841796875 417.060546875 382.885742188 417.015625 382.8828125 417.01953125 c 0
 387.225585938 421.373046875 393.231445312 424.064453125 399.859375 424.06640625 c 0
 403.235351562 424.040039062 406.46875 423.302734375 409.376953125 422.015625 c 0
 410.274414062 421.49609375 411.129882812 420.924804688 411.94921875 420.296875 c 0
 413.911132812 419.231445312 415.6875 417.916992188 417.271484375 416.369140625 c 0
 417.462890625 416.231445312 417.650390625 416.09375 417.837890625 415.951171875 c 0
 535.801757812 297.96875 653.764648438 179.986328125 771.728515625 62.00390625 c 1
 771.728515625 772.00390625 l 1
 155.146484375 772.00390625 l 1xac
399.79296875 366.134765625 m 1
 287.146484375 253.46875 174.501953125 140.802734375 61.85546875 28.13671875 c 1
 737.724609375 28.13671875 l 1
 625.081054688 140.802734375 512.436523438 253.469726562 399.79296875 366.134765625 c 1
EndSplineSet
Validated: 1
EndChar

StartChar: divide
Encoding: 247 247 97
Width: 1000
HStem: 0.140625 179.969<340.995 458.724> 0.140625 27.9961<28.2127 334.928 464.789 771.729> 376.098 47.9922<27.9902 771.729> 620.031 179.969<340.995 458.724> 772.004 27.9961<27.9902 334.926>
VStem: 0 27.9902<28.1367 376.098 424.09 772.004> 309.891 179.938<32.0142 148.999 651.141 768.119> 771.729 27.9902<28.1367 376.043 424.035 772.004>
CounterMasks: 1 07
LayerCount: 2
Fore
SplineSet
0 800 m 1x6f
 399.859375 800 l 1x37
 799.71875 800 l 1
 799.71875 424.03515625 l 1
 799.71875 376.04296875 l 1
 799.71875 0.140625 l 1x6f
 399.859375 0.140625 l 1xa7
 0 0.140625 l 1
 0 376.09765625 l 1
 0 424.08984375 l 1
 0 800 l 1x6f
27.990234375 772.00390625 m 1x2f
 27.990234375 424.08984375 l 1
 399.828125 424.08984375 l 1
 399.828125 424.08984375 399.827148438 424.06640625 399.828125 424.06640625 c 0
 399.833007812 424.06640625 399.837890625 424.06640625 399.84375 424.06640625 c 0
 399.848632812 424.06640625 399.854492188 424.06640625 399.859375 424.06640625 c 0
 400.260742188 424.065429688 400.642578125 424.055664062 401.0390625 424.03515625 c 2
 771.728515625 424.03515625 l 1
 771.728515625 772.00390625 l 1
 771.728515625 772.00390625 465.036132812 771.978515625 465.037109375 772.00390625 c 1x2f
 480.387695312 755.868164062 489.817382812 734.022460938 489.828125 710.015625 c 0
 489.828125 660.352539062 449.514648438 620.03125 399.859375 620.03125 c 0x37
 350.204101562 620.03125 309.890625 660.352539062 309.890625 710.015625 c 0
 309.969726562 734.047851562 319.485351562 755.901367188 334.92578125 772.00390625 c 1
 27.990234375 772.00390625 l 1x2f
27.990234375 376.09765625 m 1
 27.990234375 28.13671875 l 1
 27.990234375 28.13671875 334.930664062 28.1650390625 334.927734375 28.13671875 c 1x67
 319.486328125 44.23828125 309.970703125 66.0927734375 309.890625 90.125 c 0
 309.890625 139.788085938 350.204101562 180.109375 399.859375 180.109375 c 0xa7
 449.514648438 180.109375 489.828125 139.788085938 489.828125 90.125 c 0
 489.748046875 66.0927734375 480.23046875 44.23828125 464.7890625 28.13671875 c 1
 771.728515625 28.13671875 l 1x67
 771.728515625 376.04296875 l 1
 399.828125 376.04296875 l 1
 399.828125 376.07421875 l 1
 399.819335938 376.075195312 399.811523438 376.077148438 399.802734375 376.078125 c 0
 399.711914062 376.083984375 399.622070312 376.090820312 399.53125 376.09765625 c 2
 27.990234375 376.09765625 l 1
EndSplineSet
Validated: 33
EndChar

StartChar: questiondown
Encoding: 191 191 98
Width: 1000
HStem: 0.140625 27.9961<27.9902 737.725> 772.004 27.9961<27.9902 334.926 465.037 771.729>
VStem: 0 27.9902<28.1367 772.004> 309.891 179.938<652.349 768.119> 375.867 47.9824<400.232 632.645> 771.729 27.9902<62.0039 772.004>
LayerCount: 2
Fore
SplineSet
0 800 m 1xec
 375.8671875 800 l 1
 423.849609375 800 l 1
 799.71875 800 l 1
 799.71875 27.0234375 l 2
 799.94921875 22.4677734375 799.8359375 17.7685546875 799.71875 13.068359375 c 2
 799.71875 0.140625 l 1
 765.71484375 0.140625 l 1
 0 0.140625 l 1
 0 800 l 1xec
27.990234375 772.00390625 m 1
 27.990234375 28.13671875 l 1
 737.724609375 28.13671875 l 1
 619.43359375 146.451171875 501.140625 264.767578125 382.849609375 383.08203125 c 0
 382.874023438 383.106445312 382.903320312 383.127929688 382.927734375 383.15234375 c 0
 382.689453125 383.48828125 382.4609375 383.827148438 382.240234375 384.17578125 c 0
 380.7890625 385.8046875 379.565429688 387.62109375 378.59765625 389.6015625 c 0
 378.229492188 390.247070312 377.887695312 390.91796875 377.580078125 391.599609375 c 0
 376.53125 394.220703125 375.921875 397.08984375 375.8671875 400.0703125 c 2
 375.8671875 400.0703125 375.844726562 623.37109375 375.8671875 623.380859375 c 1xec
 337.883789062 633.892578125 309.932617188 668.708984375 309.890625 710.015625 c 0xf4
 309.969726562 734.047851562 319.485351562 755.901367188 334.92578125 772.00390625 c 1
 27.990234375 772.00390625 l 1
465.037109375 772.00390625 m 1
 480.387695312 755.868164062 489.817382812 734.022460938 489.828125 710.015625 c 0xf4
 489.786132812 668.708984375 461.833984375 633.891601562 423.849609375 623.380859375 c 1
 423.849609375 409.939453125 l 1
 539.809570312 293.9609375 655.768554688 177.982421875 771.728515625 62.00390625 c 1
 771.728515625 772.00390625 l 1
 465.037109375 772.00390625 l 1
EndSplineSet
Validated: 33
EndChar
